<svg id="Layer_3" height="512" viewBox="0 0 64 64" width="512" xmlns="http://www.w3.org/2000/svg" data-name="Layer 3"><rect fill="#e2e7f6" height="48" rx="2" width="60" x="2" y="2"/><path d="m4 2a2 2 0 0 0 -2 2v43h54a2 2 0 0 0 2-2v-43z" fill="#f7fafd"/><path d="m60 2h-56a2 2 0 0 0 -2 2v6h60v-6a2 2 0 0 0 -2-2z" fill="#5e87ca"/><path d="m26 18h32v17h-32z" fill="#f0ae42"/><path d="m58 2h-54a2 2 0 0 0 -2 2v6h56z" fill="#78a0d4"/><path d="m60 50h-56a2 2 0 0 1 -2-2v-6h60v6a2 2 0 0 1 -2 2z" fill="#5e87ca"/><path d="m2 42v5h54a2 2 0 0 0 2-2v-3z" fill="#78a0d4"/><path d="m5 45h8v2h-8z" fill="#f7fafd"/><path d="m15 45h2v2h-2z" fill="#f7fafd"/><path d="m45.764 58h-27.528a2 2 0 0 0 -1.789 1.106l-1.447 2.894h34l-1.447-2.894a2 2 0 0 0 -1.789-1.106z" fill="#3b5892"/><path d="m40 58-2-8h-12l-2 8z" fill="#c8cded"/><path d="m45 59v-1h-26.764a2 2 0 0 0 -1.789 1.106l-.447.894h28a1 1 0 0 0 1-1z" fill="#4c6cb5"/><g fill="#f7fafd"><path d="m30 5h4v2h-4z"/><path d="m36 5h2v2h-2z"/><path d="m26 5h2v2h-2z"/><path d="m41.9 27.529-1.72-5.162a2 2 0 0 0 -1.901-1.367h-.558a2 2 0 0 0 -1.9 1.367l-1.721 5.162a2 2 0 0 0 -.1.633v2.838h2v-2h4v2h2v-2.838a2 2 0 0 0 -.1-.633zm-3.621-4.529 1.334 4h-3.226l1.334-4z"/><path d="m45 31h-2v-9a1 1 0 0 1 1-1h3.5a3.5 3.5 0 0 1 0 7h-2.5zm0-5h2.5a1.5 1.5 0 0 0 0-3h-2.5z"/><path d="m52 21h2v10h-2z"/></g><path d="m30 28v-4h-2.2a9.943 9.943 0 0 0 -1.459-3.512l1.559-1.559-2.829-2.829-1.559 1.56a9.943 9.943 0 0 0 -3.512-1.46v-2.2h-4v2.2a9.943 9.943 0 0 0 -3.512 1.459l-1.559-1.559-2.829 2.829 1.56 1.559a9.943 9.943 0 0 0 -1.46 3.512h-2.2v4h2.2a9.943 9.943 0 0 0 1.46 3.512l-1.56 1.559 2.829 2.829 1.559-1.559a9.943 9.943 0 0 0 3.512 1.459v2.2h4v-2.2a9.943 9.943 0 0 0 3.512-1.459l1.559 1.559 2.829-2.829-1.56-1.559a9.943 9.943 0 0 0 1.46-3.512z" fill="#b5b5b5"/><circle cx="18" cy="26" fill="#f2f2f2" r="6"/><path d="m20 16.2v-2.2h-4v2.2a9.943 9.943 0 0 0 -3.512 1.459l-1.559-1.559-2.829 2.829 1.56 1.559a9.943 9.943 0 0 0 -1.46 3.512h-2.2v4h2.2a9.943 9.943 0 0 0 1.46 3.512l-1.52 1.519a13.275 13.275 0 0 0 15.606-15.6l-.234.234a9.943 9.943 0 0 0 -3.512-1.465z" fill="#ccc"/><path d="m23.494 23.594a6 6 0 1 0 -6.8 8.259 13.3 13.3 0 0 0 6.8-8.259z" fill="#f7fafd"/><path d="m36 29h4v2h2v-2.838a2 2 0 0 0 -.1-.633l-1.72-5.162a2 2 0 0 0 -1.901-1.367h-.558a2 2 0 0 0 -1.9 1.367l-1.721 5.162a2 2 0 0 0 -.1.633v2.838h2zm2.279-6 1.334 4h-3.226l1.334-4z"/><path d="m45 28h2.5a3.5 3.5 0 0 0 0-7h-3.5a1 1 0 0 0 -1 1v9h2zm0-5h2.5a1.5 1.5 0 0 1 0 3h-2.5z"/><path d="m52 21h2v10h-2z"/><path d="m60 1h-56a3 3 0 0 0 -3 3v44a3 3 0 0 0 3 3h20.719l-1.5 6h-4.983a2.984 2.984 0 0 0 -2.683 1.658l-1.448 2.895a1 1 0 0 0 .895 1.447h34a1 1 0 0 0 .9-1.447l-1.448-2.895a2.984 2.984 0 0 0 -2.688-1.658h-4.983l-1.5-6h20.719a3 3 0 0 0 3-3v-44a3 3 0 0 0 -3-3zm-56 2h56a1 1 0 0 1 1 1v5h-58v-5a1 1 0 0 1 1-1zm57 8v30h-58v-30zm-14.342 48.553.724 1.447h-30.764l.724-1.447a.994.994 0 0 1 .894-.553h27.528a.994.994 0 0 1 .894.553zm-7.939-2.553h-13.438l1.5-6h10.438zm21.281-8h-56a1 1 0 0 1 -1-1v-5h58v5a1 1 0 0 1 -1 1z"/><path d="m30 5h4v2h-4z"/><path d="m36 5h2v2h-2z"/><path d="m26 5h2v2h-2z"/><path d="m5 45h8v2h-8z"/><path d="m15 45h2v2h-2z"/><path d="m6 29h1.415a10.915 10.915 0 0 0 .985 2.361l-1 1a1 1 0 0 0 0 1.414l2.828 2.828a1 1 0 0 0 1.414 0l1-1a10.915 10.915 0 0 0 2.358.982v1.415a1 1 0 0 0 1 1h4a1 1 0 0 0 1-1v-1.415a10.915 10.915 0 0 0 2.361-.981l1 1a1 1 0 0 0 1.414 0l.61-.604h31.615a1 1 0 0 0 1-1v-17a1 1 0 0 0 -1-1h-30.615l-1.607-1.606a1 1 0 0 0 -1.414 0l-1 1a10.886 10.886 0 0 0 -2.364-.979v-1.415a1 1 0 0 0 -1-1h-4a1 1 0 0 0 -1 1v1.415a10.886 10.886 0 0 0 -2.361.981l-1-1a1 1 0 0 0 -1.414 0l-2.831 2.826a1 1 0 0 0 0 1.414l1 1a10.915 10.915 0 0 0 -.979 2.364h-1.415a1 1 0 0 0 -1 1v4a1 1 0 0 0 1 1zm51 5h-28.615l.221-.222a1 1 0 0 0 0-1.414l-1-1a10.915 10.915 0 0 0 .979-2.364h1.415a1 1 0 0 0 1-1v-4a1 1 0 0 0 -1-1h-1.415a10.915 10.915 0 0 0 -.981-2.361l1-1a.988.988 0 0 0 .28-.636h28.116zm-50-9h1.2a1 1 0 0 0 .98-.8 8.9 8.9 0 0 1 1.312-3.158 1 1 0 0 0 -.126-1.26l-.852-.852 1.414-1.414.852.851a1 1 0 0 0 1.259.127 8.9 8.9 0 0 1 3.161-1.312 1 1 0 0 0 .8-.982v-1.2h2v1.2a1 1 0 0 0 .8.981 8.9 8.9 0 0 1 3.159 1.311 1 1 0 0 0 1.259-.127l.852-.851 1.414 1.414-.852.852a1 1 0 0 0 -.126 1.26 8.9 8.9 0 0 1 1.313 3.16 1 1 0 0 0 .98.8h1.201v2h-1.2a1 1 0 0 0 -.98.8 8.9 8.9 0 0 1 -1.312 3.158 1 1 0 0 0 .126 1.26l.852.852-1.414 1.414-.852-.852a1 1 0 0 0 -1.26-.127 8.862 8.862 0 0 1 -3.16 1.313 1 1 0 0 0 -.8.981v1.201h-2v-1.2a1 1 0 0 0 -.8-.981 8.862 8.862 0 0 1 -3.158-1.312 1 1 0 0 0 -1.26.127l-.852.852-1.415-1.415.852-.852a1 1 0 0 0 .126-1.26 8.9 8.9 0 0 1 -1.312-3.159 1 1 0 0 0 -.981-.8h-1.2z"/><path d="m18 33a7 7 0 1 0 -7-7 7.008 7.008 0 0 0 7 7zm0-12a5 5 0 1 1 -5 5 5.006 5.006 0 0 1 5-5z"/></svg>