<svg id="Layer_1" enable-background="new 0 0 512 512" viewBox="0 0 512 512" xmlns="http://www.w3.org/2000/svg"><g><g><path clip-rule="evenodd" d="m25.6 52.7h307.3c10.2 0 18.6 8.4 18.6 18.6v53.7c0 10.2-8.4 18.6-18.6 18.6h-307.3c-10.2 0-18.6-8.4-18.6-18.6v-53.7c0-10.3 8.4-18.6 18.6-18.6z" fill="#787680" fill-rule="evenodd"/><path d="m332.9 150.6h-307.3c-14.1 0-25.6-11.5-25.6-25.6v-53.7c0-14.1 11.5-25.6 25.6-25.6h307.3c14.1 0 25.6 11.5 25.6 25.6v53.7c0 14.1-11.5 25.6-25.6 25.6zm-307.3-90.9c-6.4 0-11.6 5.2-11.6 11.6v53.7c0 6.4 5.2 11.6 11.6 11.6h307.3c6.4 0 11.6-5.2 11.6-11.6v-53.7c0-6.4-5.2-11.6-11.6-11.6z"/></g><g><path clip-rule="evenodd" d="m25.6 180.8h307.3c10.2 0 18.6 8.4 18.6 18.6v53.7c0 10.2-8.4 18.6-18.6 18.6h-307.3c-10.2 0-18.6-8.4-18.6-18.6v-53.7c0-10.2 8.4-18.6 18.6-18.6z" fill="#787680" fill-rule="evenodd"/><path d="m332.9 278.8h-307.3c-14.1 0-25.6-11.5-25.6-25.6v-53.7c0-14.1 11.5-25.6 25.6-25.6h307.3c14.1 0 25.6 11.5 25.6 25.6v53.7c0 14.1-11.5 25.6-25.6 25.6zm-307.3-91c-6.4 0-11.6 5.2-11.6 11.6v53.7c0 6.4 5.2 11.6 11.6 11.6h307.3c6.4 0 11.6-5.2 11.6-11.6v-53.7c0-6.4-5.2-11.6-11.6-11.6z"/></g><g><path clip-rule="evenodd" d="m25.6 309h307.3c10.2 0 18.6 8.4 18.6 18.6v53.7c0 10.2-8.4 18.6-18.6 18.6h-307.3c-10.2 0-18.6-8.4-18.6-18.6v-53.7c0-10.3 8.4-18.6 18.6-18.6z" fill="#787680" fill-rule="evenodd"/><path d="m332.9 406.9h-307.3c-14.1 0-25.6-11.5-25.6-25.6v-53.7c0-14.1 11.5-25.6 25.6-25.6h307.3c14.1 0 25.6 11.5 25.6 25.6v53.7c0 14.1-11.5 25.6-25.6 25.6zm-307.3-90.9c-6.4 0-11.6 5.2-11.6 11.6v53.7c0 6.4 5.2 11.6 11.6 11.6h307.3c6.4 0 11.6-5.2 11.6-11.6v-53.7c0-6.4-5.2-11.6-11.6-11.6z"/></g><g><path clip-rule="evenodd" d="m324.8 143.6v37.2h-291.1v-37.2zm0 128.2v37.2h-291.1v-37.2z" fill="#1a1a1a" fill-rule="evenodd"/><path d="m324.8 316h-291.1c-3.9 0-7-3.1-7-7v-37.2c0-3.9 3.1-7 7-7h291.2c3.9 0 7 3.1 7 7v37.2c-.1 3.8-3.2 7-7.1 7zm-284.1-14h277.2v-23.2h-277.2zm284.1-114.2h-291.1c-3.9 0-7-3.1-7-7v-37.2c0-3.9 3.1-7 7-7h291.2c3.9 0 7 3.1 7 7v37.2c-.1 3.9-3.2 7-7.1 7zm-284.1-14h277.2v-23.2h-277.2z"/></g><g><path d="m45.7 105.1h-8.6c-3.9 0-7-3.1-7-7s3.1-7 7-7h8.6c3.9 0 7 3.1 7 7s-3.1 7-7 7z"/></g><g><path d="m79.7 105.1h-8.6c-3.9 0-7-3.1-7-7s3.1-7 7-7h8.6c3.9 0 7 3.1 7 7s-3.2 7-7 7z"/></g><g><path d="m113.6 105.1h-8.5c-3.9 0-7-3.1-7-7s3.1-7 7-7h8.5c3.9 0 7 3.1 7 7s-3.1 7-7 7z"/></g><g><path clip-rule="evenodd" d="m165.8 79.3h145.6c5.5 0 10 4.5 10 10v17.6c0 5.5-4.5 10-10 10h-145.6c-5.5 0-10.1-4.5-10.1-10v-17.5c0-5.6 4.5-10.1 10.1-10.1z" fill="#ffcd00" fill-rule="evenodd"/><path d="m311.3 124h-145.5c-9.4 0-17.1-7.6-17.1-17v-17.6c0-9.4 7.7-17 17.1-17h145.6c9.4 0 17 7.6 17 17v17.6c0 9.3-7.7 17-17.1 17zm-145.5-37.7c-1.7 0-3.1 1.4-3.1 3v17.6c0 1.6 1.4 3 3.1 3h145.6c1.7 0 3-1.4 3-3v-17.5c0-1.7-1.4-3-3-3h-145.6z"/></g><g><path clip-rule="evenodd" d="m192.7 207.5h-145.5c-5.5 0-10 4.5-10 10v17.6c0 5.5 4.5 10 10 10h145.6c5.5 0 10-4.5 10-10v-17.6c0-5.5-4.5-10-10.1-10z" fill="#ffcd00" fill-rule="evenodd"/><path d="m192.7 252.1h-145.5c-9.4 0-17-7.6-17-17v-17.6c0-9.4 7.6-17 17-17h145.6c9.4 0 17 7.6 17 17v17.6c0 9.4-7.7 17-17.1 17zm-145.5-37.6c-1.7 0-3 1.4-3 3v17.6c0 1.7 1.4 3 3 3h145.6c1.7 0 3-1.4 3-3v-17.6c0-1.7-1.4-3-3-3z"/></g><g><path clip-rule="evenodd" d="m78.8 330.6c-13.2 0-23.8 10.7-23.8 23.9s10.7 23.8 23.8 23.8c13.2 0 23.8-10.7 23.8-23.8.1-13.2-10.6-23.9-23.8-23.9z" fill="#b2fa09" fill-rule="evenodd"/><path d="m78.8 386.3c-17.5 0-31.8-14.3-31.8-31.9s14.3-31.9 31.8-31.9 31.8 14.3 31.8 31.9c.1 17.6-14.2 31.9-31.8 31.9zm0-47.7c-8.7 0-15.8 7.1-15.8 15.9 0 8.7 7.1 15.8 15.8 15.8s15.8-7.1 15.8-15.8c.1-8.8-7-15.9-15.8-15.9z"/></g><g><path clip-rule="evenodd" d="m293.5 335.6h-145.6c-5.5 0-10 4.5-10 10v17.6c0 5.5 4.5 10 10 10h145.6c5.5 0 10-4.5 10-10v-17.6c0-5.5-4.5-10-10-10z" fill="#ffcd00" fill-rule="evenodd"/><path d="m293.5 380.3h-145.6c-9.4 0-17-7.6-17-17v-17.6c0-9.4 7.6-17 17-17h145.6c9.4 0 17 7.6 17 17v17.6c0 9.3-7.6 17-17 17zm-145.6-37.7c-1.7 0-3 1.4-3 3v17.6c0 1.6 1.4 3 3 3h145.6c1.6 0 3-1.4 3-3v-17.6c0-1.7-1.4-3-3-3z"/></g><g><path clip-rule="evenodd" d="m362.5 163.1c78.7 0 142.5 60 142.5 134.1 0 32.8-12.5 62.8-33.3 86.1v55.4c0 11.4-9.3 20.6-20.6 20.6h-177.2c-11.3 0-20.6-9.3-20.6-20.6v-55.4c-20.7-23.3-33.3-53.3-33.3-86.1 0-74.1 63.8-134.1 142.5-134.1z" fill="#fb4455" fill-rule="evenodd"/><path d="m451.1 466.3h-177.2c-15.2 0-27.6-12.4-27.6-27.6v-52.8c-21.5-25.1-33.3-56.5-33.3-88.7 0-77.8 67.1-141.1 149.5-141.1s149.5 63.3 149.5 141.1c0 32.3-11.8 63.7-33.3 88.7v52.8c0 15.2-12.4 27.6-27.6 27.6zm-88.6-296.2c-74.7 0-135.5 57-135.5 127 0 29.7 11.2 58.6 31.5 81.4 1.1 1.3 1.8 2.9 1.8 4.7v55.4c0 7.5 6.1 13.6 13.6 13.6h177.2c7.5 0 13.6-6.1 13.6-13.6v-55.4c0-1.7.6-3.4 1.8-4.7 20.3-22.8 31.5-51.7 31.5-81.4 0-70-60.8-127-135.5-127z"/></g><g><path clip-rule="evenodd" d="m300.4 234.4c-29.8 0-53.9 15.2-53.9 33.9 0 16.3 17.7 57.2 31.8 59.9 16.6 3.2 76-45 76-59.9 0-18.8-24.1-33.9-53.9-33.9z" fill="#fff" fill-rule="evenodd"/><path d="m279.8 335.2c-1 0-1.9-.1-2.8-.3-19.7-3.8-37.5-50.1-37.5-66.7 0-22.9 26.7-40.9 60.9-40.9s60.9 18 60.9 40.9c0 12-19.6 29.9-31.2 39.6-8.1 6.7-34.5 27.4-50.3 27.4zm20.6-93.8c-25.4 0-46.9 12.3-46.9 26.9 0 6.9 4.2 20.3 9.9 32 7.1 14.5 13.6 20.5 16.2 21 2.9.5 14.1-3.5 32.1-16.8 21.3-15.8 35.1-31.7 35.6-36.2 0-14.6-21.5-26.9-46.9-26.9z"/></g><g><path clip-rule="evenodd" d="m424.6 234.4c29.8 0 53.9 15.2 53.9 33.9 0 16.3-17.7 57.2-31.8 59.9-16.6 3.2-76-45-76-59.9 0-18.8 24.2-33.9 53.9-33.9z" fill="#fff" fill-rule="evenodd"/><path d="m445.2 335.2c-15.8 0-42.2-20.8-50.3-27.4-11.7-9.6-31.2-27.6-31.2-39.6 0-22.9 26.8-40.9 60.9-40.9s60.9 18 60.9 40.9c0 16.7-17.8 63-37.5 66.7-.9.3-1.8.3-2.8.3zm-20.6-93.8c-25.4 0-46.9 12.3-46.9 26.9.5 4.4 14.3 20.4 35.6 36.2 18 13.3 29.2 17.4 32.1 16.8 2.6-.5 9.1-6.5 16.2-21 5.7-11.7 9.9-25.1 9.9-32 0-14.6-21.5-26.9-46.9-26.9z"/></g><g><path d="m295.8 457.5c-3.9 0-7-3.1-7-7v-45.2c0-3.9 3.1-7 7-7s7 3.1 7 7v45.2c0 3.9-3.2 7-7 7z"/></g><g><path d="m329.1 457.5c-3.9 0-7-3.1-7-7v-45.2c0-3.9 3.1-7 7-7s7 3.1 7 7v45.2c0 3.9-3.1 7-7 7z"/></g><g><path d="m362.5 457.5c-3.9 0-7-3.1-7-7v-45.2c0-3.9 3.1-7 7-7s7 3.1 7 7v45.2c0 3.9-3.1 7-7 7z"/></g><g><path d="m395.9 457.5c-3.9 0-7-3.1-7-7v-45.2c0-3.9 3.1-7 7-7s7 3.1 7 7v45.2c0 3.9-3.1 7-7 7z"/></g><g><path d="m429.3 457.5c-3.9 0-7-3.1-7-7v-45.2c0-3.9 3.1-7 7-7s7 3.1 7 7v45.2c0 3.9-3.2 7-7 7z"/></g></g></svg>