<svg viewBox="0 0 24 24" xmlns="http://www.w3.org/2000/svg"><g id="Layer_2" data-name="Layer 2"><path d="m19 1.25h-14a1.75213 1.75213 0 0 0 -1.75 1.75v17.1958a1.75019 1.75019 0 0 0 2.67773 1.48389l5.93946-3.7124a.25264.25264 0 0 1 .26562-.00049l5.93946 3.71338a1.7506 1.7506 0 0 0 2.67773-1.48438v-17.1958a1.75213 1.75213 0 0 0 -1.75-1.75z" fill="#ffcb27"/><path d="m11.57067 5.2831-1.02057 2.38133a.46708.46708 0 0 1 -.42933.28309h-2.0266a.4671.4671 0 0 0 -.29179.83184l1.76916 1.41533a.4671.4671 0 0 1 .1556.499l-.81089 2.703a.46709.46709 0 0 0 .72765.50789l2.07584-1.55688a.4671.4671 0 0 1 .56052 0l2.07584 1.55688a.46709.46709 0 0 0 .72765-.50789l-.81089-2.703a.4671.4671 0 0 1 .1556-.499l1.76916-1.41533a.4671.4671 0 0 0 -.29179-.83184h-2.0266a.46708.46708 0 0 1 -.42933-.28309l-1.02057-2.38133a.46709.46709 0 0 0 -.85866 0z" fill="#fff"/></g></svg>