<svg fill="none" viewBox="0 0 24 24" xmlns="http://www.w3.org/2000/svg"><rect fill="#ffe8db" height="22" rx="6" width="22" x="1" y="1"/><path d="m19.333 11.988c0-1.4-.792-2.611-1.947-3.23l.01-.03s.448-1.47-.567-2.486c-.496-.495-1.243-.724-1.988-.608-.38-.295-.49-.97-1.454-.97-.682 0-1.387.51-1.387 1.365v11.917c0 .59.352 1.071.88 1.272a1.37 1.37 0 0 0 1.472-.307l.547-.546c.712.093 1.438-.14 1.93-.632a2.294 2.294 0 0 0 .513-2.456l.043-.021s1.948-.984 1.948-3.268z" fill="#ff9e68"/><path d="m4.667 11.988c0-1.4.792-2.611 1.947-3.23l-.01-.03s-.448-1.47.567-2.486c.496-.495 1.243-.724 1.988-.608.38-.295.49-.97 1.454-.97.682 0 1.387.51 1.387 1.365v11.917a1.34 1.34 0 0 1 -.88 1.272 1.37 1.37 0 0 1 -1.472-.307l-.547-.546c-.712.093-1.437-.14-1.93-.632a2.294 2.294 0 0 1 -.513-2.456l-.043-.021s-1.948-.984-1.948-3.268z" fill="#ff9e68"/><g fill="#dd3814"><path d="m6.459 15.664a4.135 4.135 0 0 1 -2.25-3.675 4.13 4.13 0 0 1 4.124-4.125.458.458 0 1 1 0 .917 3.213 3.213 0 0 0 -3.208 3.208c0 1.146.627 2.282 1.75 2.858a.458.458 0 1 1 -.416.817z"/><path d="m6.242 8.893a2.745 2.745 0 0 1 .605-2.975c1.039-1.038 2.85-1.038 3.889 0a.458.458 0 1 1 -.648.648c-.693-.693-1.9-.693-2.593 0a1.827 1.827 0 0 0 -.402 1.983.459.459 0 0 1 -.85.344zm.606 9.164a2.748 2.748 0 0 1 0-3.889.458.458 0 1 1 .648.648 1.832 1.832 0 0 0 0 2.593c.693.693 1.9.693 2.592 0a.458.458 0 0 1 .649.648 2.748 2.748 0 0 1 -3.89 0z"/><path d="m11.998 6.489a.458.458 0 0 1 -.458-.459.896.896 0 0 0 -.888-.904.895.895 0 0 0 -.906.64.46.46 0 0 1 -.877-.269c.232-.76.903-1.274 1.754-1.274 1.084 0 1.834.836 1.834 1.807a.458.458 0 0 1 -.459.459zm-1.375 13.291a1.838 1.838 0 0 1 -1.754-1.299.46.46 0 0 1 .877-.268c.116.384.455.64.877.64a.897.897 0 0 0 .917-.905.458.458 0 1 1 .917 0c0 1.01-.822 1.833-1.834 1.833zm6.301-4.316a.458.458 0 0 1 .2-.617 3.217 3.217 0 0 0 1.751-2.858 3.213 3.213 0 0 0 -3.208-3.208.458.458 0 1 1 0-.917 4.13 4.13 0 0 1 4.125 4.125c0 1.486-.82 2.943-2.25 3.675a.459.459 0 0 1 -.618-.2z"/><path d="m17.163 9.146a.459.459 0 0 1 -.254-.597 1.827 1.827 0 0 0 -.403-1.983c-.693-.693-1.9-.693-2.592 0a.458.458 0 1 1 -.648-.648c1.038-1.038 2.85-1.038 3.888 0a2.745 2.745 0 0 1 .606 2.975.46.46 0 0 1 -.598.253zm-2.413 5.134a.458.458 0 0 1 -.458-.457 2.29 2.29 0 0 1 2.291-2.292.458.458 0 1 1 0 .917c-.757 0-1.375.617-1.375 1.375a.458.458 0 0 1 -.458.458zm-5.5 0a.458.458 0 0 1 -.458-.457c0-.758-.617-1.375-1.375-1.375a.458.458 0 1 1 0-.917 2.29 2.29 0 0 1 2.291 2.292.458.458 0 0 1 -.458.458zm4.016 3.777a.458.458 0 1 1 .648-.648c.693.693 1.9.693 2.592 0a1.831 1.831 0 0 0 0-2.593.458.458 0 1 1 .648-.648 2.748 2.748 0 0 1 0 3.889 2.748 2.748 0 0 1 -3.888 0z"/><path d="m12 6.489a.458.458 0 0 1 -.458-.459c0-.966.744-1.807 1.833-1.807.85 0 1.523.514 1.755 1.274a.46.46 0 0 1 -.878.268.895.895 0 0 0 -.907-.639.896.896 0 0 0 -.887.904.458.458 0 0 1 -.458.459zm1.375 13.291a1.836 1.836 0 0 1 -1.833-1.832.458.458 0 1 1 .916 0c0 .475.363.892.888.905.384.01.775-.206.906-.64a.46.46 0 0 1 .877.269 1.838 1.838 0 0 1 -1.754 1.299z"/><path d="m12 18.864a.458.458 0 0 1 -.458-.458v-12.833a.458.458 0 1 1 .916 0v12.833a.458.458 0 0 1 -.458.458z"/><path d="m12 12.448a.458.458 0 0 1 -.458-.459c0-.758-.617-1.375-1.375-1.375a.458.458 0 1 1 0-.916 2.29 2.29 0 0 1 2.291 2.291.458.458 0 0 1 -.458.459z"/><path d="m12 12.448a.458.458 0 0 1 -.458-.459 2.29 2.29 0 0 1 2.291-2.291.458.458 0 1 1 0 .916c-.758 0-1.375.617-1.375 1.375a.458.458 0 0 1 -.458.459zm0 5.5a.458.458 0 0 1 -.458-.459 2.29 2.29 0 0 1 2.291-2.291.458.458 0 1 1 0 .916c-.758 0-1.375.617-1.375 1.375a.458.458 0 0 1 -.458.459z"/><path d="m12 17.948a.458.458 0 0 1 -.458-.459c0-.758-.617-1.375-1.375-1.375a.458.458 0 1 1 0-.916 2.29 2.29 0 0 1 2.291 2.291.458.458 0 0 1 -.458.459z"/></g></svg>