<svg id="Icons" height="512" viewBox="0 0 60 60" width="512" xmlns="http://www.w3.org/2000/svg"><rect fill="#e69b45" height="55" rx="3" width="48" x="6" y="4"/><rect fill="#fff" height="47" rx="1" width="40" x="10" y="8"/><path d="m39 4v4a1 1 0 0 1 -1 1h-16a1 1 0 0 1 -1-1v-4a1 1 0 0 1 1-1h3.534a2.106 2.106 0 0 0 1.536-.721 4 4 0 0 1 5.86 0 2.106 2.106 0 0 0 1.536.721h3.534a1 1 0 0 1 1 1z" fill="#b0ccdd"/><path d="m20 20a1 1 0 0 1 -.707-.293l-1-1a1 1 0 0 1 1.414-1.414l.293.293 5.293-5.293a1 1 0 0 1 1.414 1.414l-6 6a1 1 0 0 1 -.707.293z" fill="#3778c6"/><path d="m23 24h-6a3 3 0 0 1 -3-3v-6a3 3 0 0 1 3-3h4a1 1 0 0 1 0 2h-4a1 1 0 0 0 -1 1v6a1 1 0 0 0 1 1h6a1 1 0 0 0 1-1v-2a1 1 0 0 1 2 0v2a3 3 0 0 1 -3 3z" fill="#b0ccdd"/><path d="m20 34a1 1 0 0 1 -.707-.293l-1-1a1 1 0 0 1 1.414-1.414l.293.293 5.293-5.293a1 1 0 0 1 1.414 1.414l-6 6a1 1 0 0 1 -.707.293z" fill="#3778c6"/><path d="m23 38h-6a3 3 0 0 1 -3-3v-6a3 3 0 0 1 3-3h4a1 1 0 0 1 0 2h-4a1 1 0 0 0 -1 1v6a1 1 0 0 0 1 1h6a1 1 0 0 0 1-1v-2a1 1 0 0 1 2 0v2a3 3 0 0 1 -3 3z" fill="#b0ccdd"/><path d="m20 48a1 1 0 0 1 -.707-.293l-1-1a1 1 0 0 1 1.414-1.414l.293.293 5.293-5.293a1 1 0 0 1 1.414 1.414l-6 6a1 1 0 0 1 -.707.293z" fill="#3778c6"/><g fill="#b0ccdd"><path d="m23 52h-6a3 3 0 0 1 -3-3v-6a3 3 0 0 1 3-3h4a1 1 0 0 1 0 2h-4a1 1 0 0 0 -1 1v6a1 1 0 0 0 1 1h6a1 1 0 0 0 1-1v-2a1 1 0 0 1 2 0v2a3 3 0 0 1 -3 3z"/><path d="m34 17h-3a1 1 0 0 1 0-2h3a1 1 0 0 1 0 2z"/><path d="m45 21h-14a1 1 0 0 1 0-2h14a1 1 0 0 1 0 2z"/><path d="m34 31h-3a1 1 0 0 1 0-2h3a1 1 0 0 1 0 2z"/><path d="m45 35h-14a1 1 0 0 1 0-2h14a1 1 0 0 1 0 2z"/><path d="m34 45h-3a1 1 0 0 1 0-2h3a1 1 0 0 1 0 2z"/><path d="m45 49h-14a1 1 0 0 1 0-2h14a1 1 0 0 1 0 2z"/></g><path d="m30.687 6h-1.687a1 1 0 0 1 0-2s1.842 0 1.982 0a1.016 1.016 0 0 1 1.018 1c0 .664-.441 1-1.313 1z" fill="#9ebbce"/></svg>