<svg id="Layer_1" enable-background="new 0 0 124.009 124.009" height="512" viewBox="0 0 124.009 124.009" width="512" xmlns="http://www.w3.org/2000/svg"><path d="m109.779 52.084-46.904-35.101c-.71-.531-1.687-.531-2.396 0l-46.904 35.101c-.69.517-.972 1.417-.699 2.234l18.545 55.556c.272.816 1.037 1.367 1.897 1.367h56.717c.86 0 1.625-.551 1.897-1.367l18.545-55.556c.274-.817-.007-1.718-.698-2.234zm-73.902 55.157 19.785-30.519c.601-.927.336-2.165-.59-2.766-.926-.604-2.165-.337-2.766.59l-18.786 28.978-16.392-49.102 2.577-1.929 28.815 13.267c2.343 1.081 4.013-2.556 1.673-3.633l-26.846-12.36 36.33-27.188v25.442c0 1.104.896 2 2 2s2-.896 2-2v-25.442l40.082 29.996-27.285 9.479c-2.425.845-1.136 4.629 1.313 3.779l27.862-9.679-15.428 46.216-19.204-27.87c-.626-.91-1.87-1.142-2.781-.512-.909.626-1.139 1.872-.512 2.781l20.912 30.349-.041.123z" fill="#9e9e9e"/><circle cx="14.773" cy="50.206" fill="#ffcc64" r="14.768"/><path d="m29.541 50.206c0-3.238-1.054-6.222-2.821-8.656l-.151.111c-1.939 1.424-2.7 3.888-2.139 6.237.179.749.27 1.522.27 2.309 0 5.458-4.454 9.898-9.928 9.898-.006 0-.013 0-.019 0-1.077-.002-2.017.727-2.216 1.792l-.526 2.812c.895.17 1.816.267 2.761.267 8.157-.001 14.769-6.613 14.769-14.77z" fill="#f9b43a"/><path d="m4.846 50.206c0-4.276 2.871-8.161 6.946-9.442.993-.312 1.962-.379 2.989-.456.984-.074 1.709-.592 1.941-1.579.235-1.003.34-2.053.508-3.07-.801-.134-1.618-.221-2.458-.221-8.156 0-14.768 6.612-14.768 14.768 0 3.425 1.177 6.569 3.133 9.075 1.169-.941 1.944-2.276 2.186-3.757.297-1.817-.477-3.509-.477-5.318z" fill="#ffe6c2"/><path d="m25.306 60.549c-1.075-4.88-5.466-8.473-10.533-8.473-5.068 0-9.46 3.593-10.533 8.473.749.763 1.582 1.441 2.482 2.028.206-.221.35-.502.396-.823.543-3.776 3.834-6.622 7.656-6.622 3.821 0 7.113 2.848 7.656 6.623.046.322.205.592.411.812.893-.584 1.72-1.259 2.465-2.018z" fill="#fff"/><circle cx="14.773" cy="47.926" fill="#44ac3d" r="5.974"/><path d="m20.748 47.926c0-1.31-.426-2.517-1.141-3.502-1.183.824-.925 1.963-.83 3.186.091 1.162-.341 2.324-1.165 3.146-.84.837-1.739.985-2.846 1.174-.983.168-.957 1.049-1.109 1.862.362.069.735.108 1.117.108 3.299 0 5.974-2.674 5.974-5.974z" fill="#237f19"/><path d="m10.757 47.926c0-2.208 1.802-4.004 4.016-4.004h.007c.384.001.719-.258.782-.639l.206-1.242c-.324-.054-.655-.089-.994-.089-3.3 0-5.975 2.675-5.975 5.974 0 1.386.476 2.658 1.268 3.671.787-.622 1.087-1.657.827-2.629-.091-.336-.137-.685-.137-1.042z" fill="#64c35b"/><circle cx="61.677" cy="14.768" fill="#ffcc64" r="14.768"/><path d="m76.446 14.768c0-3.238-1.054-6.222-2.821-8.656-1.166.842-1.989 2.027-2.313 3.435-.388 1.683.232 3.213.287 4.885.094 2.817-1.047 5.578-3.094 7.515-1.026.97-2.257 1.719-3.592 2.179-1.258.434-2.52.311-3.779.598-1.947.444-1.922 2.967-2.217 4.545.895.17 1.816.267 2.761.267 8.156.001 14.768-6.611 14.768-14.768z" fill="#f9b43a"/><path d="m51.75 14.769c0-5.458 4.454-9.898 9.927-9.898h.017c.949.002 1.777-.638 1.933-1.579l.508-3.07c-.801-.136-1.619-.222-2.458-.222-8.156 0-14.768 6.612-14.768 14.768 0 3.425 1.177 6.569 3.133 9.075 1.945-1.538 2.688-4.096 2.044-6.499-.223-.83-.336-1.693-.336-2.575z" fill="#ffe6c2"/><path d="m72.21 25.112c-1.075-4.88-5.466-8.473-10.533-8.473-5.068 0-9.46 3.593-10.533 8.473.749.763 1.582 1.441 2.482 2.028.206-.221.35-.502.396-.823.543-3.776 3.834-6.622 7.656-6.622 3.821 0 7.113 2.848 7.656 6.623.046.322.205.592.411.812.893-.585 1.72-1.26 2.465-2.018z" fill="#fff"/><circle cx="61.677" cy="12.488" fill="#44ac3d" r="5.974"/><path d="m67.652 12.488c0-1.31-.426-2.517-1.141-3.502-1.183.824-.925 1.963-.83 3.186.091 1.162-.341 2.324-1.165 3.146-.84.837-1.739.985-2.846 1.174-.983.168-.957 1.049-1.109 1.862.362.069.735.108 1.117.108 3.299 0 5.974-2.674 5.974-5.974z" fill="#237f19"/><path d="m57.661 12.488c0-1.781 1.234-3.389 2.95-3.861.651-.179 1.492.045 1.821-.676.177-.388.171-.929.24-1.348-.324-.054-.655-.089-.994-.089-3.3 0-5.975 2.675-5.975 5.974 0 1.386.476 2.658 1.268 3.671 1.308-1.035.69-2.295.69-3.671z" fill="#64c35b"/><circle cx="109.236" cy="53.262" fill="#ffcc64" r="14.768"/><path d="m124.005 53.262c0-3.238-1.054-6.222-2.821-8.656-1.166.842-1.989 2.027-2.313 3.435-.388 1.683.232 3.213.287 4.885.094 2.817-1.047 5.578-3.094 7.515-1.026.97-2.257 1.719-3.592 2.179-1.258.434-2.52.311-3.779.598-1.947.444-1.922 2.967-2.217 4.545.895.17 1.816.267 2.761.267 8.156.001 14.768-6.611 14.768-14.768z" fill="#f9b43a"/><path d="m99.309 53.263c0-5.458 4.454-9.898 9.927-9.898h.017c.949.002 1.777-.638 1.933-1.579l.508-3.07c-.801-.134-1.618-.221-2.458-.221-8.156 0-14.768 6.612-14.768 14.768 0 3.425 1.177 6.569 3.133 9.075 1.945-1.538 2.688-4.096 2.044-6.499-.223-.831-.336-1.694-.336-2.576z" fill="#ffe6c2"/><path d="m119.77 63.606c-1.075-4.88-5.466-8.473-10.533-8.473-5.068 0-9.46 3.593-10.533 8.473.749.763 1.582 1.441 2.482 2.028.206-.221.35-.502.396-.823.543-3.776 3.834-6.622 7.656-6.622 3.821 0 7.113 2.848 7.656 6.623.046.322.205.592.411.812.892-.585 1.72-1.26 2.465-2.018z" fill="#fff"/><circle cx="109.236" cy="50.982" fill="#44ac3d" r="5.974"/><path d="m115.211 50.982c0-1.31-.426-2.517-1.141-3.502-1.183.824-.925 1.963-.83 3.186.091 1.162-.341 2.324-1.165 3.146-.84.837-1.739.985-2.846 1.174-.983.168-.957 1.049-1.109 1.862.362.069.735.108 1.117.108 3.299 0 5.974-2.674 5.974-5.974z" fill="#237f19"/><path d="m105.22 50.982c0-1.781 1.234-3.389 2.95-3.861.651-.179 1.492.045 1.821-.676.177-.388.171-.929.24-1.348-.324-.054-.655-.089-.994-.089-3.3 0-5.975 2.675-5.975 5.974 0 1.386.476 2.658 1.268 3.671 1.308-1.035.69-2.295.69-3.671z" fill="#64c35b"/><circle cx="33.353" cy="109.241" fill="#ffcc64" r="14.768"/><path d="m48.122 109.241c0-3.238-1.054-6.222-2.821-8.656l-.151.111c-1.939 1.424-2.7 3.888-2.139 6.237.179.749.27 1.522.27 2.309 0 5.458-4.454 9.898-9.928 9.898-.006 0-.013 0-.019 0-1.077-.002-2.017.727-2.216 1.792l-.526 2.812c.895.17 1.816.267 2.761.267 8.157-.002 14.769-6.614 14.769-14.77z" fill="#f9b43a"/><path d="m23.426 109.241c0-5.458 4.454-9.898 9.927-9.898h.017c.949.002 1.777-.638 1.933-1.579l.508-3.07c-.801-.134-1.618-.221-2.458-.221-8.156 0-14.768 6.612-14.768 14.768 0 3.425 1.177 6.569 3.133 9.075 1.945-1.538 2.688-4.096 2.044-6.499-.223-.83-.336-1.693-.336-2.576z" fill="#ffe6c2"/><path d="m43.887 119.584c-1.075-4.88-5.466-8.473-10.533-8.473-5.068 0-9.46 3.593-10.533 8.473.749.763 1.582 1.441 2.482 2.028.206-.221.35-.502.396-.823.543-3.776 3.834-6.622 7.656-6.622 3.821 0 7.113 2.848 7.656 6.623.046.322.205.592.411.812.892-.584 1.72-1.259 2.465-2.018z" fill="#fff"/><circle cx="33.353" cy="106.961" fill="#44ac3d" r="5.974"/><path d="m39.328 106.961c0-1.31-.426-2.517-1.141-3.502-1.183.824-.925 1.963-.83 3.186.091 1.162-.341 2.324-1.165 3.146-.84.837-1.739.985-2.846 1.174-.983.168-.957 1.049-1.109 1.862.362.069.735.108 1.117.108 3.299 0 5.974-2.675 5.974-5.974z" fill="#237f19"/><path d="m29.337 106.961c0-1.781 1.234-3.389 2.95-3.861.651-.179 1.492.045 1.821-.676.177-.388.171-.929.24-1.348-.324-.054-.655-.089-.994-.089-3.3 0-5.975 2.675-5.975 5.974 0 1.386.476 2.658 1.268 3.671 1.308-1.035.69-2.295.69-3.671z" fill="#64c35b"/><circle cx="91.245" cy="109.241" fill="#ffcc64" r="14.768"/><path d="m106.014 109.241c0-3.238-1.054-6.222-2.821-8.656-1.166.842-1.989 2.027-2.313 3.435-.388 1.683.232 3.213.287 4.885.094 2.817-1.047 5.578-3.094 7.515-1.026.97-2.257 1.719-3.592 2.179-1.258.434-2.52.311-3.779.598-1.947.444-1.922 2.967-2.217 4.545.895.17 1.816.267 2.761.267 8.156 0 14.768-6.612 14.768-14.768z" fill="#f9b43a"/><path d="m81.318 109.241c0-5.458 4.454-9.898 9.927-9.898h.017c.949.002 1.777-.638 1.933-1.579l.508-3.07c-.801-.134-1.618-.221-2.458-.221-8.156 0-14.768 6.612-14.768 14.768 0 3.425 1.177 6.569 3.133 9.075 1.945-1.538 2.688-4.096 2.044-6.499-.223-.83-.336-1.693-.336-2.576z" fill="#ffe6c2"/><path d="m101.779 119.584c-1.075-4.88-5.466-8.473-10.533-8.473-5.068 0-9.46 3.593-10.533 8.473.749.763 1.582 1.441 2.482 2.028.206-.221.35-.502.396-.823.543-3.776 3.834-6.622 7.656-6.622 3.821 0 7.113 2.848 7.656 6.623.046.322.205.592.411.812.892-.584 1.72-1.259 2.465-2.018z" fill="#fff"/><circle cx="91.245" cy="106.961" fill="#44ac3d" r="5.974"/><path d="m97.22 106.961c0-1.31-.426-2.517-1.141-3.502-1.183.824-.925 1.963-.83 3.186.091 1.162-.341 2.324-1.165 3.146-.84.837-1.739.985-2.846 1.174-.983.168-.957 1.049-1.109 1.862.362.069.735.108 1.117.108 3.299 0 5.974-2.675 5.974-5.974z" fill="#237f19"/><path d="m87.229 106.961c0-1.781 1.234-3.389 2.95-3.861.651-.179 1.492.045 1.821-.676.177-.388.171-.929.24-1.348-.324-.054-.655-.089-.994-.089-3.3 0-5.975 2.675-5.975 5.974 0 1.386.476 2.658 1.268 3.671 1.308-1.035.69-2.295.69-3.671z" fill="#64c35b"/><circle cx="61.677" cy="63.943" fill="#0087ff" r="20.37"/><path d="m82.047 63.943c0-4.466-1.454-8.582-3.89-11.939l-.208.153c-2.674 1.965-3.725 5.363-2.951 8.602.247 1.033.373 2.1.373 3.185 0 7.528-6.143 13.652-13.694 13.652-.009 0-.017 0-.026 0-1.486-.003-2.782 1.002-3.056 2.471l-.725 3.878c1.235.234 2.505.368 3.808.368 11.249 0 20.369-9.12 20.369-20.37z" fill="#005deb"/><path d="m47.984 63.943c0-7.528 6.143-13.653 13.693-13.653h.023c1.309.002 2.451-.88 2.666-2.178l.701-4.235c-1.105-.185-2.232-.305-3.39-.305-11.25 0-20.37 9.12-20.37 20.37 0 4.724 1.623 9.061 4.322 12.517 2.683-2.121 3.708-5.65 2.819-8.965-.307-1.143-.464-2.333-.464-3.551z" fill="#26a7ff"/><path d="m64.366 48.112c-.215 1.299-1.357 2.181-2.666 2.178-.008 0-.015 0-.023 0-.774 0-1.528.08-2.268.203 1.556 8.191 7.6 14.764 15.462 17.05.316-1.149.499-2.353.499-3.601 0-1.085-.126-2.152-.373-3.185-.774-3.239.277-6.637 2.951-8.602l.208-.153c-5.319-7.397-13.627-8.216-13.09-8.126z" fill="#80c3ff" opacity=".5"/><path d="m81.952 62.057c-.336-3.614-1.671-7.113-3.795-10.053-.069.051-4.319 2.649-3.159 8.755.435 2.292.497 4.519-.127 6.786 1.153.335 6.721.655 6.816.156.116-.613.206-1.232.267-1.853.123-1.263.114-2.529-.002-3.791-.02-.222.057.622 0 0-.336-3.615.057.622 0 0z" fill="#80aef5" opacity=".5"/><path d="m61.677 50.291c3.145 0 3.021-4.187 3.39-6.413-2.018-.339-4.033-.376-6.061-.11v2.556c0 1.427.146 2.819.403 4.17.74-.124 1.494-.203 2.268-.203z" fill="#93d3ff" opacity=".5"/><g fill="#fff"><path d="m61.677 73.686c-.829 0-1.5-.672-1.5-1.5v-13.088c0-.828.671-1.5 1.5-1.5s1.5.672 1.5 1.5v13.088c0 .828-.671 1.5-1.5 1.5z"/><path d="m71.43 73.686c-.828 0-1.5-.672-1.5-1.5v-16.547c0-.828.672-1.5 1.5-1.5s1.5.672 1.5 1.5v16.547c0 .828-.671 1.5-1.5 1.5z"/><path d="m51.924 73.686c-.829 0-1.5-.672-1.5-1.5v-9.29c0-.828.671-1.5 1.5-1.5s1.5.672 1.5 1.5v9.29c0 .828-.672 1.5-1.5 1.5z"/></g></svg>