<svg id="Layer_1" enable-background="new 0 0 468.045 468.045" height="512" viewBox="0 0 468.045 468.045" width="512" xmlns="http://www.w3.org/2000/svg"><g><path d="m301.992 309.742c-1.33 6.11-2.3 10.95-3.57 17.38 12.14 1.58 24.86 4.1 38.75 7.47 24.04 25.15-20.95 73.76-55.02 75.59-50.208 2.658-131.961-20.403-122.77-57.18 19.29-8.32 36.24-14.61 51.95-19.1 5.69-37.44-.12-73.54-2.09-85.51-.166-1.037-6.007-7.426-6.47-7.9-7.39-8.09-18.47-19.4-18.47-19.66-112.18-148.65 104.91-273.55 206.13-120.12 51.517 78.069 38.533 208.905-88.44 209.03z" fill="#a7a4fd"/><path d="m301.992 309.742c-1.33 6.11-2.3 10.95-3.57 17.38 12.14 1.58 24.86 4.1 38.75 7.47 0 0-48.87 33.55-87.72 1.151 0 0-8.19 33.359 13.41 58.999 8.181 9.711 12.06 11.021 6.36 15.6-51.23-1.27-118.14-24.13-109.84-57.34 19.29-8.32 36.24-14.61 51.95-19.1 5.69-37.44-.12-73.54-2.09-85.51-.12-.75-2.85-3.94-6.46-7.89l89.12 66.97 98.02-31.35c-18.9 20.44-47.67 33.58-87.93 33.62z" fill="#9f9dfd"/><g><path d="m388.832 307.473c-12.42 11.23-30.91 19.93-58.33 22.37-12.44-16.9-10.52-57.22 5.88-68.85 20.38-1.35 39.17-5.49 54.1-11.87 9.18 10.938 15.176 29.077-1.65 58.35z" fill="#d7d7fd"/><g fill="#c7c7fa"><path d="m330.502 329.842c-96.4 8.57-128.94-67.85-128.94-67.85l25.36-22.5c33.3 17.68 73.82 23.85 109.46 21.5.3.731 12.26 31.22-5.88 68.85z"/><path d="m388.832 307.473c8.58-26.65 1.65-58.35 1.65-58.35 9.07-3.87 16.72-8.57 22.43-13.97 0-.001 7.17 44.099-24.08 72.32z"/></g></g><path d="m299.774 205.563-11.904-5.238s-6.845-48.153-19.404-58.857c-3.452-8.998 5.922-20.674 9.166-21.854 21.576 14.569 32.766 81.217 22.142 85.949z" fill="#7878fd"/><path d="m422.199 171.984-122.426 33.58s-5.248-49.938-21.368-67.795v-.01c-1.716-23.382 47.201-35.406 68.271-41.12 53.143-14.404 53.936 10.049 60.246 9.236 11.2 34.066 15.277 66.109 15.277 66.109z" fill="#7e7dfd"/><path d="m278.402 137.763c0 .209-20.313 6.16-130.17 53.53-15.91-34.13-18.61-72.27-6.94-105.34 60.271-46.131 138.034 21.946 137.11 51.81z" fill="#e9e9fd"/><path d="m406.922 105.872c-48.28 7.02-80.74 14.4-128.52 31.89-5.58-6.29-52.94-56.57-137.11-51.81 7.14-20.27 19.68-38.63 37.87-52.98 54.86-28.487 159 2.17 185.61 2.11 21.627 18.644 33.184 43.492 42.15 70.79z" fill="#d7d7fd"/><path d="m364.772 35.082c-12.93 18-78.97 19.77-78.97 19.77-47.55-32.85-106.64-21.88-106.64-21.88 21.82-17.23 51.78-28.69 90.32-30.78 33.53-1.82 71.54 12.33 95.29 32.89z" fill="#e9e9fd"/><path d="m422.862 466.042h-377.68c33.65-62.11 69.27-91.12 114.2-113.04 30.32 26.52 69.46 41.96 103.45 41.75.01-.01.01 0 .01 0 36.41-.23 66.91-18.4 74.33-60.16 50.61 13.921 71.46 75.81 85.69 131.45z" fill="#e9e9fd"/><path d="m262.832 394.752c-2.05.37-122.59 22.89-150.2 71.29h-67.45c33.65-62.11 69.27-91.12 114.2-113.04 30.32 26.52 69.46 41.96 103.45 41.75z" fill="#d7d7fd"/><path d="m143.403 235.616c.009.019.028.038.038.066 14.009 23.978 42.195 35.944 68.066 27.151 29.825-10.139 45.274-43.993 34.532-75.616-10.751-31.632-43.636-49.058-73.451-38.919-19.704 6.694-33.129 23.743-36.876 43.664" fill="#d7d7fd"/><g fill="#e9e9fd"><ellipse cx="179.16" cy="208.705" rx="44.335" ry="50.083" transform="matrix(.939 -.343 .343 .939 -60.724 74.125)"/><ellipse cx="309.395" cy="148.825" rx="10.33" ry="11.708" transform="matrix(.996 -.088 .088 .996 -11.918 27.863)"/></g></g><g fill="#4200dd"><path d="m424.798 465.549c-11.187-43.756-27.34-96.011-62.356-121.037-10.235-7.315-19.22-10.578-29.21-12.917 23.896-2.477 43.019-10.053 56.939-22.641 30.147-27.216 25.397-69.133 24.773-73.71 5.211-18.591 7.279-37.338 4.492-60.432 2.324-.637 5.037-.811 4.75-3.085-5.078-39.896-22.934-107.161-53.878-134.288-26.121-25.337-63.855-39.265-100.934-37.246-65.953 3.577-99.569 33.319-116.155 57.641-22.322 32.731-27.331 75.197-13.78 116.583-4.218 8.285-6.589 17.809-6.753 28.094-.661 41.364 33.328 70.386 69.182 64.592 1.914 3.571 4.939 8.65 9.281 14.466 1.185 18.162.649 35.233-1.605 50.767-14.955 4.347-41.826 14.067-56.715 21.705-48.348 24.804-80.336 57.387-109.404 111.053-.525.971-.165 2.185.807 2.711.969.525 2.185.165 2.711-.807 29.523-54.506 62.071-86.933 112.127-111.619 36.018 31.021 83.454 46.633 121.202 39.805 22.826-4.128 40.234-16.224 50.344-34.978.523-.973.16-2.186-.812-2.71-.973-.522-2.187-.16-2.71.812-9.511 17.646-25.948 29.036-47.534 32.94-36.103 6.522-81.474-8.229-116.425-37.676 18.336-7.805 34.312-13.622 48.748-17.748.752-.215 1.31-.849 1.428-1.622 2.206-14.517 2.919-30.361 2.146-47.169 24.611 29.465 60.279 46.199 103.005 45.451 16.566 3.288 27.979 5.532 41.583 15.144 32.109 22.685 48.352 69.915 60.88 118.914.231.904 1.044 1.505 1.937 1.505 1.305-.003 2.259-1.236 1.936-2.498zm-35.821-213.657c1.347 7.675 4.883 32.82-1.892 54.44-13.062 11.631-30.949 18.731-53.31 21.192 13.826-31.173 7.865-56.746 5.356-64.732 10.091-.825 30.884-3.361 49.846-10.9zm3.745 48.799c4.805-21.738 1.203-44.25.04-50.394 6.736-2.969 13.128-6.611 18.578-11.097.8 10.206 1.048 39.347-18.618 61.491zm18.397-66.618c-29.799 27.57-110.091 35.414-170.635 9.631 11.832-15.76 14.596-36.09 7.448-57.133-3.688-10.851-9.964-20.325-18.181-27.653 10.737-4.391 21.489-8.838 38.219-15.169 11.344 11.466 17.856 56.39 17.922 56.854.098.684.542 1.27 1.175 1.548 13.754 6.056 12.219 5.622 13.735 5.182 2.744-.796 20.09-5.517 114.736-31.45 2.532 21.65.729 40.171-4.419 58.19zm-109.62-31.061c-1.525-12.844-5.148-31.979-10.84-47.078-.389-1.034-1.542-1.558-2.576-1.166-1.034.389-1.556 1.543-1.166 2.576 5.4 14.329 8.895 32.401 10.465 44.978l-7.693-3.388c-1.065-7.023-7.065-43.737-17.716-56.697 46.697-17.568 82.205-26.633 133.568-34.143 9.189 28.469 13.438 55.471 14.44 62.421zm-31.909-198.825c33.43-1.82 67.38 9.708 92.344 31.047-13.807 14.836-68.928 17.349-75.546 17.597-37.48-25.59-82.289-24.48-99.925-22.802 18.963-13.178 45.67-23.811 83.127-25.842zm-126.959 83.705c48.489-2.437 84.433 13.731 106.1 27.802.336.218.714.322 1.087.322 1.979 0 2.763-2.593 1.091-3.678-21.912-14.228-58.097-30.55-106.796-28.517 7.22-18.777 19.123-35.589 35.864-48.966 5.515-.897 59.832-8.739 103.793 21.032 1.537 1.041 1.246.999 3.18.928 8.718-.322 63.021-2.956 77.98-18.941 19.78 18.067 30.174 39.15 39.341 66.36-71.246 10.463-110.301 24.103-178.027 51.8-28.673-22.067-66.758-13.703-84.108 13.638-8.466-28.116-8.157-56.566.495-81.78zm31.831 172.703c-49.37-18.551-50.988-93.503-1.231-110.406 28.245-9.603 60.336 6.55 70.913 37.669 7.974 23.473 2.67 45.183-12.721 60.09-15.388 14.903-37.747 19.863-56.961 12.647zm31.519 5.693c12.035-2.834 23.275-9.416 31.888-19.348 28.706 12.445 63.065 18.146 97.133 16.124 2.015 6.125 9.197 32.843-5.833 64.904-46.766 3.725-84.139-12.683-109.178-41.744-5.157-5.985-10.115-12.892-14.01-19.936z"/><path d="m168.279 157.896c-1.088.193-1.812 1.232-1.618 2.319s1.235 1.82 2.319 1.618c20.404-3.632 41.882 10.269 49.945 32.348 9.429 25.816-2.098 51.955-23.271 59.688-1.037.379-1.571 1.527-1.192 2.565.375 1.023 1.508 1.575 2.565 1.192 23.386-8.541 35.792-37.065 25.656-64.818-8.863-24.269-31.747-38.953-54.404-34.912z"/><path d="m321.676 147.735c-.666-7.529-6.712-13.166-13.491-12.567-3.328.295-6.313 2.022-8.407 4.866-6.483 8.807-.699 22.488 9.838 22.488 7.184 0 12.767-6.814 12.06-14.787zm-11.426 10.759c-7.448.652-12.027-9.603-7.251-16.088 4.728-6.423 13.939-2.833 14.693 5.683.472 5.331-2.866 9.999-7.442 10.405z"/></g></svg>