<?xml version="1.0" encoding="iso-8859-1"?>
<!-- Generator: Adobe Illustrator 27.2.0, SVG Export Plug-In . SVG Version: 6.00 Build 0)  -->
<svg version="1.1" id="Capa_1" xmlns="http://www.w3.org/2000/svg" xmlns:xlink="http://www.w3.org/1999/xlink" x="0px" y="0px"
	 viewBox="0 0 510 510" style="enable-background:new 0 0 510 510;" xml:space="preserve">
<g>
	<g>
		<g>
			<g>
				<polygon style="fill:#6864F7;" points="122.13,96.723 73.151,47.744 30.325,90.571 73.127,133.372 				"/>
			</g>
			<g>
				<polygon style="fill:#6864F7;" points="327.458,96.723 376.437,47.744 419.263,90.571 376.461,133.373 				"/>
			</g>
			<g>
				<rect x="165.558" y="10" style="fill:#6864F7;" width="118.471" height="68.909"/>
			</g>
			<g>
				<g>
					<circle style="fill:#BC9AF4;" cx="224.794" cy="285.315" r="214.685"/>
				</g>
				<g>
					<path style="fill:#6864F7;" d="M356.7,189.837c-28.773,0-55.453,15.555-69.627,40.594L173.954,430.247
						c-10.896,19.247-13.297,41.298-7.253,61.762c18.484,5.202,37.968,7.992,58.092,7.992c118.378,0,214.685-96.307,214.685-214.685
						c0-12.766-1.126-25.274-3.273-37.434l-9.879-17.45C412.153,205.392,385.473,189.837,356.7,189.837z"/>
				</g>
				<g>
					<path style="fill:#FFFFFF;" d="M227.157,406.32l-53.202,23.927c-59.482-21.241-102.892-78.243-102.892-144.932
						c0-84.768,68.963-153.731,153.732-153.731c48.721,0,92.814,23.536,121,59.007l-11.178,76.285L227.157,406.32z"/>
				</g>
				<g>
					<path style="fill:#D2DCFD;" d="M173.886,430.372c15.941,5.611,33.072,8.674,50.908,8.674
						c84.768,0,153.732-68.963,153.732-153.732c0-35.703-12.235-68.601-32.731-94.725c-24.481,3.381-46.358,18.002-58.721,39.841
						L173.954,430.247C173.931,430.288,173.909,430.33,173.886,430.372z"/>
				</g>
				<g>
					<circle style="fill:#6864F7;" cx="224.794" cy="285.315" r="30.477"/>
				</g>
			</g>
		</g>
		<g>
			<path style="fill:#FDCB50;" d="M217.466,454.879l113.118-199.816c11.493-20.301,40.739-20.301,52.231,0l113.118,199.816
				c11.326,20.006-3.127,44.794-26.116,44.794H243.582C220.593,499.673,206.141,474.884,217.466,454.879z"/>
		</g>
	</g>
	<g>
		<g>
			<g>
				<g>
					<g>
						<path style="fill:#052A75;" d="M504.641,449.95l-61.99-109.49c4.54-17.94,6.83-36.47,6.83-55.15
							c0-56.73-20.89-110.26-59.03-151.79l35.88-35.88c3.91-3.9,3.91-10.24,0-14.14l-42.82-42.83c-3.91-3.9-10.24-3.9-14.15,0
							l-43.73,43.74c-10.19-5.13-20.74-9.46-31.6-12.96V10c0-5.52-4.48-10-10-10h-118.47c-5.53,0-10,4.48-10,10v61.44
							c-10.85,3.5-21.42,7.83-31.61,12.96l-43.73-43.73c-3.9-3.9-10.24-3.9-14.14,0L23.251,83.5c-3.9,3.9-3.9,10.24,0,14.14
							l35.89,35.89c-38.15,41.53-59.03,95.05-59.03,151.78c0,60.02,23.37,116.44,65.81,158.88c42.43,42.44,98.86,65.81,158.87,65.81
							c5.03,0,10.09-0.17,15.11-0.5c1.21,0.12,2.44,0.17,3.68,0.17h226.24c14.39,0,27.31-7.42,34.56-19.86
							C511.631,477.38,511.731,462.48,504.641,449.95z M376.441,61.89l28.68,28.68l-28.82,28.82c-10.18-9.32-21.09-17.6-32.58-24.79
							L376.441,61.89z M175.561,20h98.47v46.01c-15.98-3.56-32.47-5.38-49.24-5.38c-16.76,0-33.25,1.82-49.23,5.38V20z
							 M44.471,90.57l28.68-28.68l32.71,32.7c-11.49,7.2-22.39,15.48-32.57,24.8L44.471,90.57z M20.111,285.31
							c0-112.86,91.82-204.68,204.68-204.68c112.87,0,204.69,91.82,204.69,204.68c0,9.53-0.66,19.02-1.97,28.4l-35.99-63.57
							c-7.2-12.71-20.21-20.3-34.82-20.3c-14.61,0-27.62,7.59-34.82,20.3l-14.25,25.17h-43.62c-3.64-14.29-14.92-25.57-29.22-29.22
							V131.58c0-5.52-4.47-10-10-10c-5.52,0-10,4.48-10,10V246.1c-17.5,4.46-30.47,20.35-30.47,39.21
							c0,22.32,18.15,40.48,40.47,40.48c18.87,0,34.76-12.98,39.22-30.48h32.3l-87.55,154.64c-7.01,12.39-6.99,27.09,0.02,39.43
							C103.371,481.18,20.111,392.79,20.111,285.31z M224.791,264.84c11.29,0,20.48,9.18,20.48,20.47c0,11.3-9.19,20.48-20.48,20.48
							c-11.29,0-20.47-9.18-20.47-20.48C204.321,274.02,213.501,264.84,224.791,264.84z M487.101,479.74
							c-3.62,6.22-10.08,9.93-17.28,9.93h-226.24c-7.2,0-13.66-3.71-17.29-9.93c-3.62-6.22-3.67-13.67-0.12-19.93l113.12-199.82
							c3.6-6.36,10.1-10.15,17.41-10.15c7.3,0,13.81,3.79,17.41,10.15l113.12,199.82C490.781,466.07,490.731,473.52,487.101,479.74z
							"/>
					</g>
				</g>
			</g>
			<g>
				<g>
					<g>
						<path style="fill:#FD6050;" d="M356.701,448.36c-7.838,0.14-12.778-9.112-8.31-15.55c4.268-6.601,14.65-5.574,17.54,1.73
							C368.749,440.883,363.631,448.523,356.701,448.36z"/>
					</g>
					<g>
						<path style="fill:#FD6050;" d="M356.7,389.134c-5.523,0-10-4.477-10-10v-48.917c0-5.523,4.477-10,10-10
							c5.523,0,10,4.477,10,10v48.917C366.7,384.657,362.223,389.134,356.7,389.134z"/>
					</g>
				</g>
			</g>
		</g>
	</g>
</g>
<g>
</g>
<g>
</g>
<g>
</g>
<g>
</g>
<g>
</g>
<g>
</g>
<g>
</g>
<g>
</g>
<g>
</g>
<g>
</g>
<g>
</g>
<g>
</g>
<g>
</g>
<g>
</g>
<g>
</g>
</svg>
