<?xml version="1.0" encoding="UTF-8"?>
<svg xmlns="http://www.w3.org/2000/svg" xmlns:xlink="http://www.w3.org/1999/xlink" version="1.1" id="Capa_1" x="0px" y="0px" viewBox="0 0 512 512" style="enable-background:new 0 0 512 512;" xml:space="preserve" width="512" height="512">
<g>
	<path style="fill:#E94444;" d="M431.716,96.333l-35.935,20.404l-29.959,45.49c28.106,28.106,45.49,66.934,45.49,109.823&#10;&#9;&#9;c0,36.521-12.605,70.098-33.703,96.617c-6.316,7.939-5.629,19.363,1.544,26.537l37.798,37.798&#10;&#9;&#9;c8.298,8.298,21.927,7.704,29.472-1.284c36.247-43.184,58.076-98.877,58.076-159.668C504.5,203.428,476.686,141.303,431.716,96.333&#10;&#9;&#9;z"/>
	<path style="fill:#80D261;" d="M100.688,272.049c0-42.888,17.384-81.716,45.49-109.823l-29.959-45.49L80.284,96.333&#10;&#9;&#9;C35.314,141.303,7.5,203.428,7.5,272.049c0,60.791,21.829,116.484,58.076,159.668c7.545,8.989,21.174,9.582,29.472,1.284&#10;&#9;&#9;l37.798-37.798c7.174-7.174,7.86-18.598,1.544-26.537C113.293,342.147,100.688,308.57,100.688,272.049z"/>
	<path style="fill:#FFC344;" d="M256,116.737c42.888,0,81.716,17.384,109.822,45.49l65.894-65.894&#10;&#9;&#9;C386.746,51.364,324.621,23.549,256,23.549S125.254,51.364,80.284,96.333l65.893,65.894&#10;&#9;&#9;C174.284,134.121,213.112,116.737,256,116.737z"/>
	<path style="fill:#D83131;" d="M431.716,96.333l-15.342,8.711c30.254,41.168,48.126,92,48.126,147.005&#10;&#9;&#9;c0,45.278-12.109,87.727-33.266,124.287c-9.863,17.043-27.605,25.922-45.383,25.564l31.102,31.102&#10;&#9;&#9;c8.298,8.298,21.927,7.704,29.472-1.284c36.247-43.184,58.076-98.877,58.076-159.668C504.5,203.428,476.686,141.303,431.716,96.333&#10;&#9;&#9;z"/>
	<path style="fill:#FEB237;" d="M419.151,108.899l12.565-12.565C407.683,72.3,378.75,53.167,346.544,40.56&#10;&#9;&#9;C375.109,58.23,399.826,81.525,419.151,108.899z"/>
	<path style="fill:#FFC344;" d="M324.788,476.242l-61.739-106.936c-3.133-5.426-10.964-5.426-14.097,0l-61.74,106.936&#10;&#9;&#9;c-3.133,5.426,0.783,12.209,7.049,12.209l123.479,0C324.005,488.451,327.921,481.668,324.788,476.242z"/>
	<path style="fill:#004281;" d="M305.11,289.65l-24.059,15.885l-20.099-75.01l28.778,1.727c13.411,0.805,26.864-0.557,39.842-4.035&#10;&#9;&#9;l92.922-24.898c12.428-3.33,25.203,4.045,28.533,16.473v0c3.33,12.428-4.045,25.203-16.473,28.533l-92.922,24.898&#10;&#9;&#9;C328.654,276.7,316.322,282.247,305.11,289.65z"/>
	<circle style="fill:#0067C5;" cx="256" cy="272.049" r="46.594"/>
	<path style="fill:none;stroke:#000000;stroke-width:15;stroke-linecap:round;stroke-linejoin:round;stroke-miterlimit:10;" d="&#10;&#9;&#9;M431.72,96.336c44.97,44.97,72.78,107.09,72.78,175.71c0,60.79-21.83,116.49-58.08,159.67c-7.54,8.99-21.17,9.58-29.47,1.29&#10;&#9;&#9;l-37.8-37.8c-7.17-7.18-7.86-18.6-1.54-26.54c21.1-26.52,33.7-60.1,33.7-96.62c0-5.83-0.32-11.58-0.95-17.24"/>
	<path style="fill:none;stroke:#000000;stroke-width:15;stroke-linecap:round;stroke-linejoin:round;stroke-miterlimit:10;" d="&#10;&#9;&#9;M398.33,209.786c-7.82-17.86-18.92-33.96-32.51-47.56"/>
	<path style="fill:none;stroke:#000000;stroke-width:15;stroke-linecap:round;stroke-linejoin:round;stroke-miterlimit:10;" d="&#10;&#9;&#9;M80.284,96.333C35.314,141.303,7.5,203.428,7.5,272.049c0,60.791,21.829,116.484,58.076,159.668&#10;&#9;&#9;c7.545,8.989,21.174,9.582,29.472,1.284l37.798-37.798c7.174-7.174,7.86-18.598,1.544-26.537&#10;&#9;&#9;c-21.097-26.519-33.703-60.096-33.703-96.617c0-42.888,17.384-81.716,45.49-109.823"/>
	
		<circle style="fill:none;stroke:#000000;stroke-width:15;stroke-linecap:round;stroke-linejoin:round;stroke-miterlimit:10;" cx="256" cy="272.049" r="46.594"/>
	<path style="fill:none;stroke:#000000;stroke-width:15;stroke-linecap:round;stroke-linejoin:round;stroke-miterlimit:10;" d="&#10;&#9;&#9;M160.515,42.556c-30.227,12.591-57.434,30.98-80.231,53.777l65.893,65.894c28.106-28.106,66.934-45.49,109.823-45.49&#10;&#9;&#9;s81.716,17.384,109.822,45.49l65.894-65.894C386.746,51.364,324.621,23.549,256,23.549c-21.463,0-42.29,2.721-62.155,7.837"/>
	<path style="fill:none;stroke:#000000;stroke-width:15;stroke-linecap:round;stroke-linejoin:round;stroke-miterlimit:10;" d="&#10;&#9;&#9;M205.109,445.243l-17.898,30.999c-3.133,5.426,0.783,12.209,7.049,12.209h123.479c6.266,0,10.182-6.783,7.049-12.209&#10;&#9;&#9;l-61.739-106.936c-3.133-5.426-10.964-5.426-14.097,0l-26.056,45.13"/>
	
		<line style="fill:none;stroke:#000000;stroke-width:15;stroke-linecap:round;stroke-linejoin:round;stroke-miterlimit:10;" x1="256" y1="411.831" x2="256" y2="427.362"/>
	<g>
		<g>
			
				<line style="fill:none;stroke:#000000;stroke-width:15;stroke-linecap:round;stroke-linejoin:round;stroke-miterlimit:10;" x1="256" y1="458.424" x2="256" y2="458.424"/>
		</g>
	</g>
	<path style="fill:none;stroke:#000000;stroke-width:15;stroke-linecap:round;stroke-linejoin:round;stroke-miterlimit:10;" d="&#10;&#9;&#9;M396.653,258.48l37.9-10.155c12.428-3.33,19.803-16.105,16.473-28.533h0c-3.33-12.428-16.105-19.803-28.533-16.473l-92.922,24.898&#10;&#9;&#9;c-12.977,3.477-26.431,4.84-39.842,4.035l-10.557-0.634"/>
	<path style="fill:none;stroke:#000000;stroke-width:15;stroke-linecap:round;stroke-linejoin:round;stroke-miterlimit:10;" d="&#10;&#9;&#9;M296.283,295.478l8.827-5.828c11.212-7.403,23.544-12.949,36.521-16.427l20.996-5.626"/>
</g>















</svg>
