<svg clip-rule="evenodd" fill-rule="evenodd" height="1.707in" image-rendering="optimizeQuality" shape-rendering="geometricPrecision" text-rendering="geometricPrecision" viewBox="0 0 1707 1707" width="1.707in" xmlns="http://www.w3.org/2000/svg"><g id="Layer_x0020_1"><path d="m281 617c-8 0-15-2-21-8-12-12-32-12-44 0-27 27-68-14-41-41 62-62 166 1 126 41-5 6-13 8-20 8zm652 836v-287h-86v141c0 38-58 38-58 0v-141h-78v287c112 33 88 200-29 200-118 0-142-167-29-200v-287c-131 0-261 0-391 0-16 0-29-13-29-29 0-342 278-620 620-620 170 0 327 70 439 182 111 111 182 269 182 438 0 16-13 29-30 29-105 0-211 0-317 0v141c0 38-57 38-57 0v-141h-79v287c112 33 88 200-29 200-118 0-142-167-29-200zm29 53c-59 0-59 89 0 89 58 0 58-89 0-89zm-280 0c-59 0-59 89 0 89 58 0 58-89 0-89zm-390-398h156c7-90 43-172 99-237l-111-110c-84 93-137 214-144 347zm966 0h157c-7-133-61-254-145-347l-110 110c56 65 92 147 98 237zm-29-388c-214-193-538-193-752 0l111 110c152-132 378-132 531 0zm-722 388h217c17-75 95-120 169-97l70-122c19-33 69-4 50 29l-70 122c19 18 33 41 39 68h218c-15-178-165-319-347-319s-332 141-346 319zm278 0h137c-26-60-112-60-137 0zm68-628c-117 0-213-95-213-213s96-214 213-214c118 0 214 96 214 214 0 117-96 213-214 213zm0-369c-85 0-155 70-155 156s70 155 155 155c86 0 156-69 156-155s-70-156-156-156zm55 253h-110c-38 0-38-58 0-58h110c39 0 39 58 0 58zm-104-128c-20 0-57 5-57-29s37-29 57-29c38 0 38 58 0 58zm127 0c-20 0-57 5-57-29s37-29 57-29c38 0 38 58 0 58zm-693 499c-118 0-213-96-213-213 0-118 95-214 213-214s213 96 213 214c0 117-95 213-213 213zm0-369c-86 0-155 70-155 156 0 85 69 155 155 155s155-70 155-155c0-86-69-156-155-156zm-49 125c-20 0-58 5-58-29s38-29 58-29c38 0 38 58 0 58zm127 0c-20 0-58 5-58-29s38-29 58-29c38 0 38 58 0 58zm1153 244c-118 0-214-96-214-213 0-118 96-214 214-214 117 0 213 96 213 214 0 117-96 213-213 213zm0-369c-86 0-156 70-156 156 0 85 70 155 156 155 85 0 155-70 155-155 0-86-70-156-155-156zm-50 124c-20 0-57 6-57-29 0-34 37-29 57-29 39 0 39 58 0 58zm127 0c-20 0-57 6-57-29 0-34 37-29 57-29 39 0 39 58 0 58zm-77 127c-47 0-92-38-64-67 12-11 30-11 41 0 12 12 33 12 45 0 27-27 68 14 41 41-17 17-39 26-63 26z"/><path d="m436 761c-84 93-137 214-144 347h156c7-90 43-172 99-237z" fill="#ff3e1a"/><path d="m477 720 111 110c152-132 378-132 531 0l110-110c-214-193-538-193-752 0z" fill="#ffa721"/><path d="m1160 871c56 65 92 147 98 237h157c-7-133-61-254-145-347z" fill="#1c9b4f"/><path d="m1200 1108c-15-178-165-319-347-319s-332 141-346 319h217c17-75 95-120 169-97l70-122c19-33 69-4 50 29l-70 122c19 18 33 41 39 68z" fill="#d3ffff"/><path d="m922 1108c-26-60-112-60-137 0z" fill="#58535a"/><g fill="#ff3e1a"><path d="m962 1595c58 0 58-89 0-89-59 0-59 89 0 89z"/><path d="m682 1595c58 0 58-89 0-89-59 0-59 89 0 89z"/><path d="m238 677c86 0 155-70 155-155 0-86-69-156-155-156s-155 70-155 156c0 85 69 155 155 155zm-63-109c62-62 166 1 126 41-5 6-13 8-20 8-8 0-15-2-21-8-12-12-32-12-44 0-27 27-68-14-41-41zm14-77c-20 0-58 5-58-29s38-29 58-29c38 0 38 58 0 58zm127 0c-20 0-58 5-58-29s38-29 58-29c38 0 38 58 0 58z"/></g><path d="m698 267c0 86 70 155 155 155 86 0 156-69 156-155s-70-156-156-156c-85 0-155 70-155 156zm100 97c-38 0-38-58 0-58h110c39 0 39 58 0 58zm6-128c-20 0-57 5-57-29s37-29 57-29c38 0 38 58 0 58zm127 0c-20 0-57 5-57-29s37-29 57-29c38 0 38 58 0 58z" fill="#ff9c01"/><path d="m1469 366c-86 0-156 70-156 156 0 85 70 155 156 155 85 0 155-70 155-155 0-86-70-156-155-156zm-50 124c-20 0-57 6-57-29 0-34 37-29 57-29 39 0 39 58 0 58zm127 0c-20 0-57 6-57-29 0-34 37-29 57-29 39 0 39 58 0 58zm-77 127c-47 0-92-38-64-67 12-11 30-11 41 0 12 12 33 12 45 0 27-27 68 14 41 41-17 17-39 26-63 26z" fill="#1c9b4f"/></g></svg>