<svg id="Layer_1" enable-background="new 0 0 256 256" height="512" viewBox="0 0 256 256" width="512" xmlns="http://www.w3.org/2000/svg"><g><g><g><g><g><g><g><path d="m34.18 185.849c0 5.523 4.477 10 10 10h167.64c5.523 0 10-4.477 10-10v-111.768h-187.64z" fill="#377de2"/></g></g></g><g><g><g><path d="m216.82 74.081v106.768c0 5.523-4.477 10-10 10h-167.64c-1.466 0-2.855-.323-4.11-.89 1.569 3.471 5.053 5.89 9.11 5.89h167.64c5.523 0 10-4.477 10-10v-111.768z" fill="#2266d3"/></g></g></g><g><g><g><path d="m48.805 171.225c0 5.523 4.477 10 10 10h138.39c5.523 0 10-4.477 10-10v-97.144h-158.39z" fill="#f1f2f2"/></g></g></g><g><g><g><g><path d="m79.512 108.066h-14.024c-2.209 0-4-1.791-4-4v-14.023c0-2.209 1.791-4 4-4h14.023c2.209 0 4 1.791 4 4v14.023c.001 2.21-1.79 4-3.999 4z" fill="#939598"/></g></g></g><g><g><g><path d="m116.512 108.066h-14.023c-2.209 0-4-1.791-4-4v-14.023c0-2.209 1.791-4 4-4h14.023c2.209 0 4 1.791 4 4v14.023c0 2.21-1.791 4-4 4z" fill="#939598"/></g></g></g><g><g><g><path d="m153.512 108.066h-14.023c-2.209 0-4-1.791-4-4v-14.023c0-2.209 1.791-4 4-4h14.023c2.209 0 4 1.791 4 4v14.023c0 2.21-1.791 4-4 4z" fill="#939598"/></g></g></g><g><g><g><path d="m190.512 108.066h-14.023c-2.209 0-4-1.791-4-4v-14.023c0-2.209 1.791-4 4-4h14.023c2.209 0 4 1.791 4 4v14.023c0 2.21-1.791 4-4 4z" fill="#939598"/></g></g></g></g><g><g><g><g><path d="m79.512 138.066h-14.024c-2.209 0-4-1.791-4-4v-14.023c0-2.209 1.791-4 4-4h14.023c2.209 0 4 1.791 4 4v14.023c.001 2.21-1.79 4-3.999 4z" fill="#939598"/></g></g></g><g><g><g><path d="m116.512 138.066h-14.023c-2.209 0-4-1.791-4-4v-14.023c0-2.209 1.791-4 4-4h14.023c2.209 0 4 1.791 4 4v14.023c0 2.21-1.791 4-4 4z" fill="#939598"/></g></g></g><g><g><g><path d="m153.512 138.066h-14.023c-2.209 0-4-1.791-4-4v-14.023c0-2.209 1.791-4 4-4h14.023c2.209 0 4 1.791 4 4v14.023c0 2.21-1.791 4-4 4z" fill="#939598"/></g></g></g><g><g><g><path d="m190.512 138.066h-14.023c-2.209 0-4-1.791-4-4v-14.023c0-2.209 1.791-4 4-4h14.023c2.209 0 4 1.791 4 4v14.023c0 2.21-1.791 4-4 4z" fill="#939598"/></g></g></g><g><g><g><path d="m190.512 168.066h-14.023c-2.209 0-4-1.791-4-4v-14.023c0-2.209 1.791-4 4-4h14.023c2.209 0 4 1.791 4 4v14.023c0 2.21-1.791 4-4 4z" fill="#939598"/></g></g></g></g><g><g><g><g><path d="m79.512 168.066h-14.024c-2.209 0-4-1.791-4-4v-14.023c0-2.209 1.791-4 4-4h14.023c2.209 0 4 1.791 4 4v14.023c.001 2.21-1.79 4-3.999 4z" fill="#939598"/></g></g></g><g><g><g><path d="m116.512 168.066h-14.023c-2.209 0-4-1.791-4-4v-14.023c0-2.209 1.791-4 4-4h14.023c2.209 0 4 1.791 4 4v14.023c0 2.21-1.791 4-4 4z" fill="#939598"/></g></g></g><g><g><g><path d="m153.512 168.066h-14.023c-2.209 0-4-1.791-4-4v-14.023c0-2.209 1.791-4 4-4h14.023c2.209 0 4 1.791 4 4v14.023c0 2.21-1.791 4-4 4z" fill="#939598"/></g></g></g></g><g><g><g><path d="m202.195 74.081v92.143c0 5.523-4.477 10-10 10h-138.39c-1.466 0-2.855-.323-4.11-.89 1.569 3.471 5.053 5.89 9.11 5.89h138.39c5.523 0 10-4.477 10-10v-97.143z" fill="#d1d3d4"/></g></g></g><g><g><g><path d="m34.18 74.081v-30.533c0-5.523 4.477-10 10-10h167.64c5.523 0 10 4.477 10 10v30.533z" fill="#d10028"/></g></g></g><g><g><g><path d="m81.09 33.548h46.91v40.533h-46.91z" fill="#e63950"/></g></g></g><g><g><g><path d="m34.18 74.081v-30.533c0-5.523 4.477-10 10-10h36.91v40.533z" fill="#d10028"/></g></g></g><g><g><g><path d="m40.18 70.082c-1.104 0-2-.896-2-2v-14c0-1.104.896-2 2-2s2 .896 2 2v14c0 1.104-.896 2-2 2zm0-22c-1.104 0-2-.896-2-2v-.229c0-1.104.896-2 2-2s2 .896 2 2v.229c0 1.104-.896 2-2 2z" fill="#e8566f"/></g></g></g><g><g><g><path d="m221.82 74.081v-30.533c0-5.523-4.477-10-10-10h-36.91v40.533z" fill="#b7022d"/></g></g></g></g></g><g><g><g><g><g><g><path d="m191.937 54.576c-5.06 0-9.162-4.102-9.162-9.162v-23.731c0-5.06 4.102-9.162 9.162-9.162 5.06 0 9.162 4.102 9.162 9.162v23.732c0 5.059-4.102 9.161-9.162 9.161z" fill="#e6e7e8"/></g></g></g></g></g><g><g><g><g><g><path d="m149.312 54.576c-5.06 0-9.162-4.102-9.162-9.162v-23.731c0-5.06 4.102-9.162 9.162-9.162 5.06 0 9.162 4.102 9.162 9.162v23.732c0 5.059-4.102 9.161-9.162 9.161z" fill="#e6e7e8"/></g></g></g></g></g><g><g><g><g><g><path d="m106.688 54.576c-5.06 0-9.162-4.102-9.162-9.162v-23.731c0-5.06 4.102-9.162 9.162-9.162 5.06 0 9.162 4.102 9.162 9.162v23.732c0 5.059-4.102 9.161-9.162 9.161z" fill="#e6e7e8"/></g></g></g></g></g><g><g><g><g><g><path d="m64.063 54.576c-5.06 0-9.162-4.102-9.162-9.162v-23.731c0-5.06 4.102-9.162 9.162-9.162 5.06 0 9.162 4.102 9.162 9.162v23.732c0 5.059-4.102 9.161-9.162 9.161z" fill="#e6e7e8"/></g></g></g><g><g><g><path d="m67.538 13.207c.44 1.072.687 2.244.687 3.475v23.732c0 5.06-4.102 9.162-9.162 9.162-1.231 0-2.403-.247-3.475-.687 1.369 3.336 4.646 5.687 8.475 5.687 5.06 0 9.162-4.102 9.162-9.162v-23.731c0-3.83-2.351-7.106-5.687-8.476z" fill="#d1d3d4"/></g></g></g><g><g><g><path d="m195.412 13.207c.44 1.072.687 2.244.687 3.475v23.732c0 5.06-4.102 9.162-9.162 9.162-1.231 0-2.403-.247-3.475-.687 1.369 3.336 4.646 5.687 8.475 5.687 5.06 0 9.162-4.102 9.162-9.162v-23.731c0-3.83-2.351-7.106-5.687-8.476z" fill="#d1d3d4"/></g></g></g><g><g><g><path d="m152.788 13.207c.44 1.072.687 2.244.687 3.475v23.732c0 5.06-4.102 9.162-9.162 9.162-1.231 0-2.403-.247-3.475-.687 1.369 3.336 4.646 5.687 8.475 5.687 5.06 0 9.162-4.102 9.162-9.162v-23.731c-.001-3.83-2.352-7.106-5.687-8.476z" fill="#d1d3d4"/></g></g></g><g><g><g><path d="m110.163 13.207c.44 1.072.687 2.244.687 3.475v23.732c0 5.06-4.102 9.162-9.162 9.162-1.231 0-2.403-.247-3.475-.687 1.369 3.336 4.646 5.687 8.475 5.687 5.06 0 9.162-4.102 9.162-9.162v-23.731c0-3.83-2.351-7.106-5.687-8.476z" fill="#d1d3d4"/></g></g></g></g></g></g></g><g><g><g><g><path d="m60.178 236.609 63.581-101.8c1.958-3.135 6.524-3.135 8.482 0l63.581 101.8c1.892 3.029-.398 6.87-4.097 6.87h-127.45c-3.699 0-5.989-3.84-4.097-6.87z" fill="#d10028"/></g></g></g><g><g><g><path d="m195.822 236.609-63.581-101.8c-.786-1.259-1.994-2.003-3.283-2.251l61.864 99.051c1.892 3.03-.398 6.87-4.097 6.87h-127.195c-.269 2.537 1.783 5 4.745 5h127.45c3.699 0 5.989-3.84 4.097-6.87z" fill="#b7022d"/></g></g></g><g><g><g><path d="m81.282 227.12 44.976-72.87c.782-1.266 2.703-1.266 3.484 0l44.976 72.87c.793 1.284-.179 2.904-1.742 2.904h-89.952c-1.563 0-2.534-1.62-1.742-2.904z" fill="#f1f2f2"/></g></g></g><g><g><g><path d="m174.718 227.12-44.976-72.87c-.525-.851-1.56-1.116-2.422-.824l42.398 68.694c.793 1.284-.179 2.904-1.742 2.904h-85.4l-1.294 2.096c-.793 1.284.179 2.904 1.742 2.904h89.951c1.564 0 2.536-1.62 1.743-2.904z" fill="#e6e7e8"/></g></g></g><g><g><g><g><path d="m128 171.46c-3.49 0-6.232 2.848-5.934 6.163l2.413 26.837c.157 1.743 1.686 3.082 3.521 3.082s3.365-1.339 3.521-3.082l2.413-26.837c.298-3.315-2.444-6.163-5.934-6.163z" fill="#414042"/></g></g></g><g><g><g><path d="m128 212.172c-2.761 0-5 2.134-5 4.766s2.239 4.766 5 4.766 5-2.134 5-4.766c0-2.633-2.239-4.766-5-4.766z" fill="#414042"/></g></g></g></g></g></g></svg>