<svg id="Capa_1" enable-background="new 0 0 512 512" height="512" viewBox="0 0 512 512" width="512" xmlns="http://www.w3.org/2000/svg" xmlns:xlink="http://www.w3.org/1999/xlink"><linearGradient id="SVGID_1_" gradientUnits="userSpaceOnUse" x1="256" x2="256" y1="512" y2="0"><stop offset="0" stop-color="#5558ff"/><stop offset="1" stop-color="#00c0ff"/></linearGradient><linearGradient id="SVGID_00000121959705545238641130000013307571601722958514_" gradientUnits="userSpaceOnUse" x1="256" x2="256" y1="391" y2="121"><stop offset="0" stop-color="#addcff"/><stop offset=".5028" stop-color="#eaf6ff"/><stop offset="1" stop-color="#eaf6ff"/></linearGradient><g id="Admin_2_"><path d="m226 512c-8.054 0-14.878-6.025-15.875-14.016l-6.655-53.229c-15.169-4.22-29.87-10.343-43.712-18.205l-42.451 32.988c-2.791 2.186-6.28 3.391-9.822 3.392-4.271 0-8.286-1.671-11.305-4.707l-42.42-42.42c-5.706-5.69-6.271-14.779-1.312-21.141l32.988-42.421c-7.857-13.886-13.974-28.585-18.19-43.71l-53.215-6.656c-7.999-.996-14.031-7.82-14.031-15.875v-60c0-8.055 6.032-14.879 14.03-15.875l53.215-6.656c4.217-15.14 10.333-29.838 18.19-43.711l-32.988-42.422c-4.958-6.361-4.394-15.45 1.313-21.141l42.421-42.421c3.028-3.021 7.05-4.684 11.323-4.684 3.589 0 6.979 1.166 9.804 3.372l42.449 32.987c13.842-7.862 28.543-13.984 43.712-18.205l6.655-53.229c.998-7.99 7.822-14.015 15.876-14.015h60c8.054 0 14.878 6.025 15.875 14.016l6.655 53.229c15.169 4.221 29.87 10.343 43.712 18.205l42.451-32.988c2.838-2.205 6.234-3.371 9.823-3.371 4.276 0 8.29 1.664 11.303 4.685l42.421 42.421c5.706 5.69 6.271 14.779 1.312 21.141l-32.988 42.421c7.857 13.873 13.975 28.572 18.19 43.711l53.215 6.656c7.999.995 14.031 7.82 14.031 15.874v60c0 8.054-6.032 14.879-14.03 15.875l-53.215 6.656c-4.217 15.125-10.333 29.824-18.19 43.71l32.988 42.422c4.958 6.361 4.394 15.45-1.313 21.141l-42.421 42.421c-2.999 3.032-7.007 4.704-11.28 4.705-3.543 0-7.039-1.205-9.847-3.393l-42.449-32.987c-13.843 7.862-28.543 13.984-43.712 18.205l-6.655 53.229c-.998 7.991-7.822 14.016-15.876 14.016z" fill="url(#SVGID_1_)"/><g><g><path d="m331 196c0-41.353-33.633-75-75-75s-75 33.647-75 75c0 36.216 25.801 66.513 60 73.482v106.518c0 8.291 6.709 15 15 15s15-6.709 15-15v-15h15c8.291 0 15-6.709 15-15s-6.709-15-15-15h-15v-61.518c34.199-6.969 60-37.266 60-73.482zm-75 15c-8.284 0-15-6.716-15-15 0-8.286 6.716-15 15-15s15 6.714 15 15c0 8.284-6.716 15-15 15z" fill="url(#SVGID_00000121959705545238641130000013307571601722958514_)"/></g></g></g></svg>