<svg id="Capa_1" enable-background="new 0 0 512 512" height="512" viewBox="0 0 512 512" width="512" xmlns="http://www.w3.org/2000/svg"><g><g><g><g><g><g><circle cx="256" cy="256" fill="#4a7aff" r="256"/></g></g></g></g></g><path d="m512 256c0-21.505-2.652-42.39-7.645-62.347l-69.139-69.138-23.5 31.811-79.222-79.222-255.71 306.324 122.199 122.199c18.336 4.171 37.419 6.373 57.017 6.373 141.385 0 256-114.615 256-256z" fill="#0053bf"/><g><path d="m282.229 124.515h152.987v258.913h-152.987z" fill="#cdd2e1"/></g><g><circle cx="358.722" cy="206.183" fill="#6f798e" r="46.532"/></g><g><path d="m76.784 124.515h152.987v258.913h-152.987z" fill="#e9edf5"/></g><g><path d="m303.476 275.622h110.493v30.087h-110.493z" fill="#414952"/></g><g><path d="m303.476 325.842h110.493v30.087h-110.493z" fill="#707789"/></g><g><circle cx="153.278" cy="206.183" fill="#7e8596" r="46.532"/></g><g><path d="m98.031 275.622h110.493v30.087h-110.493z" fill="#636978"/></g><g><path d="m98.031 325.842h110.493v30.087h-110.493z" fill="#afb4c8"/></g><g><path d="m179.507 77.104h152.987v258.913h-152.987z" fill="#fff"/></g><g><path d="m255.644 77.104h76.85v258.913h-76.85z" fill="#f2f6fc"/></g><g><path d="m300.633 121.069c-5.861 0-10.613 4.752-10.613 10.613 0 2.384.796 4.577 2.123 6.349l-13.827 9.891-16.451-18.012c2.86-1.901 4.747-5.15 4.747-8.841 0-5.861-4.751-10.613-10.613-10.613-5.861 0-10.613 4.752-10.613 10.613 0 3.692 1.887 6.94 4.747 8.841l-16.451 18.012-13.827-9.891c1.327-1.772 2.123-3.965 2.123-6.349 0-5.861-4.751-10.613-10.613-10.613-5.861 0-10.613 4.752-10.613 10.613s4.752 10.613 10.613 10.613v44.07h89.267v-44.07c5.861 0 10.613-4.751 10.613-10.613.001-5.861-4.75-10.613-10.612-10.613z" fill="#ffce00"/></g><g><path d="m300.633 121.069c-5.861 0-10.613 4.752-10.613 10.613 0 2.384.796 4.577 2.123 6.349l-13.827 9.891-16.45-18.012c2.86-1.901 4.747-5.15 4.747-8.841 0-5.861-4.751-10.613-10.613-10.613-.12 0-.237.014-.356.018v75.891h44.989v-44.07c5.861 0 10.613-4.751 10.613-10.613s-4.751-10.613-10.613-10.613z" fill="#fdba12"/></g><g><path d="m200.754 215.95h110.493v30.087h-110.493z" fill="#fe6a16"/></g><g><path d="m255.644 215.95h55.602v30.087h-55.602z" fill="#f24500"/></g><g><path d="m200.754 266.17h110.493v30.087h-110.493z" fill="#afb4c8"/></g><g><path d="m255.644 266.17h55.602v30.087h-55.602z" fill="#707789"/></g></g></svg>