<?xml version="1.0" encoding="iso-8859-1"?>
<!-- Generator: Adobe Illustrator 26.5.3, SVG Export Plug-In . SVG Version: 6.00 Build 0)  -->
<svg version="1.1" id="Capa_1" xmlns="http://www.w3.org/2000/svg" xmlns:xlink="http://www.w3.org/1999/xlink" x="0px" y="0px"
	 viewBox="0 0 510 510" style="enable-background:new 0 0 510 510;" xml:space="preserve">
<g>
	<g>
		<g>
			<g>
				<g>
					<g>
						<rect x="10" y="10" style="fill:#FFFFFF;" width="402" height="390"/>
						<rect x="10" y="10" style="fill:#FFFFFF;" width="402" height="390"/>
						<polygon style="fill:#BC9AF4;" points="10,10 412,10 412,98 167.979,98 133.14,90.966 10,98 						"/>
						<path style="fill:#D2DCFD;" d="M159.031,174.498c0-59.916,16.001-116.091,43.955-164.498H10v390h238.338
							C192.965,341.062,159.031,261.748,159.031,174.498z"/>
						<path style="fill:#6864F7;" d="M202.986,10H10v88h157.979C175.423,66.7,187.32,37.128,202.986,10z"/>
					</g>
				</g>
			</g>
		</g>
		<polygon style="fill:#FDCB50;" points="356,344 205.966,344 144.403,334.985 74.168,337.237 74.951,268.912 70.634,158.728 
			131.263,164.923 159.669,154 356,154 		"/>
		<path style="fill:#FD8F01;" d="M159.031,174.498c0-6.885,0.221-13.718,0.638-20.498H66v190h139.966
			C176.18,294.479,159.031,236.497,159.031,174.498z"/>
		<path style="fill:#FFFFFF;" d="M368.24,324c-59.412,0-110.33,36.339-131.76,88c21.429,51.661,72.347,88,131.76,88
			s110.33-36.339,131.76-88C478.571,360.339,427.653,324,368.24,324z"/>
		<circle style="fill:#B1D952;" cx="368.24" cy="412" r="44"/>
	</g>
	<g>
		<path style="fill:#052A75;" d="M200.338,202.705c-0.034-0.092-0.07-0.184-0.107-0.274c-1.858-4.515-6.211-7.431-11.093-7.431
			c-0.004,0-0.009,0-0.014,0c-4.887,0.005-9.239,2.932-11.088,7.455c-0.031,0.075-0.061,0.15-0.089,0.226l-33.044,86.761
			c-1.966,5.161,0.624,10.938,5.785,12.904c5.16,1.966,10.938-0.624,12.904-5.786l4.725-12.406h41.381l4.671,12.378
			c1.511,4.005,5.315,6.472,9.357,6.472c1.173,0,2.366-0.208,3.528-0.647c5.168-1.95,7.775-7.72,5.825-12.887L200.338,202.705z
			 M175.935,264.153l13.168-34.574l13.048,34.574H175.935z"/>
		<path style="fill:#052A75;" d="M267.752,303c5.522,0,10-4.477,10-10v-88c0-5.523-4.478-10-10-10s-10,4.477-10,10v88
			C257.752,298.523,262.229,303,267.752,303z"/>
		<path style="fill:#052A75;" d="M509.237,408.169c-16.541-39.876-48.453-69.896-87.237-84.437V10c0-5.523-4.478-10-10-10H10
			C4.478,0,0,4.477,0,10v390c0,5.523,4.478,10,10,10h216.686c-0.396,1.942-0.212,3.974,0.558,5.832
			C250.973,473.037,306.317,510,368.24,510s117.268-36.963,140.997-94.168C510.255,413.379,510.255,410.622,509.237,408.169z
			 M20,390V20h382v297.744c-10.917-2.458-22.224-3.744-33.76-3.744c-55.086,0-104.946,29.268-131.993,76H20z M368.24,490
			c-52.414,0-99.404-30.477-120.862-78c21.458-47.523,68.448-78,120.862-78c52.413,0,99.404,30.477,120.863,78
			C467.645,459.523,420.653,490,368.24,490z"/>
	</g>
	<g>
		<path style="fill:#FFFFFF;" d="M362.948,44H213.228c-5.522,0-10,4.477-10,10s4.478,10,10,10h149.721c5.522,0,10-4.477,10-10
			S368.471,44,362.948,44z"/>
		<circle style="fill:#FFFFFF;" cx="59.05" cy="54.001" r="10"/>
		<circle style="fill:#FFFFFF;" cx="103.05" cy="54.001" r="10"/>
		<circle style="fill:#FFFFFF;" cx="147.05" cy="54.001" r="10"/>
	</g>
</g>
<g>
</g>
<g>
</g>
<g>
</g>
<g>
</g>
<g>
</g>
<g>
</g>
<g>
</g>
<g>
</g>
<g>
</g>
<g>
</g>
<g>
</g>
<g>
</g>
<g>
</g>
<g>
</g>
<g>
</g>
</svg>
