<svg id="Filled_Line" viewBox="0 0 24 24" xmlns="http://www.w3.org/2000/svg"><path d="m5 15c0 3.87 3.13 7 7 7s7-3.13 7-7c0-2.88-.56-4.41-.56-4.41l-1.91 2.03s1.06-4.28-1.58-7.47c-1.52-1.84-3.2-3.15-3.2-3.15s-.93 2.41-1.99 4.19c-.86 1.43-1.36 2.46-1.69 4.61-.6-.64-1.08-1.52-1.5-2.51 0 0-1.81 3.02-1.56 6.7z" fill="#e63946"/><path d="m15.82 18.16c0 2.12-1.72 3.84-3.84 3.84s-3.84-1.72-3.84-3.84c0-1.35.34-2.41.34-2.41l1.62 1.27s-.19-1.68.5-3.83c.4-1.25 1.53-2.17 1.53-2.17s.51 1.33 1.1 2.3c.47.78 2.74 2.82 2.6 4.84z" fill="#c9273a"/><path d="m19.14 10.33c-.09-.24-.3-.42-.55-.48-.25-.05-.52.03-.7.22l-.4.43c0-1.65-.37-3.91-1.97-5.84-1.56-1.88-3.25-3.21-3.32-3.26-.19-.15-.44-.2-.66-.13-.23.06-.42.23-.5.45 0 .02-.92 2.38-1.94 4.07-.65 1.09-1.1 1.96-1.42 3.12-.14-.27-.28-.58-.43-.92-.11-.26-.36-.44-.64-.45-.3-.03-.55.12-.7.36-.08.13-1.92 3.25-1.67 7.11.01 4.26 3.49 7.72 7.75 7.72s7.75-3.48 7.75-7.75c0-2.98-.59-4.6-.61-4.67zm-10.25 7.82c0-.39.03-.76.07-1.07l.67.53c.24.19.56.21.83.07.26-.15.42-.44.38-.74 0-.02-.16-1.57.47-3.52.13-.39.35-.76.58-1.05.19.42.44.91.69 1.34.14.24.37.51.66.86.77.92 1.92 2.31 1.84 3.54v.05c0 1.7-1.38 3.09-3.09 3.09h-.02c-1.7-.01-3.07-1.39-3.07-3.09zm7.5 1.29c.12-.4.19-.82.19-1.26.11-1.83-1.27-3.48-2.19-4.58-.23-.27-.44-.53-.53-.67-.54-.91-1.03-2.17-1.04-2.18-.09-.22-.28-.39-.51-.46-.23-.06-.48 0-.67.15-.05.04-1.3 1.08-1.77 2.52-.31.96-.46 1.84-.52 2.53l-.42-.33c-.19-.15-.45-.2-.68-.13-.24.07-.42.25-.5.49-.01.05-.37 1.18-.37 2.64 0 .43.06.84.17 1.24-1.12-1.13-1.81-2.68-1.81-4.39 0-.02 0-.03 0-.05-.13-1.97.38-3.76.83-4.91.3.52.61.94.94 1.29.2.21.5.28.77.2.27-.09.47-.32.52-.6.3-1.96.71-2.88 1.59-4.34.67-1.12 1.28-2.45 1.66-3.34.61.54 1.49 1.39 2.32 2.39 2.36 2.85 1.44 6.78 1.43 6.82-.08.33.07.67.37.84.3.16.67.1.9-.14l.96-1.01c.12.69.22 1.66.22 2.88 0 1.74-.71 3.31-1.86 4.45z" fill="#050819"/></svg>