<?xml version="1.0" encoding="UTF-8" standalone="no"?>
<!-- Created with Inkscape (http://www.inkscape.org/) -->

<svg
   version="1.1"
   id="svg16833"
   xml:space="preserve"
   width="682.66669"
   height="682.66669"
   viewBox="0 0 682.66669 682.66669"
   xmlns="http://www.w3.org/2000/svg"
   xmlns:svg="http://www.w3.org/2000/svg"><defs
     id="defs16837"><clipPath
       clipPathUnits="userSpaceOnUse"
       id="clipPath16847"><path
         d="M 0,512 H 512 V 0 H 0 Z"
         id="path16845" /></clipPath></defs><g
     id="g16839"
     transform="matrix(1.3333333,0,0,-1.3333333,0,682.66667)"><g
       id="g16841"><g
         id="g16843"
         clip-path="url(#clipPath16847)"><g
           id="g16849"
           transform="translate(444.5,504.5)"><path
             d="m 0,0 h -247 v -497 h 147 L 60,-337 V -60 C 60,-26.863 33.137,0 0,0"
             style="fill:#efedff;fill-opacity:1;fill-rule:nonzero;stroke:none"
             id="path16851" /></g><g
           id="g16853"
           transform="translate(272.0869,84.502)"><path
             d="m 0,0 c -6.304,16.308 -8.002,22.91 -8.002,37.705 v 262.293 c 0,35.844 16.79,68.012 42.688,90 21.986,18.668 50.535,30 80.964,30 H -74.587 c -33.137,0 -60,-26.863 -60,-60 v -377 c 0,-33.137 26.863,-60 60,-60 h 147 C 39.218,-65.309 12.631,-32.675 0,0"
             style="fill:#d4d4ff;fill-opacity:1;fill-rule:nonzero;stroke:none"
             id="path16855" /></g><g
           id="g16857"
           transform="translate(404.5,167.5)"><path
             d="m 0,0 c -33.138,0 -60,-26.863 -60,-60 v -100 l 5.149,5.15 L 100,0 Z"
             style="fill:#d4d4ff;fill-opacity:1;fill-rule:nonzero;stroke:none"
             id="path16859" /></g><g
           id="g16861"
           transform="translate(419.5059,234.502)"><path
             d="m 0,0 h -237 c -8.284,0 -15,-6.716 -15,-15 0,-8.284 6.716,-15 15,-15 H 0 c 8.284,0 15,6.716 15,15 C 15,-6.716 8.284,0 0,0"
             style="fill:#676fb2;fill-opacity:1;fill-rule:nonzero;stroke:none"
             id="path16863" /></g><g
           id="g16865"
           transform="translate(379.5059,264.502)"><path
             d="M 0,0 C 8.284,0 15,6.715 15,15 15,23.283 8.284,30 0,30 h -117 c -8.284,0 -15,-6.717 -15,-15 0,-8.285 6.716,-15 15,-15 z"
             style="fill:#676fb2;fill-opacity:1;fill-rule:nonzero;stroke:none"
             id="path16867" /></g><g
           id="g16869"
           transform="translate(459.5059,414.501)"><path
             d="m 0,0 h -277 c -8.284,0 -15,-6.716 -15,-15 0,-8.284 6.716,-15 15,-15 H 0 c 8.284,0 15,6.716 15,15 C 15,-6.716 8.284,0 0,0"
             style="fill:#676fb2;fill-opacity:1;fill-rule:nonzero;stroke:none"
             id="path16871" /></g><g
           id="g16873"
           transform="translate(262.5059,444.5)"><path
             d="m 0,0 h 117 c 8.284,0 15,6.717 15,15 0,8.285 -6.716,15 -15,15 H 0 C -8.284,30 -15,23.285 -15,15 -15,6.717 -8.284,0 0,0"
             style="fill:#676fb2;fill-opacity:1;fill-rule:nonzero;stroke:none"
             id="path16875" /></g><g
           id="g16877"
           transform="translate(309.5059,174.502)"><path
             d="m 0,0 h -127 c -8.284,0 -15,-6.716 -15,-15 0,-8.284 6.716,-15 15,-15 H 0 c 8.284,0 15,6.716 15,15 C 15,-6.716 8.284,0 0,0"
             style="fill:#676fb2;fill-opacity:1;fill-rule:nonzero;stroke:none"
             id="path16879" /></g><g
           id="g16881"
           transform="translate(65.0723,19.7275)"><path
             d="m 0,0 44.239,65.655 v 23.93 H 20.309 L -34.604,34.671 Z"
             style="fill:#d6948c;fill-opacity:1;fill-rule:nonzero;stroke:none"
             id="path16883" /></g><g
           id="g16885"
           transform="translate(85.3809,109.3125)"><path
             d="m 0,0 v 0 l -65.569,-44.178 c -0.087,-0.058 -0.171,-0.121 -0.253,-0.186 -7.664,-6.166 -12.059,-15.338 -12.059,-25.165 0,-17.801 14.483,-32.284 32.283,-32.284 9.827,0 19.123,4.565 25.289,12.228 C -28.937,-58.267 -21.247,-24.568 0,0"
             style="fill:#ce857a;fill-opacity:1;fill-rule:nonzero;stroke:none"
             id="path16887" /></g><g
           id="g16889"
           transform="translate(177.5928,254.7695)"><path
             d="m 0,0 h -29.5 l -79.243,-92.345 79.243,-92.344 H 0 c 44.466,7.248 78.407,45.83 78.407,92.344 C 78.407,-45.83 44.466,-7.248 0,0"
             style="fill:#9ea2e3;fill-opacity:1;fill-rule:nonzero;stroke:none"
             id="path16891" /></g><g
           id="g16893"
           transform="translate(98.8428,162.4326)"><path
             d="m 0,0 c 0,46.516 34.284,85.089 78.75,92.337 -4.937,0.805 -10.003,1.23 -15.168,1.23 -51.68,0 -93.575,-41.894 -93.575,-93.575 0,-51.68 41.895,-93.575 93.575,-93.575 5.165,0 10.231,0.426 15.168,1.23 C 34.284,-85.104 0,-46.515 0,0"
             style="fill:#8288cb;fill-opacity:1;fill-rule:nonzero;stroke:none"
             id="path16895" /></g><g
           id="g16897"
           transform="translate(209.3467,174.999)"><path
             d="m 0,0 c -6.973,26.021 -33.701,41.26 -59.494,34.349 -25.873,-6.932 -41.281,-33.621 -34.349,-59.494 6.835,-25.508 32.873,-40.844 58.4,-34.627 C -8.92,-53.313 7.03,-26.239 0,0"
             style="fill:#efedff;fill-opacity:1;fill-rule:nonzero;stroke:none"
             id="path16899" /></g><g
           id="g16901"
           transform="translate(242.6367,347.8857)"><path
             d="m 0,0 c -13.808,0.011 -25.008,-8.485 -25.018,-18.979 -0.009,-10.494 11.176,-19.01 24.983,-19.021 13.806,-0.011 25.008,8.485 25.017,18.979 C 24.992,-8.527 13.807,-0.012 0,0"
             style="fill:#ff8e9e;fill-opacity:1;fill-rule:nonzero;stroke:none"
             id="path16903" /></g><g
           id="g16905"
           transform="translate(406.4102,347.7461)"><path
             d="M 0,0 C -13.807,0.012 -25.008,-8.486 -25.018,-18.979 -25.027,-29.473 -13.842,-37.988 -0.035,-38 13.772,-38.012 24.973,-29.514 24.982,-19.021 24.992,-8.527 13.807,-0.012 0,0"
             style="fill:#ff8e9e;fill-opacity:1;fill-rule:nonzero;stroke:none"
             id="path16907" /></g><g
           id="g16909"
           transform="translate(248.5,162.4248)"><path
             d="m 0,0 c 0,-47.462 -38.613,-86.075 -86.075,-86.075 -47.462,0 -86.075,38.613 -86.075,86.075 0,47.462 38.613,86.075 86.075,86.075 C -38.613,86.075 0,47.462 0,0 m 178.506,57.077 c 0,-4.136 -3.364,-7.5 -7.5,-7.5 H 1.979 c -3.006,5.317 -6.476,10.336 -10.36,15 h 179.387 c 4.136,0 7.5,-3.364 7.5,-7.5 m -117.5,-52.5 c 4.136,0 7.5,-3.364 7.5,-7.5 0,-4.136 -3.364,-7.5 -7.5,-7.5 H 14.465 C 14.818,-6.995 15,-3.519 15,0 15,1.534 14.96,3.06 14.892,4.577 Z M 156,-2.425 h 81.894 L 103.5,-136.818 v 81.893 c 0,28.948 23.552,52.5 52.5,52.5 m 100,247.441 c 4.143,0 7.5,3.357 7.5,7.5 v 29.559 c 0,37.22 -30.28,67.5 -67.5,67.5 H -51 c -37.22,0 -67.5,-30.28 -67.5,-67.5 V 95.741 C -158.378,82.2 -187.15,44.397 -187.15,0 c 0,-18.57 5.039,-35.983 13.814,-50.953 l -18.853,-12.702 c -3.436,-2.315 -4.344,-6.976 -2.03,-10.41 2.315,-3.437 6.977,-4.344 10.41,-2.03 l 18.995,12.798 c 4.578,-5.683 9.756,-10.862 15.439,-15.44 l -40.084,-59.49 c -4.817,-5.849 -11.819,-9.198 -19.258,-9.198 -13.665,0 -24.783,11.118 -24.783,24.783 0,7.503 3.338,14.509 9.138,19.223 l 15.674,10.562 c 3.435,2.314 4.343,6.975 2.029,10.41 -2.314,3.435 -6.975,4.344 -10.41,2.029 -16.78,-11.305 -15.929,-10.702 -16.574,-11.215 -9.442,-7.596 -14.857,-18.898 -14.857,-31.009 0,-21.936 17.847,-39.783 39.783,-39.783 12.102,0 23.449,5.477 31.133,15.026 0.132,0.165 0.258,0.336 0.376,0.51 l 40.179,59.628 c 5.838,-3.422 12.045,-6.28 18.55,-8.488 0.445,-36.84 30.536,-66.676 67.479,-66.676 H 96 c 1.973,0 3.897,0.79 5.304,2.196 l 160,160 c 1.337,1.337 2.196,3.265 2.196,5.304 v 217.441 c 0,4.142 -3.357,7.5 -7.5,7.5 -4.143,0 -7.5,-3.358 -7.5,-7.5 V 12.575 H 156 c -37.22,0 -67.5,-30.28 -67.5,-67.5 v -92.5 H -51 c -27.37,0 -49.904,21.058 -52.28,47.821 5.592,-0.963 11.341,-1.471 17.205,-1.471 46.956,0 86.532,32.185 97.835,75.652 h 49.246 c 12.406,0 22.5,10.094 22.5,22.5 0,12.406 -10.094,22.5 -22.5,22.5 H 13.09 c -1.014,5.15 -2.416,10.161 -4.184,15 h 162.1 c 12.406,0 22.5,10.094 22.5,22.5 0,12.406 -10.094,22.5 -22.5,22.5 h -194.83 c -17.171,13.462 -38.79,21.498 -62.251,21.498 -5.941,0 -11.763,-0.519 -17.425,-1.508 v 182.508 c 0,28.948 23.552,52.5 52.5,52.5 h 247 c 28.948,0 52.5,-23.552 52.5,-52.5 v -29.559 c 0,-4.143 3.357,-7.5 7.5,-7.5"
             style="fill:#000000;fill-opacity:1;fill-rule:nonzero;stroke:none"
             id="path16911" /></g><g
           id="g16913"
           transform="translate(175.0059,399.501)"><path
             d="m 0,0 c 0,4.136 3.364,7.5 7.5,7.5 h 277 c 4.136,0 7.5,-3.364 7.5,-7.5 0,-4.136 -3.364,-7.5 -7.5,-7.5 H 7.5 C 3.364,-7.5 0,-4.136 0,0 m 307,0 c 0,12.406 -10.094,22.5 -22.5,22.5 H 7.5 C -4.906,22.5 -15,12.406 -15,0 -15,-12.406 -4.906,-22.5 7.5,-22.5 h 277 c 12.406,0 22.5,10.094 22.5,22.5"
             style="fill:#000000;fill-opacity:1;fill-rule:nonzero;stroke:none"
             id="path16915" /></g><g
           id="g16917"
           transform="translate(255.0059,459.5)"><path
             d="m 0,0 c 0,4.136 3.364,7.5 7.5,7.5 h 117 c 4.136,0 7.5,-3.364 7.5,-7.5 0,-4.136 -3.364,-7.5 -7.5,-7.5 H 7.5 C 3.364,-7.5 0,-4.136 0,0 m 124.5,-22.5 c 12.406,0 22.5,10.094 22.5,22.5 0,12.406 -10.094,22.5 -22.5,22.5 H 7.5 C -4.906,22.5 -15,12.406 -15,0 -15,-12.406 -4.906,-22.5 7.5,-22.5 Z"
             style="fill:#000000;fill-opacity:1;fill-rule:nonzero;stroke:none"
             id="path16919" /></g><g
           id="g16921"
           transform="translate(261.2256,331.4531)"><path
             d="m 0,0 c 4.14,0 7.497,3.354 7.5,7.494 l 0.009,11.877 c 0.003,4.143 -3.353,7.503 -7.494,7.506 H 0.009 c -4.14,0 -7.497,-3.355 -7.5,-7.494 L -7.5,7.506 C -7.503,3.363 -4.147,0.003 -0.006,0 Z"
             style="fill:#000000;fill-opacity:1;fill-rule:nonzero;stroke:none"
             id="path16923" /></g><g
           id="g16925"
           transform="translate(387.8271,331.3301)"><path
             d="M 0,0 C 4.14,0 7.497,3.354 7.5,7.494 L 7.509,19.37 c 0.003,4.143 -3.353,7.503 -7.494,7.506 H 0.009 c -4.14,0 -7.497,-3.355 -7.5,-7.494 L -7.5,7.506 C -7.503,3.363 -4.147,0.003 -0.006,0 Z"
             style="fill:#000000;fill-opacity:1;fill-rule:nonzero;stroke:none"
             id="path16927" /></g><g
           id="g16929"
           transform="translate(341.2031,326.1045)"><path
             d="M 0,0 H 0.007 C 4.146,0 7.503,3.354 7.507,7.493 7.511,11.636 4.155,14.996 0.014,15 l -33.378,0.028 h -0.007 c -4.139,0 -7.496,-3.353 -7.5,-7.493 -0.004,-4.142 3.351,-7.503 7.493,-7.507 z"
             style="fill:#000000;fill-opacity:1;fill-rule:nonzero;stroke:none"
             id="path16931" /></g><g
           id="g16933"
           transform="translate(151.7939,202.1035)"><path
             d="m 0,0 c 21.867,5.858 44.42,-7.071 50.308,-29.046 5.951,-22.208 -7.531,-45.079 -29.973,-50.544 -21.501,-5.235 -43.651,7.9 -49.381,29.282 C -34.911,-28.419 -21.89,-5.864 0,0 m 23.884,-94.164 c 30.579,7.447 49.059,38.595 40.912,69.001 -8.034,29.987 -38.798,47.658 -68.679,39.651 -29.896,-8.009 -47.664,-38.78 -39.651,-68.678 7.875,-29.394 37.844,-47.176 67.418,-39.974"
             style="fill:#000000;fill-opacity:1;fill-rule:nonzero;stroke:none"
             id="path16935" /></g><g
           id="g16937"
           transform="translate(262.5059,287.002)"><path
             d="m 0,0 h 117 c 4.136,0 7.5,-3.364 7.5,-7.5 0,-4.136 -3.364,-7.5 -7.5,-7.5 H 0 c -4.136,0 -7.5,3.364 -7.5,7.5 0,4.136 3.364,7.5 7.5,7.5 M -22.5,-7.5 C -22.5,-19.906 -12.406,-30 0,-30 h 117 c 12.406,0 22.5,10.094 22.5,22.5 C 139.5,4.906 129.406,15 117,15 H 0 C -12.406,15 -22.5,4.906 -22.5,-7.5"
             style="fill:#000000;fill-opacity:1;fill-rule:nonzero;stroke:none"
             id="path16939" /></g></g></g></g></svg>
