<svg version="1.1" id="Capa_1" xmlns="http://www.w3.org/2000/svg" xmlns:xlink="http://www.w3.org/1999/xlink" x="0px" y="0px" viewBox="0 0 512 512" style="enable-background:new 0 0 512 512;" xml:space="preserve">
<g>
	<g>
		<path style="fill:#FD8087;" d="M464.094,104.476H47.907V60.028c0-11.158,9.045-20.203,20.203-20.203H443.89&#10;&#9;&#9;&#9;c11.158,0,20.203,9.045,20.203,20.203V104.476z"/>
		<path style="fill:#FE646F;" d="M443.89,39.825h-26.264c11.158,0,20.203,9.045,20.203,20.203v44.447h26.264V60.028&#10;&#9;&#9;&#9;C464.094,48.87,455.048,39.825,443.89,39.825z"/>
		<path style="fill:#EAF6FF;" d="M443.89,393.382H68.11c-11.158,0-20.203-9.045-20.203-20.203V104.476h416.187v268.703&#10;&#9;&#9;&#9;C464.094,384.337,455.048,393.382,443.89,393.382z"/>
		<path style="fill:#D8ECFE;" d="M437.829,104.476v268.703c0,11.158-9.045,20.203-20.203,20.203h26.264&#10;&#9;&#9;&#9;c11.158,0,20.203-9.045,20.203-20.203V104.476H437.829z"/>
		<path style="fill:#C4E2FF;" d="M256,72.15L256,72.15c-8.926,0-16.163-7.236-16.163-16.163V23.663&#10;&#9;&#9;&#9;c0-8.926,7.236-16.163,16.163-16.163h0c8.926,0,16.163,7.236,16.163,16.163v32.325C272.163,64.914,264.926,72.15,256,72.15z"/>
		<path style="fill:#C4E2FF;" d="M320.65,72.15L320.65,72.15c-8.926,0-16.163-7.236-16.163-16.163V23.663&#10;&#9;&#9;&#9;c0-8.926,7.236-16.163,16.163-16.163h0c8.926,0,16.163,7.236,16.163,16.163v32.325C336.813,64.914,329.577,72.15,320.65,72.15z"/>
		<path style="fill:#C4E2FF;" d="M385.301,72.15L385.301,72.15c-8.926,0-16.163-7.236-16.163-16.163V23.663&#10;&#9;&#9;&#9;c0-8.926,7.236-16.163,16.163-16.163h0c8.926,0,16.163,7.236,16.163,16.163v32.325C401.463,64.914,394.227,72.15,385.301,72.15z"/>
		<path style="fill:#C4E2FF;" d="M191.35,72.15L191.35,72.15c8.926,0,16.163-7.236,16.163-16.163V23.663&#10;&#9;&#9;&#9;c0-8.926-7.236-16.163-16.163-16.163h0c-8.926,0-16.163,7.236-16.163,16.163v32.325C175.187,64.914,182.423,72.15,191.35,72.15z"/>
		<path style="fill:#C4E2FF;" d="M126.699,72.15L126.699,72.15c8.926,0,16.163-7.236,16.163-16.163V23.663&#10;&#9;&#9;&#9;c0-8.926-7.236-16.163-16.163-16.163h0c-8.926,0-16.163,7.236-16.163,16.163v32.325C110.537,64.914,117.773,72.15,126.699,72.15z"/>
		<circle style="fill:#00F2A6;" cx="256" cy="393.382" r="111.118"/>
		<path style="fill:#0ED290;" d="M326.192,307.244c15.612,19.136,24.98,43.569,24.98,70.192&#10;&#9;&#9;&#9;c0,61.369-49.749,111.118-111.118,111.118c-26.623,0-51.056-9.367-70.192-24.98C190.238,488.549,221.254,504.5,256,504.5&#10;&#9;&#9;&#9;c61.369,0,111.118-49.749,111.118-111.118C367.118,358.636,351.167,327.62,326.192,307.244z"/>
		<circle style="fill:#EAF6FF;" cx="256" cy="393.382" r="80.813"/>
		<g>
			<path style="fill:#FD8087;" d="M195.39,177.207h-24.244c-4.463,0-8.081-3.618-8.081-8.081v-24.244&#10;&#9;&#9;&#9;&#9;c0-4.463,3.618-8.081,8.081-8.081h24.244c4.463,0,8.081,3.618,8.081,8.081v24.244&#10;&#9;&#9;&#9;&#9;C203.472,173.589,199.853,177.207,195.39,177.207z"/>
			<path style="fill:#B3DAFE;" d="M268.122,177.207h-24.244c-4.463,0-8.081-3.618-8.081-8.081v-24.244&#10;&#9;&#9;&#9;&#9;c0-4.463,3.618-8.081,8.081-8.081h24.244c4.463,0,8.081,3.618,8.081,8.081v24.244&#10;&#9;&#9;&#9;&#9;C276.203,173.589,272.585,177.207,268.122,177.207z"/>
			<path style="fill:#B3DAFE;" d="M340.854,177.207H316.61c-4.463,0-8.081-3.618-8.081-8.081v-24.244&#10;&#9;&#9;&#9;&#9;c0-4.463,3.618-8.081,8.081-8.081h24.244c4.463,0,8.081,3.618,8.081,8.081v24.244&#10;&#9;&#9;&#9;&#9;C348.935,173.589,345.317,177.207,340.854,177.207z"/>
			<path style="fill:#B3DAFE;" d="M413.585,177.207h-24.244c-4.463,0-8.081-3.618-8.081-8.081v-24.244&#10;&#9;&#9;&#9;&#9;c0-4.463,3.618-8.081,8.081-8.081h24.244c4.463,0,8.081,3.618,8.081,8.081v24.244&#10;&#9;&#9;&#9;&#9;C421.667,173.589,418.049,177.207,413.585,177.207z"/>
			<path style="fill:#B3DAFE;" d="M122.659,249.939H98.415c-4.463,0-8.081-3.618-8.081-8.081v-24.244&#10;&#9;&#9;&#9;&#9;c0-4.463,3.618-8.081,8.081-8.081h24.244c4.463,0,8.081,3.618,8.081,8.081v24.244&#10;&#9;&#9;&#9;&#9;C130.74,246.321,127.122,249.939,122.659,249.939z"/>
			<path style="fill:#B3DAFE;" d="M195.39,249.939h-24.244c-4.463,0-8.081-3.618-8.081-8.081v-24.244&#10;&#9;&#9;&#9;&#9;c0-4.463,3.618-8.081,8.081-8.081h24.244c4.463,0,8.081,3.618,8.081,8.081v24.244&#10;&#9;&#9;&#9;&#9;C203.472,246.321,199.853,249.939,195.39,249.939z"/>
			<path style="fill:#B3DAFE;" d="M268.122,249.939h-24.244c-4.463,0-8.081-3.618-8.081-8.081v-24.244&#10;&#9;&#9;&#9;&#9;c0-4.463,3.618-8.081,8.081-8.081h24.244c4.463,0,8.081,3.618,8.081,8.081v24.244&#10;&#9;&#9;&#9;&#9;C276.203,246.321,272.585,249.939,268.122,249.939z"/>
			<path style="fill:#B3DAFE;" d="M340.854,249.939H316.61c-4.463,0-8.081-3.618-8.081-8.081v-24.244&#10;&#9;&#9;&#9;&#9;c0-4.463,3.618-8.081,8.081-8.081h24.244c4.463,0,8.081,3.618,8.081,8.081v24.244&#10;&#9;&#9;&#9;&#9;C348.935,246.321,345.317,249.939,340.854,249.939z"/>
			<path style="fill:#B3DAFE;" d="M381.26,217.614v24.244c0,4.463,3.618,8.081,8.081,8.081h24.244c4.463,0,8.081-3.618,8.081-8.081&#10;&#9;&#9;&#9;&#9;v-24.244c0-4.463-3.618-8.081-8.081-8.081h-24.244C384.878,209.533,381.26,213.151,381.26,217.614z"/>
		</g>
	</g>
	<g>
		<path style="fill:none;stroke:#000000;stroke-width:15;stroke-linecap:round;stroke-linejoin:round;stroke-miterlimit:10;" d="&#10;&#9;&#9;&#9;M256,72.15L256,72.15c-8.926,0-16.163-7.236-16.163-16.163V23.663c0-8.926,7.236-16.163,16.163-16.163h0&#10;&#9;&#9;&#9;c8.926,0,16.163,7.236,16.163,16.163v32.325C272.163,64.914,264.926,72.15,256,72.15z"/>
		<path style="fill:none;stroke:#000000;stroke-width:15;stroke-linecap:round;stroke-linejoin:round;stroke-miterlimit:10;" d="&#10;&#9;&#9;&#9;M320.65,72.15L320.65,72.15c-8.926,0-16.163-7.236-16.163-16.163V23.663c0-8.926,7.236-16.163,16.163-16.163h0&#10;&#9;&#9;&#9;c8.926,0,16.163,7.236,16.163,16.163v32.325C336.813,64.914,329.577,72.15,320.65,72.15z"/>
		<path style="fill:none;stroke:#000000;stroke-width:15;stroke-linecap:round;stroke-linejoin:round;stroke-miterlimit:10;" d="&#10;&#9;&#9;&#9;M385.301,72.15L385.301,72.15c-8.926,0-16.163-7.236-16.163-16.163V23.663c0-8.926,7.236-16.163,16.163-16.163h0&#10;&#9;&#9;&#9;c8.926,0,16.163,7.236,16.163,16.163v32.325C401.463,64.914,394.227,72.15,385.301,72.15z"/>
		<path style="fill:none;stroke:#000000;stroke-width:15;stroke-linecap:round;stroke-linejoin:round;stroke-miterlimit:10;" d="&#10;&#9;&#9;&#9;M191.35,72.15L191.35,72.15c8.926,0,16.163-7.236,16.163-16.163V23.663c0-8.926-7.236-16.163-16.163-16.163h0&#10;&#9;&#9;&#9;c-8.926,0-16.163,7.236-16.163,16.163v32.325C175.187,64.914,182.423,72.15,191.35,72.15z"/>
		<path style="fill:none;stroke:#000000;stroke-width:15;stroke-linecap:round;stroke-linejoin:round;stroke-miterlimit:10;" d="&#10;&#9;&#9;&#9;M126.699,72.15L126.699,72.15c8.926,0,16.163-7.236,16.163-16.163V23.663c0-8.926-7.236-16.163-16.163-16.163h0&#10;&#9;&#9;&#9;c-8.926,0-16.163,7.236-16.163,16.163v32.325C110.537,64.914,117.773,72.15,126.699,72.15z"/>
		
			<circle style="fill:none;stroke:#000000;stroke-width:15;stroke-linecap:round;stroke-linejoin:round;stroke-miterlimit:10;" cx="256" cy="393.382" r="80.813"/>
		<path style="fill:none;stroke:#000000;stroke-width:15;stroke-linecap:round;stroke-linejoin:round;stroke-miterlimit:10;" d="&#10;&#9;&#9;&#9;M352.13,449.15c9.53-16.39,14.99-35.45,14.99-55.77c0-61.37-49.75-111.12-111.12-111.12s-111.12,49.75-111.12,111.12&#10;&#9;&#9;&#9;S194.63,504.5,256,504.5c28.44,0,54.4-10.69,74.05-28.29"/>
		<g>
			
				<polyline style="fill:none;stroke:#000000;stroke-width:15;stroke-linecap:round;stroke-linejoin:round;stroke-miterlimit:10;" points="&#10;&#9;&#9;&#9;&#9;256,344.894 256,393.382 272.557,409.939 &#9;&#9;&#9;"/>
		</g>
		<path style="fill:none;stroke:#000000;stroke-width:15;stroke-linecap:round;stroke-linejoin:round;stroke-miterlimit:10;" d="&#10;&#9;&#9;&#9;M47.91,332.09v41.09c0,11.16,9.04,20.2,20.2,20.2h76.77"/>
		
			<line style="fill:none;stroke:#000000;stroke-width:15;stroke-linecap:round;stroke-linejoin:round;stroke-miterlimit:10;" x1="47.91" y1="297.09" x2="47.91" y2="104.48"/>
		
			<line style="fill:none;stroke:#000000;stroke-width:15;stroke-linecap:round;stroke-linejoin:round;stroke-miterlimit:10;" x1="464.09" y1="133.9" x2="464.09" y2="104.48"/>
		<path style="fill:none;stroke:#000000;stroke-width:15;stroke-linecap:round;stroke-linejoin:round;stroke-miterlimit:10;" d="&#10;&#9;&#9;&#9;M464.09,168.9v204.28c0,11.16-9.04,20.2-20.2,20.2h-76.77"/>
		
			<line style="fill:none;stroke:#000000;stroke-width:15;stroke-linecap:round;stroke-linejoin:round;stroke-miterlimit:10;" x1="175.187" y1="39.825" x2="142.862" y2="39.825"/>
		
			<line style="fill:none;stroke:#000000;stroke-width:15;stroke-linecap:round;stroke-linejoin:round;stroke-miterlimit:10;" x1="304.488" y1="39.825" x2="272.163" y2="39.825"/>
		<path style="fill:none;stroke:#000000;stroke-width:15;stroke-linecap:round;stroke-linejoin:round;stroke-miterlimit:10;" d="&#10;&#9;&#9;&#9;M401.463,39.825h42.427c11.162,0,20.203,9.041,20.203,20.203v44.447H47.907V60.028c0-11.162,9.041-20.203,20.203-20.203h42.427"/>
		
			<line style="fill:none;stroke:#000000;stroke-width:15;stroke-linecap:round;stroke-linejoin:round;stroke-miterlimit:10;" x1="369.138" y1="39.825" x2="336.813" y2="39.825"/>
		
			<line style="fill:none;stroke:#000000;stroke-width:15;stroke-linecap:round;stroke-linejoin:round;stroke-miterlimit:10;" x1="239.837" y1="39.825" x2="207.512" y2="39.825"/>
		<g>
			<path style="fill:none;stroke:#000000;stroke-width:15;stroke-linecap:round;stroke-linejoin:round;stroke-miterlimit:10;" d="&#10;&#9;&#9;&#9;&#9;M195.39,177.207h-24.244c-4.463,0-8.081-3.618-8.081-8.081v-24.244c0-4.463,3.618-8.081,8.081-8.081h24.244&#10;&#9;&#9;&#9;&#9;c4.463,0,8.081,3.618,8.081,8.081v24.244C203.472,173.589,199.853,177.207,195.39,177.207z"/>
			<path style="fill:none;stroke:#000000;stroke-width:15;stroke-linecap:round;stroke-linejoin:round;stroke-miterlimit:10;" d="&#10;&#9;&#9;&#9;&#9;M268.122,177.207h-24.244c-4.463,0-8.081-3.618-8.081-8.081v-24.244c0-4.463,3.618-8.081,8.081-8.081h24.244&#10;&#9;&#9;&#9;&#9;c4.463,0,8.081,3.618,8.081,8.081v24.244C276.203,173.589,272.585,177.207,268.122,177.207z"/>
			<path style="fill:none;stroke:#000000;stroke-width:15;stroke-linecap:round;stroke-linejoin:round;stroke-miterlimit:10;" d="&#10;&#9;&#9;&#9;&#9;M340.854,177.207H316.61c-4.463,0-8.081-3.618-8.081-8.081v-24.244c0-4.463,3.618-8.081,8.081-8.081h24.244&#10;&#9;&#9;&#9;&#9;c4.463,0,8.081,3.618,8.081,8.081v24.244C348.935,173.589,345.317,177.207,340.854,177.207z"/>
			<path style="fill:none;stroke:#000000;stroke-width:15;stroke-linecap:round;stroke-linejoin:round;stroke-miterlimit:10;" d="&#10;&#9;&#9;&#9;&#9;M413.585,177.207h-24.244c-4.463,0-8.081-3.618-8.081-8.081v-24.244c0-4.463,3.618-8.081,8.081-8.081h24.244&#10;&#9;&#9;&#9;&#9;c4.463,0,8.081,3.618,8.081,8.081v24.244C421.667,173.589,418.049,177.207,413.585,177.207z"/>
			<path style="fill:none;stroke:#000000;stroke-width:15;stroke-linecap:round;stroke-linejoin:round;stroke-miterlimit:10;" d="&#10;&#9;&#9;&#9;&#9;M122.659,249.939H98.415c-4.463,0-8.081-3.618-8.081-8.081v-24.244c0-4.463,3.618-8.081,8.081-8.081h24.244&#10;&#9;&#9;&#9;&#9;c4.463,0,8.081,3.618,8.081,8.081v24.244C130.74,246.321,127.122,249.939,122.659,249.939z"/>
			<path style="fill:none;stroke:#000000;stroke-width:15;stroke-linecap:round;stroke-linejoin:round;stroke-miterlimit:10;" d="&#10;&#9;&#9;&#9;&#9;M195.39,249.939h-24.244c-4.463,0-8.081-3.618-8.081-8.081v-24.244c0-4.463,3.618-8.081,8.081-8.081h24.244&#10;&#9;&#9;&#9;&#9;c4.463,0,8.081,3.618,8.081,8.081v24.244C203.472,246.321,199.853,249.939,195.39,249.939z"/>
			<path style="fill:none;stroke:#000000;stroke-width:15;stroke-linecap:round;stroke-linejoin:round;stroke-miterlimit:10;" d="&#10;&#9;&#9;&#9;&#9;M268.122,249.939h-24.244c-4.463,0-8.081-3.618-8.081-8.081v-24.244c0-4.463,3.618-8.081,8.081-8.081h24.244&#10;&#9;&#9;&#9;&#9;c4.463,0,8.081,3.618,8.081,8.081v24.244C276.203,246.321,272.585,249.939,268.122,249.939z"/>
			<path style="fill:none;stroke:#000000;stroke-width:15;stroke-linecap:round;stroke-linejoin:round;stroke-miterlimit:10;" d="&#10;&#9;&#9;&#9;&#9;M340.854,249.939H316.61c-4.463,0-8.081-3.618-8.081-8.081v-24.244c0-4.463,3.618-8.081,8.081-8.081h24.244&#10;&#9;&#9;&#9;&#9;c4.463,0,8.081,3.618,8.081,8.081v24.244C348.935,246.321,345.317,249.939,340.854,249.939z"/>
			<path style="fill:none;stroke:#000000;stroke-width:15;stroke-linecap:round;stroke-linejoin:round;stroke-miterlimit:10;" d="&#10;&#9;&#9;&#9;&#9;M381.26,217.614v24.244c0,4.463,3.618,8.081,8.081,8.081h24.244c4.463,0,8.081-3.618,8.081-8.081v-24.244&#10;&#9;&#9;&#9;&#9;c0-4.463-3.618-8.081-8.081-8.081h-24.244C384.878,209.533,381.26,213.151,381.26,217.614z"/>
		</g>
	</g>
</g>
<g>
</g>
<g>
</g>
<g>
</g>
<g>
</g>
<g>
</g>
<g>
</g>
<g>
</g>
<g>
</g>
<g>
</g>
<g>
</g>
<g>
</g>
<g>
</g>
<g>
</g>
<g>
</g>
<g>
</g>
</svg>