<svg id="Layer_1" enable-background="new 0 0 512 512" viewBox="0 0 512 512" xmlns="http://www.w3.org/2000/svg"><g><path d="m57.242 410.255 89.758 15.687 46.284 77.943c20.019 5.286 41.036 8.115 62.716 8.115 64.126 0 122.488-24.648 166.157-64.972l-.06-54.457 46.996-4.608c20.303-35.689 31.909-76.97 31.909-120.965 0-135.311-109.691-245.002-245.002-245.002s-245.002 109.691-245.002 245.002c0 53.49 17.154 102.968 46.244 143.257z" fill="#7d62ee"/><path d="m212.556 0h-175.57c-17.318 0-31.487 14.169-31.487 31.487v91.93c0 17.318 14.169 31.487 31.487 31.487h191.741l59.008-82.822z" fill="#fc51a3"/><path d="m395.168 0h-182.612c-5.763 9.498-15.642 31.728 6.111 47.083 0 0-15.667 17.739 6.667 30.369 22.333 12.631 26.667 22.297 0 29.964 0 0-22.083 21.75.333 44.167 1.132 1.132 2.146 2.239 3.06 3.322h171.398l50.375-77.452z" fill="#ff6eae"/><path d="m475.013 0h-79.846c-6.523 8.496-16.708 27.437 4.026 45.083 0 0-6.179 10.405-6.179 32.369s2.215 29.964 2.215 29.964-15.771 20.018 0 41.509c1.462 1.992 3.111 3.991 4.896 5.979h74.888c17.318 0 31.487-14.169 31.487-31.487v-91.93c.001-17.318-14.168-31.487-31.487-31.487z" fill="#ffa7ca"/><g fill="#e8f8fc"><path d="m370.441 41.047c-3.866 0-7 3.134-7 7v58.811c0 3.866 3.134 7 7 7s7-3.134 7-7v-58.811c0-3.866-3.133-7-7-7z"/><path d="m468.912 99.59h-17.556v-15.137h15.745c3.866 0 7-3.134 7-7s-3.134-7-7-7h-15.745v-15.139h17.556c3.866 0 7-3.134 7-7s-3.134-7-7-7h-24.556c-3.866 0-7 3.134-7 7v58.275c0 3.866 3.134 7 7 7h24.556c3.866 0 7-3.134 7-7 0-3.865-3.134-6.999-7-6.999z"/><path d="m425.201 72.998c2.195-3.267 3.479-7.196 3.479-11.419 0-11.321-9.211-20.532-20.532-20.532h-17.084c-3.866 0-7 3.134-7 7v58.811c0 3.867 3.138 7 7 7h.031s15.707-.069 20.036-.069c12.589 0 22.83-10.242 22.83-22.831 0-7.284-3.433-13.776-8.76-17.96zm-17.054-17.951c3.602 0 6.532 2.931 6.532 6.532 0 3.603-2.931 6.533-6.532 6.533-.192 0-.373-.001-10.084.016v-13.081zm2.984 44.742c-2.4 0-8.282.021-13.067.04v-17.686c7.176-.028 4.039-.007 13.067-.015 4.869 0 8.83 3.961 8.83 8.83s-3.961 8.831-8.83 8.831z"/><path d="m191.953 72.998c2.195-3.267 3.479-7.196 3.479-11.419 0-11.321-9.211-20.532-20.533-20.532h-17.083c-3.866 0-7 3.134-7 7v58.811c0 3.884 3.154 7 7 7h.031c.001 0 15.707-.069 20.036-.069 12.589 0 22.831-10.242 22.831-22.831-.001-7.284-3.433-13.776-8.761-17.96zm-17.054-17.951c3.602 0 6.533 2.931 6.533 6.532 0 3.603-2.931 6.533-6.533 6.533-.191 0-.373-.001-10.083.016v-13.081zm2.984 44.742c-2.399 0-8.282.021-13.067.04v-17.686c7.176-.028 4.039-.007 13.067-.015 4.869 0 8.831 3.961 8.831 8.83s-3.962 8.831-8.831 8.831z"/><path d="m297.796 95.793c-3.028 2.697-6.892 4.065-11.482 4.065-12.354 0-22.406-10.052-22.406-22.406s10.052-22.405 22.406-22.405c3.939 0 7.809 1.034 11.192 2.989 3.349 1.937 7.63.788 9.563-2.558 1.935-3.348.789-7.629-2.558-9.563-5.511-3.185-11.804-4.868-18.198-4.868-20.074 0-36.406 16.331-36.406 36.405 0 2.6.279 5.136.8 7.583-2.14-5.317-6.975-10.434-15.792-13.687-7.283-2.687-14.059-5.613-16.076-6.496-1.779-1.399-1.721-3.365-1.604-4.182.159-1.104.956-3.803 4.924-4.998 8.465-2.55 16.275 3.619 16.508 3.806 2.958 2.459 7.351 2.068 9.829-.882 2.488-2.959 2.105-7.375-.854-9.862-.549-.461-13.633-11.252-29.521-6.466-7.986 2.405-13.636 8.694-14.745 16.413-1.207 8.409 3.626 16.222 9.153 18.69.34.151 8.429 3.752 17.539 7.112 2.662.981 8.763 3.766 7.936 8.398-.612 3.43-4.753 6.977-10.62 6.977-5.943 0-11.665-2.399-15.308-6.418-2.597-2.866-7.023-3.083-9.888-.486-2.865 2.596-3.083 7.022-.486 9.887 6.252 6.899 15.852 11.018 25.682 11.018 12.224 0 22.486-7.787 24.402-18.516.349-1.956.394-4.059.057-6.199 4.883 14.354 18.484 24.714 34.469 24.714 8.015 0 15.205-2.632 20.795-7.612 2.887-2.571 3.142-6.996.57-9.883-2.57-2.886-6.995-3.141-9.881-.57z"/><path d="m71.112 71.349c-7.283-2.687-14.059-5.613-16.076-6.496-1.779-1.399-1.721-3.365-1.604-4.182.159-1.104.956-3.803 4.924-4.998 8.466-2.55 16.275 3.619 16.508 3.806 2.958 2.459 7.351 2.068 9.829-.882 2.488-2.959 2.105-7.375-.854-9.862-.549-.461-13.635-11.252-29.521-6.466-7.986 2.405-13.636 8.694-14.745 16.413-1.207 8.409 3.626 16.222 9.153 18.69.34.151 8.429 3.752 17.539 7.112 2.662.981 8.763 3.766 7.935 8.398-.612 3.43-4.752 6.977-10.62 6.977-5.943 0-11.666-2.399-15.308-6.418-2.597-2.866-7.022-3.083-9.888-.486-2.865 2.596-3.083 7.022-.486 9.887 6.252 6.899 15.853 11.018 25.682 11.018 12.224 0 22.486-7.787 24.402-18.516 1.442-8.061-2.234-18.597-16.87-23.995z"/><path d="m139.29 41.047c-3.866 0-7 3.134-7 7v40.427c0 2.918-.822 6.682-7.232 9.91-1.979.996-4.077 1.489-6.558 1.475-2.665-.004-4.981-.657-7.081-1.998-4.976-3.18-5.996-6.035-5.996-9.345v-40.469c0-3.866-3.134-7-7-7s-7 3.134-7 7v40.469c0 8.87 4.075 15.786 12.458 21.143 8.367 5.345 19.185 5.403 27.473 1.229 12.344-6.216 14.936-15.62 14.936-22.414v-40.427c0-3.866-3.134-7-7-7z"/><path d="m358.521 63.331c0-12.287-10.385-22.284-23.149-22.284h-15.629c-.003 0-.006 0-.009 0s-.006 0-.009 0c-3.866 0-7 3.134-7 7v58.811c0 3.866 3.134 7 7 7s7-3.134 7-7v-17.578l19.542 22.203c2.558 2.906 6.981 3.18 9.88.63 2.902-2.555 3.184-6.978.63-9.88l-15.318-17.404c9.82-2.579 17.062-11.237 17.062-21.498zm-23.149 8.285c-1.993 0-5.425.015-8.56.029-.043-8.398-.018-5.786-.048-16.599h8.607c4.96 0 9.149 3.794 9.149 8.284.001 4.492-4.188 8.286-9.148 8.286z"/></g><path d="m181 326.417-75.009 10.541-.002-.002-.015.005c1.035 8.005-.317 16.297-4.052 23.735l-4.06 8.085 53.471 57.161h60.627l10.183-23.043c3.274-7.408 8.111-13.998 14.073-19.48z" fill="#ffc7ab"/><g><path d="m409.285 182.449-56.987-45.206c-11.568 2.982-22.517 8.987-31.575 18.046-27.009 27.009-27.009 70.799 0 97.808 24.683 24.683 63.374 26.794 90.471 6.362z" fill="#ffc242"/><path d="m363.37 154.457 9.502 49.735s19.518 7.962 17.72 30.048c0 0-4.559 25.207 20.601 25.219 2.553-1.925 5.011-4.036 7.337-6.362 27.009-27.009 27.009-70.799 0-97.808-17.951-17.951-43.31-23.955-66.233-18.046-.077.278-4.456 16.28 11.073 17.214z" fill="#fef156"/><g><g><path d="m349.395 247.288c-3.766-1.98-5.215-6.638-3.235-10.405 1.981-3.767 6.639-5.212 10.404-3.234 5.969 3.139 8.286 3.282 15.598 2.534 7.432-.76 11.217-6.717 11.589-11.93.183-2.567-.242-8.749-8.121-10.714l-15.655-3.722c-12.818-3.197-20.76-13.951-19.845-26.782.842-11.795 9.833-24.57 25.39-26.162 9.624-.985 15.132-.615 24.337 4.223 3.766 1.98 5.214 6.639 3.234 10.405-1.981 3.767-6.639 5.213-10.405 3.234-5.969-3.14-8.286-3.284-15.598-2.534-7.432.761-11.217 6.717-11.589 11.93-.183 2.566.241 8.749 8.121 10.714l15.656 3.722c12.818 3.197 20.76 13.951 19.844 26.782-.841 11.795-9.833 24.57-25.39 26.162-9.811 1.004-15.257.549-24.335-4.223z" fill="#fc753f"/></g><g><path d="m369.627 259.459c-4.255 0-7.704-3.449-7.704-7.704v-95.125c0-4.255 3.449-7.704 7.704-7.704s7.704 3.449 7.704 7.704v95.125c0 4.255-3.45 7.704-7.704 7.704z" fill="#fd8d3e"/></g></g></g><path d="m423.459 343.372-69.864-12.992c-8.829 8.047-15.698 18.476-19.467 30.72-11.238 36.506 9.246 75.21 45.752 86.448 14.357 4.42 29.047 3.92 42.276-.52 10.906-10.07 20.883-21.126 29.818-33.011z" fill="#ffc242"/><path d="m420.577 315.348c-24.262-7.469-49.485-.914-66.981 15.032.062.282 3.676 16.474 17.839 10.035l31.663 39.513s20.975-2.092 29.718 18.269c0 0 5.174 16.254 19.168 15.84 6.235-8.298 11.952-17.007 17.11-26.074 3.058-31.983-16.607-62.792-48.517-72.615z" fill="#fef156"/><g><g><path d="m402.506 429.001c-4.255.012-7.714-3.428-7.726-7.683-.011-4.256 3.429-7.712 7.683-7.725 6.744-.018 8.859-.975 14.972-5.057 6.213-4.148 6.772-11.184 4.663-15.965-1.039-2.355-4.306-7.619-12.19-5.671l-15.578 4.034c-12.825 3.17-24.874-2.62-30.067-14.388-4.774-10.819-2.802-26.316 10.203-35 8.045-5.372 13.087-7.622 23.486-7.652 4.255-.011 7.714 3.429 7.726 7.684.011 4.256-3.43 7.713-7.684 7.726-6.745.017-8.86.973-14.971 5.056-6.213 4.149-6.772 11.184-4.662 15.965 1.039 2.354 4.306 7.62 12.19 5.671l15.578-4.034c12.825-3.17 24.874 2.62 30.067 14.388 4.774 10.819 2.802 26.315-10.203 35-8.204 5.478-13.231 7.623-23.487 7.651z" fill="#fc753f"/></g><g><path d="m426.081 430.295c-3.761 1.99-8.423.556-10.413-3.206l-44.496-84.076c-1.991-3.761-.555-8.423 3.206-10.413s8.423-.556 10.413 3.206l44.496 84.076c1.99 3.761.555 8.423-3.206 10.413z" fill="#fd8d3e"/></g></g><path d="m288.385 260.91c-9.142-5.557-20.897-1.722-25.194 7.729l3.589-7.896c3.714-8.171 1.027-18.05-6.643-22.712-9.142-5.557-20.897-1.722-25.194 7.73 4.004-8.808.073-19.29-8.735-23.294-7.626-3.466-16.499-.977-21.344 5.467l29.63-69.77c3.378-8.72-.416-18.82-8.968-22.605-9.131-4.041-19.679.396-23.245 9.599l-51.395 109.332c-3.52 9.087-16.58 8.386-19.137-1.018-2.226-8.188-4.359-17.334-5.934-26.815-2.304-13.868-11.503-19.845-21.241-22.152-11.482-2.721-21.471 8.002-18.031 19.29 1.609 5.28 9.489 29.261 9.258 35.274-.613 15.986-9.779 39.542 4.335 61.692 3.174 4.981 5.102 10.518 5.837 16.198l.015-.005s54.777 59.132 130.227 46.464c26.269-24.154 40.473-59.456 40.473-59.456l18.338-40.341c3.715-8.17 1.028-18.049-6.641-22.711z" fill="#ffdaca"/><path d="m158.137 398.977-65.34-32.735c-5.937-2.974-13.229-.55-16.203 5.387l-19.351 38.626c17.855 24.729 40.218 45.98 65.873 62.577l37.283-24.329z" fill="#27a6ff"/><path d="m217.45 428.692-59.313-29.715c-.001.001-47.859 27.024-35.022 73.856 21.339 13.805 44.953 24.393 70.17 31.052l29.553-58.989c2.973-5.938.549-13.229-5.388-16.204z" fill="#02c0fc"/></g><g/><g/><g/><g/><g/><g/><g/><g/><g/><g/><g/><g/><g/><g/><g/></svg>