<svg height="512" viewBox="0 0 32 32" width="512" xmlns="http://www.w3.org/2000/svg"><g id="Ikon"><path d="m30 16a2.04127 2.04127 0 0 0 -.75977-1.5918l-1.80322-1.502.82569-2.14844a2.059 2.059 0 0 0 -1.5918-2.75576l-2.313-.39941-.35936-2.27349a2.05916 2.05916 0 0 0 -2.75635-1.5918l-2.20264.81153-1.44775-1.78906a2.10978 2.10978 0 0 0 -3.1836 0l-1.502 1.80273-2.1479-.8252a2.05919 2.05919 0 0 0 -2.75684 1.5918l-.39892 2.31348-2.27246.35842a2.06013 2.06013 0 0 0 -1.59278 2.75681l.81153 2.20313-1.79 1.44726a2.06034 2.06034 0 0 0 .001 3.1836l1.80322 1.502-.82575 2.14839a2.0591 2.0591 0 0 0 1.5918 2.75586l2.313.39941.35937 2.27344a2.05979 2.05979 0 0 0 2.75635 1.5918l2.20264-.81153 1.44775 1.78906a2.05914 2.05914 0 0 0 3.1836 0l1.502-1.80273 2.148.8252a2.05943 2.05943 0 0 0 2.75684-1.5918l.39892-2.31348 2.27246-.3584a2.06015 2.06015 0 0 0 1.59278-2.75683l-.81153-2.20313 1.79-1.44726a2.04339 2.04339 0 0 0 .75872-1.5918z" fill="#1976d2"/><path d="m14.11963 20.71582a2.97305 2.97305 0 0 1 -1.7915-.59473l-2.42823-1.82129a.9999.9999 0 1 1 1.2002-1.5996l2.42773 1.82128a1.00693 1.00693 0 0 0 1.38965-.18652l5.793-7.44922a1.00035 1.00035 0 0 1 1.5791 1.22852l-5.79346 7.44922a3.00752 3.00752 0 0 1 -2.37649 1.15234z" fill="#f5f5f5"/></g></svg>