<?xml version="1.0" encoding="iso-8859-1"?>
<!-- Generator: Adobe Illustrator 26.5.3, SVG Export Plug-In . SVG Version: 6.00 Build 0)  -->
<svg version="1.1" id="Capa_1" xmlns="http://www.w3.org/2000/svg" xmlns:xlink="http://www.w3.org/1999/xlink" x="0px" y="0px"
	 viewBox="0 0 512 512" style="enable-background:new 0 0 512 512;" xml:space="preserve">
<g>
	<g>
		<g>
			
				<rect x="327.883" y="284.625" transform="matrix(0.9007 -0.4343 0.4343 0.9007 -89.6133 199.0955)" style="fill:#33CCCC;" width="125.881" height="22"/>
		</g>
		<g>
			
				<rect x="154.294" y="110.748" transform="matrix(0.4317 -0.902 0.902 0.4317 13.153 264.3738)" style="fill:#33CCCC;" width="124.203" height="22"/>
		</g>
		<g>
			
				<rect x="284.216" y="57.486" transform="matrix(0.8698 -0.4933 0.4933 0.8698 -15.0722 159.7489)" style="fill:#33CCCC;" width="22" height="101.907"/>
		</g>
		<g>
			
				<rect x="347.893" y="129.036" transform="matrix(0.7078 -0.7064 0.7064 0.7078 9.7324 303.6018)" style="fill:#33CCCC;" width="47.981" height="22"/>
		</g>
		<g>
			
				<rect x="129.118" y="119.196" transform="matrix(0.8042 -0.5944 0.5944 0.8042 -63.7253 113.3197)" style="fill:#33CCCC;" width="21.999" height="68.353"/>
		</g>
		<g>
			
				<rect x="63.136" y="218.645" transform="matrix(0.9346 -0.3558 0.3558 0.9346 -74.6313 53.4773)" style="fill:#33CCCC;" width="89.882" height="22"/>
		</g>
		<g>
			
				<rect x="58.952" y="295.457" transform="matrix(0.3401 -0.9404 0.9404 0.3401 -195.9339 333.6956)" style="fill:#33CCCC;" width="161.7" height="22"/>
		</g>
		<g>
			
				<rect x="124.316" y="361.09" transform="matrix(0.9397 -0.3419 0.3419 0.9397 -114.8601 92.5967)" style="fill:#33CCCC;" width="161.794" height="22"/>
		</g>
		<g>
			
				<rect x="236.916" y="392.639" transform="matrix(0.3532 -0.9356 0.9356 0.3532 -195.1042 525.0847)" style="fill:#33CCCC;" width="90.531" height="22"/>
		</g>
		<g>
			
				<rect x="347.353" y="337.697" transform="matrix(0.5946 -0.804 0.804 0.5946 -153.5465 438.8075)" style="fill:#33CCCC;" width="22.001" height="67.931"/>
		</g>
		<g>
			
				<rect x="392.572" y="165.565" transform="matrix(0.4933 -0.8698 0.8698 0.4933 15.9694 460.8551)" style="fill:#33CCCC;" width="22" height="102.309"/>
		</g>
		<g>
			
				<rect x="204.81" y="179.035" transform="matrix(0.9857 -0.1684 0.1684 0.9857 -28.3488 45.8205)" style="fill:#33CCCC;" width="102.284" height="22"/>
		</g>
		<g>
			
				<rect x="270.482" y="245.038" transform="matrix(0.1684 -0.9857 0.9857 0.1684 15.2045 530.0988)" style="fill:#33CCCC;" width="102.59" height="22"/>
		</g>
		<g>
			
				<rect x="231.232" y="205.396" transform="matrix(0.7071 -0.7071 0.7071 0.7071 -119.6082 250.2148)" style="fill:#33CCCC;" width="22" height="128.182"/>
		</g>
	</g>
	<g>
		<path d="M480.63,217.751c-5.694-33.621-18.961-65.661-38.732-93.542c4.258-6.355,6.545-13.826,6.545-21.648
			c0-10.418-4.057-20.213-11.424-27.58s-17.162-11.424-27.58-11.424c-7.809,0-15.267,2.279-21.615,6.522
			c-27.889-19.821-59.949-33.127-93.601-38.848C290.611,13.436,274.846,0,256,0c-18.825,0-34.578,13.406-38.214,31.173
			c-33.711,5.678-65.836,18.971-93.782,38.798c-6.311-4.171-13.705-6.414-21.444-6.414c-10.418,0-20.213,4.057-27.58,11.424
			c-13.288,13.289-14.963,33.857-5.029,48.984c-19.881,27.958-33.213,60.108-38.918,93.853C13.336,221.507,0,237.224,0,256
			s13.336,34.493,31.033,38.182c5.705,33.745,19.036,65.891,38.916,93.848c-4.157,6.304-6.392,13.684-6.392,21.409
			c0,10.418,4.057,20.213,11.424,27.58s17.162,11.424,27.58,11.424c7.739,0,15.132-2.243,21.443-6.414
			c27.948,19.83,60.07,33.118,93.782,38.796C221.421,498.593,237.174,512,256,512c18.846,0,34.612-13.437,38.224-31.232
			c33.643-5.72,65.718-19.023,93.605-38.844c6.347,4.241,13.804,6.52,21.61,6.52c10.418,0,20.213-4.057,27.58-11.424
			c13.357-13.357,14.978-34.07,4.871-49.218c19.775-27.882,33.046-59.929,38.74-93.553C498.494,290.689,512,274.894,512,256
			C512,237.105,498.494,221.311,480.63,217.751z M397.416,90.537c3.211-3.212,7.481-4.98,12.023-4.98s8.812,1.769,12.023,4.98
			s4.98,7.481,4.98,12.023s-1.769,8.812-4.98,12.023c0,0,0,0,0,0c-3.211,3.212-7.481,4.98-12.023,4.98s-8.812-1.769-12.024-4.98
			c-3.211-3.212-4.98-7.481-4.98-12.023S394.204,93.749,397.416,90.537z M256,22c9.376,0,17.004,7.628,17.004,17.004
			S265.376,56.008,256,56.008s-17.004-7.628-17.004-17.004S246.624,22,256,22z M90.537,90.537c3.211-3.212,7.482-4.98,12.023-4.98
			c4.542,0,8.812,1.769,12.023,4.98c6.63,6.63,6.63,17.417,0,24.047c-3.211,3.212-7.481,4.98-12.023,4.98
			c-4.542,0-8.812-1.769-12.023-4.98C83.908,107.954,83.908,97.167,90.537,90.537z M39.004,273.004
			C29.628,273.004,22,265.376,22,256s7.628-17.004,17.004-17.004S56.008,246.624,56.008,256S48.38,273.004,39.004,273.004z
			 M114.584,421.463c-3.211,3.212-7.481,4.98-12.023,4.98s-8.812-1.769-12.023-4.98s-4.98-7.481-4.98-12.023
			s1.769-8.812,4.98-12.023c3.211-3.212,7.481-4.98,12.023-4.98s8.812,1.769,12.024,4.98c3.211,3.212,4.98,7.481,4.98,12.023
			S117.796,418.251,114.584,421.463z M256,490c-9.376,0-17.004-7.628-17.004-17.004s7.628-17.004,17.004-17.004
			s17.004,7.628,17.004,17.004S265.376,490,256,490z M421.463,421.463c-3.211,3.212-7.482,4.98-12.023,4.98
			c-4.542,0-8.812-1.769-12.023-4.98c-6.63-6.63-6.63-17.417,0-24.047c3.211-3.212,7.481-4.98,12.023-4.98
			c4.542,0,8.812,1.769,12.023,4.98C428.092,404.046,428.092,414.833,421.463,421.463z M424.934,373.633
			c-4.828-2.09-10.075-3.198-15.495-3.198c-10.418,0-20.213,4.057-27.58,11.424c-11.634,11.635-14.357,28.848-8.19,43.105
			c-24.371,17.017-52.193,28.562-81.372,33.787c-5.703-14.479-19.818-24.759-36.298-24.759c-16.501,0-30.631,10.305-36.32,24.813
			c-29.19-5.181-57.011-16.685-81.406-33.663c2.15-4.886,3.29-10.205,3.29-15.703c0-10.419-4.057-20.214-11.424-27.58
			c-7.367-7.367-17.162-11.424-27.58-11.424c-5.512,0-10.845,1.146-15.741,3.307c-17.004-24.378-28.539-52.187-33.75-81.373
			c14.574-5.656,24.938-19.821,24.938-36.369s-10.364-30.713-24.939-36.369c5.211-29.185,16.746-56.996,33.75-81.374
			c4.896,2.161,10.229,3.307,15.741,3.307c10.418,0,20.213-4.057,27.58-11.424c11.68-11.68,14.378-28.982,8.117-43.272
			c24.397-16.982,52.225-28.494,81.422-33.676c5.688,14.509,19.819,24.815,36.32,24.815c16.481,0,30.596-10.28,36.299-24.76
			c29.18,5.225,56.983,16.769,81.351,33.781c-2.101,4.838-3.214,10.098-3.214,15.531c0,10.419,4.057,20.214,11.424,27.58
			c7.367,7.367,17.162,11.424,27.58,11.424c5.42,0,10.667-1.107,15.495-3.198c16.984,24.384,28.5,52.201,33.694,81.383
			c-14.415,5.734-24.636,19.816-24.636,36.25c0,16.434,10.221,30.516,24.636,36.25C453.435,321.432,441.918,349.25,424.934,373.633z
			 M472.996,273.004c-9.376,0-17.004-7.628-17.004-17.004s7.628-17.004,17.004-17.004S490,246.624,490,256
			S482.372,273.004,472.996,273.004z"/>
		<path d="M334.367,138.468c-10.418,0-20.213,4.057-27.58,11.424c-7.367,7.366-11.425,17.161-11.425,27.58
			c0,10.418,4.058,20.213,11.425,27.58c7.604,7.604,17.592,11.405,27.58,11.405s19.976-3.802,27.58-11.405c0,0,0,0,0,0
			c7.367-7.367,11.424-17.162,11.424-27.58c0-10.419-4.057-20.214-11.424-27.58C354.58,142.524,344.785,138.468,334.367,138.468z
			 M346.391,189.495c-6.631,6.63-17.418,6.629-24.047,0c-3.212-3.212-4.981-7.481-4.981-12.023s1.769-8.812,4.981-12.023
			c3.211-3.212,7.481-4.98,12.023-4.98s8.812,1.769,12.024,4.98c3.211,3.211,4.98,7.481,4.98,12.023
			S349.602,186.283,346.391,189.495z"/>
		<path d="M149.498,175.799c-7.367,7.366-11.424,17.161-11.424,27.58c0,10.418,4.057,20.213,11.424,27.58
			c7.604,7.604,17.592,11.405,27.58,11.405c9.988,0,19.976-3.802,27.58-11.405h0c7.367-7.367,11.424-17.162,11.424-27.58
			c0-10.419-4.057-20.214-11.424-27.58C189.45,160.592,164.705,160.592,149.498,175.799z M189.102,215.402
			c-6.631,6.63-17.419,6.629-24.048,0c-3.211-3.212-4.98-7.481-4.98-12.023s1.769-8.812,4.98-12.023
			c3.315-3.315,7.669-4.973,12.023-4.973s8.709,1.657,12.024,4.973c3.211,3.211,4.98,7.481,4.98,12.023
			S192.313,212.19,189.102,215.402L189.102,215.402z"/>
		<path d="M280.66,307.024c-7.367,7.366-11.424,17.161-11.424,27.58c0,10.418,4.057,20.213,11.424,27.58
			c7.604,7.604,17.592,11.405,27.58,11.405c9.988,0,19.976-3.802,27.58-11.405h0c7.367-7.367,11.424-17.162,11.424-27.58
			c0-10.419-4.057-20.214-11.424-27.58C320.613,291.818,295.868,291.816,280.66,307.024z M320.264,346.628
			c-6.631,6.63-17.419,6.63-24.048,0c-3.211-3.212-4.98-7.481-4.98-12.023s1.769-8.812,4.98-12.023
			c3.315-3.315,7.669-4.973,12.023-4.973s8.709,1.657,12.024,4.973c3.211,3.211,4.98,7.481,4.98,12.023
			S323.475,343.416,320.264,346.628z"/>
	</g>
</g>
<g>
</g>
<g>
</g>
<g>
</g>
<g>
</g>
<g>
</g>
<g>
</g>
<g>
</g>
<g>
</g>
<g>
</g>
<g>
</g>
<g>
</g>
<g>
</g>
<g>
</g>
<g>
</g>
<g>
</g>
</svg>
