<svg id="Layer_1" enable-background="new 0 0 500 500" viewBox="0 0 500 500" xmlns="http://www.w3.org/2000/svg"><g clip-rule="evenodd" fill-rule="evenodd"><circle cx="250" cy="250" fill="#60b7fe" r="120.274"/><ellipse cx="250" cy="250" fill="#ffbf31" rx="93.959" ry="93.959" transform="matrix(.707 -.707 .707 .707 -103.553 250)"/><path d="m286.049 208.685c3.049 1.439 4.354 5.077 2.916 8.126-1.439 3.049-5.077 4.354-8.126 2.916-9.697-4.592-19.911-6.544-31.27-6.811-4.881-.115-11.076 1.31-15.519 3.156l.003.007c-3.783 1.566-6.594 3.464-8.435 5.693-1.576 1.907-2.449 4.149-2.622 6.725.132 2.242.965 4.29 2.497 6.145 1.86 2.25 4.728 4.283 8.605 6.097l.002-.006c12.302 5.166 22.064 1.053 37.007 7.257 5.353 2.222 10.266 5.928 13.169 9.46 3.309 4.026 5.106 8.628 5.429 13.788.016.266.014.529-.004.788h.004c-.788 10.994-8.183 18.808-18.575 23.15l.001.003c-4.819 2.034-9.751 3.269-15.013 3.798v7.454c0 3.379-2.739 6.118-6.118 6.118s-6.118-2.739-6.118-6.118v-7.407c-10.454-.78-20.347-3.292-30.002-7.661-3.075-1.386-4.445-5.002-3.059-8.078 1.386-3.075 5.002-4.445 8.078-3.059 13.553 6.132 33.006 9.839 47.501 3.72l.001.003c3.769-1.642 6.561-3.589 8.402-5.831 1.549-1.885 2.437-4.08 2.682-6.574-.224-2.37-1.093-4.49-2.624-6.353-1.646-2.003-4.911-4.485-8.437-5.923-12.835-5.233-22.331-1.074-37.054-7.257l.004-.01c-5.582-2.444-10.338-5.99-13.296-9.57-7.106-8.599-6.927-19.917.125-28.452 3.105-3.758 7.509-6.819 13.215-9.181l.002.005c4.624-1.993 9.417-3.185 14.463-3.73v-7.504c0-3.379 2.739-6.118 6.118-6.118s6.118 2.739 6.118 6.118v7.449c10.733.848 20.683 3.273 29.93 7.667z" fill="#847784"/><g fill="#19cfba"><path d="m410.06 388.367c-2.692-2.019-3.238-5.839-1.219-8.532s5.839-3.238 8.532-1.219l32.058 24.043c3.336 2.502 3.16 7.434-.104 9.829l-31.954 23.965c-2.692 2.019-6.512 1.474-8.532-1.219s-1.474-6.512 1.219-8.532l15.875-11.906h-303.379c-20.581 0-37.353-16.772-37.353-37.353v-208.557c0-3.379 2.739-6.118 6.118-6.118s6.118 2.739 6.118 6.118v208.558c0 13.826 11.291 25.117 25.117 25.117h306.429z"/><path d="m414.797 331.114c0 3.379-2.739 6.118-6.118 6.118s-6.118-2.739-6.118-6.118v-208.558c0-13.826-11.291-25.117-25.117-25.117h-306.429l18.925 14.194c2.692 2.019 3.238 5.839 1.219 8.532-2.019 2.692-5.839 3.238-8.532 1.219l-32.058-24.044c-3.335-2.501-3.16-7.434.104-9.829l31.954-23.965c2.692-2.019 6.512-1.474 8.532 1.219 2.019 2.692 1.474 6.512-1.219 8.532l-15.875 11.906h303.379c20.581 0 37.353 16.772 37.353 37.353z"/></g></g></svg>