<svg viewBox="0 0 32 32" xmlns="http://www.w3.org/2000/svg"><g id="Color"><path d="m19 2v12.3200073c-.6500244-.1400146-1.3200073-.2400513-2-.2800293v-4.039978h-2v4.039978c-.6799927.039978-1.3499756.1400146-2 .2800293v-12.3200073z" fill="#ffc943"/><g fill="#43b3ff"><path d="m13 6v8.3200073c-.6900024.1499634-1.3599854.3599854-2 .6099854v-2.9299927h-2v3.8800049c-.5800171.3299561-1.1300049.6999512-1.6500244 1.1199951h-.3499756v-11z"/><path d="m25 6v11h-.3499756c-.5200195-.4200439-1.0700073-.7900391-1.6500244-1.1199951v-3.8800049h-2v2.9299927c-.6400146-.25-1.3099976-.460022-2-.6099854v-8.3200073z"/><path d="m17 10v4.039978c-.3300171-.0299683-.6599731-.039978-1-.039978s-.6699829.0100098-1 .039978v-4.039978z"/></g><path d="m11 12v2.9299927c-.7000122.2600098-1.3599854.5800171-2 .9500122v-3.8800049z" fill="#ffc943"/><path d="m23 12v3.8800049c-.6400146-.3699951-1.2999878-.6900024-2-.9500122v-2.9299927z" fill="#ffc943"/><path d="m18.0499878 27.3599854-.2999878-.2999878c.1699829.289978.25.6199951.25.9400024 0 .5100098-.2000122 1.0199585-.5900269 1.4099731-.7799683.7900391-2.039978.7900391-2.8199463 0-.3900146-.3900146-.5900269-.8999634-.5900269-1.4099731s.2000122-1.0200195.5900269-1.4100342c.6399536-.6499634 1.5999756-.7600098 2.3499756-.3399658l-.2999878-.2999878 3.5999756-2.1900024z" fill="#f45151"/><path d="m30 28h-12c0-.3200073-.0800171-.6500244-.25-.9400024l.2999878.2999878 2.1900024-3.5999756-3.5999756 2.1900024.2999878.2999878c-.75-.4200439-1.710022-.3099976-2.3499756.3399658-.3900146.3900146-.5900269.9000244-.5900269 1.4100342h-11.9999999c0-4.460022 2.0900269-8.4400024 5.3499756-11 .5200195-.4200439 1.0700073-.7900391 1.6500244-1.1199951.6400146-.3699951 1.2999878-.6900024 2-.9500122.6400146-.25 1.3099976-.460022 2-.6099854.6500244-.1400146 1.3200073-.2400513 2-.2800293.3300171-.0299683.6599731-.039978 1-.039978s.6699829.0100098 1 .039978c.6799927.039978 1.3499756.1400146 2 .2800293.6900024.1499634 1.3599854.3599854 2 .6099854.7000122.2600098 1.3599854.5800171 2 .9500122.5800171.3299561 1.1300049.6999512 1.6500244 1.1199951 3.2599487 2.5599976 5.3499756 6.539978 5.3499756 11z" fill="#f2f2f2"/></g><g id="Line"><path d="m13.5 28c0 .6679688.2602539 1.2958984.7324219 1.7675781.4716797.472168 1.0996094.7324219 1.7675781.7324219s1.2954102-.2602539 1.7675781-.7324219.7324219-1.0996094.7324219-1.7675781c0-.1235962-.0180664-.2438354-.0355835-.3639526.0036011-.0054932.0101929-.0073242.0136108-.0130005l2.1918945-3.605957c.1196289-.1972656.0893555-.4501953-.0737305-.6132812s-.4155273-.1923828-.6132812-.0737305l-3.605957 2.1918945c-.0145874.0089111-.0227661.0233154-.0361328.0333862-.7557373-.0979004-1.5535278.1216431-2.1083984.677063-.472168.4716797-.7324219 1.0996094-.7324219 1.7675781zm5.2504883-2.7504883-.7612305 1.2523193c-.0699463-.0924683-.1382446-.1860962-.2216797-.2694092-.0836792-.0837402-.1787109-.1509399-.2724609-.2198486zm-3.8110352 1.6899414c.2832031-.2832031.659668-.4394531 1.0605469-.4394531s.7773438.15625 1.0605469.4394531.4394531.659668.4394531 1.0605469-.15625.7773438-.4394531 1.0605469c-.5664062.5664062-1.5546875.5664062-2.1210938 0-.2832031-.2832031-.4394531-.659668-.4394531-1.0605469s.15625-.7773438.4394531-1.0605469z"/><path d="m9.5 28c0 .2763672.2236328.5.5.5h2c.2763672 0 .5-.2236328.5-.5s-.2236328-.5-.5-.5h-2c-.2763672 0-.5.2236328-.5.5z"/><path d="m2 28.5h4c.2763672 0 .5-.2236328.5-.5s-.2236328-.5-.5-.5h-3.4907227c.2636719-7.2133789 6.2138672-13 13.4907227-13s13.2270508 5.7866211 13.4907227 13h-9.4907227c-.2763672 0-.5.2236328-.5.5s.2236328.5.5.5h10c.2763672 0 .5-.2236328.5-.5 0-7.9951172-6.5048828-14.5-14.5-14.5s-14.5 6.5048828-14.5 14.5c0 .2763672.2236328.5.5.5z"/><path d="m16.5 17v-1c0-.2763672-.2236328-.5-.5-.5s-.5.2236328-.5.5v1c0 .2763672.2236328.5.5.5s.5-.2236328.5-.5z"/><path d="m11.7905273 18.3374023c.0639648 0 .1289062-.012207.1914062-.0380859.2548828-.1054688.3759766-.3984375.2705078-.6533203l-.3828125-.9238281c-.1049805-.2548828-.3994141-.3759766-.6533203-.2705078-.2548828.1054688-.3759766.3984375-.2705078.6533203l.3828125.9238281c.0795898.1923828.2661133.3085938.4619141.3085938z"/><path d="m8.5751953 19.8681641-.7070312-.7070312c-.1953125-.1953125-.5117188-.1953125-.7070312 0s-.1953125.5117188 0 .7070312l.7070312.7070312c.0976562.0976562.2255859.1464844.3535156.1464844s.2558594-.0488281.3535156-.1464844c.1953125-.1953125.1953125-.5117188 0-.7070312z"/><path d="m5.1049805 22.9458008c-.2543945-.105957-.5478516.0151367-.6533203.2705078-.1054688.2548828.015625.5478516.2705078.6533203l.9238281.3828125c.0625.0258789.1274414.0380859.1914062.0380859.1958008 0 .3823242-.1162109.4619141-.3085938.1054688-.2548828-.015625-.5478516-.2705078-.6533203l-.9238281-.3828125z"/><path d="m20.2094727 18.3374023c.1958008 0 .3823242-.1162109.4619141-.3085938l.3828125-.9238281c.1054688-.2548828-.015625-.5478516-.2705078-.6533203-.2539062-.105957-.5473633.0151367-.6533203.2705078l-.3828125.9238281c-.1054688.2548828.015625.5478516.2705078.6533203.0625.0258789.1274414.0380859.1914062.0380859z"/><path d="m24.1318359 20.5751953.7070312-.7070312c.1953125-.1953125.1953125-.5117188 0-.7070312s-.5117188-.1953125-.7070312 0l-.7070312.7070312c-.1953125.1953125-.1953125.5117188 0 .7070312.0976562.0976562.2255859.1464844.3535156.1464844s.2558594-.0488281.3535156-.1464844z"/><path d="m26.1625977 24.2905273c.0639648 0 .1289062-.012207.1914062-.0380859l.9238281-.3828125c.2548828-.1054688.3759766-.3984375.2705078-.6533203-.1054688-.2553711-.3989258-.3759766-.6533203-.2705078l-.9238281.3828125c-.2548828.1054688-.3759766.3984375-.2705078.6533203.0795898.1923828.2661133.3085938.4619141.3085938z"/><path d="m7 15.2597656c.2763672 0 .5-.2236328.5-.5v-8.2597656h5v5.7797852c0 .2763672.2236328.5.5.5s.5-.2236328.5-.5v-9.7797852h5v9.7797852c0 .2763672.2236328.5.5.5s.5-.2236328.5-.5v-5.7797852h5v8.2597656c0 .2763672.2236328.5.5.5s.5-.2236328.5-.5v-8.7597656c0-.2763672-.2236328-.5-.5-.5h-5.5v-3.5c0-.2763672-.2236328-.5-.5-.5h-6c-.2763672 0-.5.2236328-.5.5v3.5h-5.5c-.2763672 0-.5.2236328-.5.5v8.7597656c0 .2763672.2236328.5.5.5z"/><path d="m17 12.5297852c.2763672 0 .5-.2236328.5-.5v-2.0297852c0-.2763672-.2236328-.5-.5-.5h-2c-.2763672 0-.5.2236328-.5.5v2.0297852c0 .2763672.2236328.5.5.5s.5-.2236328.5-.5v-1.5297852h1v1.5297852c0 .2763672.2236328.5.5.5z"/><path d="m11 13.2998047c.2763672 0 .5-.2236328.5-.5v-.7998047c0-.2763672-.2236328-.5-.5-.5h-2c-.2763672 0-.5.2236328-.5.5v1.6098633c0 .2763672.2236328.5.5.5s.5-.2236328.5-.5v-1.1098633h1v.2998047c0 .2763672.2236328.5.5.5z"/><path d="m23 14.1098633c.2763672 0 .5-.2236328.5-.5v-1.6098633c0-.2763672-.2236328-.5-.5-.5h-2c-.2763672 0-.5.2236328-.5.5v.7998047c0 .2763672.2236328.5.5.5s.5-.2236328.5-.5v-.2998047h1v1.1098633c0 .2763672.2236328.5.5.5z"/><path d="m23 9.5h-2c-.2763672 0-.5.2236328-.5.5s.2236328.5.5.5h2c.2763672 0 .5-.2236328.5-.5s-.2236328-.5-.5-.5z"/><path d="m17 7.5h-2c-.2763672 0-.5.2236328-.5.5s.2236328.5.5.5h2c.2763672 0 .5-.2236328.5-.5s-.2236328-.5-.5-.5z"/><path d="m11 9.5h-2c-.2763672 0-.5.2236328-.5.5s.2236328.5.5.5h2c.2763672 0 .5-.2236328.5-.5s-.2236328-.5-.5-.5z"/><path d="m11 7.5h-2c-.2763672 0-.5.2236328-.5.5s.2236328.5.5.5h2c.2763672 0 .5-.2236328.5-.5s-.2236328-.5-.5-.5z"/><path d="m17 5.5h-2c-.2763672 0-.5.2236328-.5.5s.2236328.5.5.5h2c.2763672 0 .5-.2236328.5-.5s-.2236328-.5-.5-.5z"/><path d="m17 3.5h-2c-.2763672 0-.5.2236328-.5.5s.2236328.5.5.5h2c.2763672 0 .5-.2236328.5-.5s-.2236328-.5-.5-.5z"/><path d="m23 7.5h-2c-.2763672 0-.5.2236328-.5.5s.2236328.5.5.5h2c.2763672 0 .5-.2236328.5-.5s-.2236328-.5-.5-.5z"/><path d="m2 18.5c.2763672 0 .5-.2236328.5-.5v-1.7929688l1.8535156-1.8535156c.09375-.09375.1464844-.2207031.1464844-.3535156v-3.7929688l.1464844.1464844c.0976562.0976562.2255859.1464844.3535156.1464844s.2558594-.0488281.3535156-.1464844c.1953125-.1953125.1953125-.5117188 0-.7070312l-1-1c-.1953125-.1953125-.5117188-.1953125-.7070312 0l-1 1c-.1953125.1953125-.1953125.5117188 0 .7070312s.5117188.1953125.7070312 0l.1464844-.1464844v3.5859375l-1.8535156 1.8535156c-.09375.09375-.1464844.2207031-.1464844.3535156v2c0 .2763672.2236328.5.5.5z"/><path d="m27.3535156 10.3535156.1464844-.1464844v3.7929688c0 .1328125.0527344.2597656.1464844.3535156l1.8535156 1.8535156v1.7929688c0 .2763672.2236328.5.5.5s.5-.2236328.5-.5v-2c0-.1328125-.0527344-.2597656-.1464844-.3535156l-1.8535156-1.8535156v-3.5859375l.1464844.1464844c.0976562.0976562.2255859.1464844.3535156.1464844s.2558594-.0488281.3535156-.1464844c.1953125-.1953125.1953125-.5117188 0-.7070312l-1-1c-.1953125-.1953125-.5117188-.1953125-.7070312 0l-1 1c-.1953125.1953125-.1953125.5117188 0 .7070312s.5117188.1953125.7070312 0z"/><circle cx="8" cy="28" r=".5"/></g></svg>