<svg height="512" viewBox="0 0 55 58" width="512" xmlns="http://www.w3.org/2000/svg"><g id="Page-1" fill="none" fill-rule="evenodd"><g id="012---Notification"><path id="Path" d="m21 6.26v-3.26c0-1.65685421 1.3431458-2.99999991 3-2.99999991s3 1.3431457 3 2.99999991v3.26z" fill="#f29c1f"/><path id="Path" d="m42.28 34.99c.1.91.23 1.83.4 2.74l1.32 7.27h-40l1.32-7.27c.45117709-2.4812764.67875661-4.9980381.68-7.52v-6.21c-.00185624-7.0774045 4.1450058-13.4986947 10.5965792-16.40848156 6.4515734-2.90978685 14.0096816-1.76766916 19.3134208 2.91848156z" fill="#f0c419"/><path id="Path" d="m10 25c-.55228475 0-1-.4477153-1-1-.00903899-4.601925 2.1052193-8.9507293 5.73-11.786.2808108-.2211474.6582713-.2756853.990196-.1430697.3319246.1326155.5678861.432237.619.786.0511139.3537629-.0903852.7079223-.371196.9290697-3.1420634 2.4567273-4.9751683 6.225514-4.968 10.214 0 .5522847-.4477153 1-1 1z" fill="#f3d55b"/><rect id="Rectangle" fill="#f3d55b" height="8" rx="4" width="48" y="45"/><path id="Path" d="m19 53h10c0 2.7614237-2.2385763 5-5 5s-5-2.2385763-5-5z" fill="#f29c1f"/><circle id="Oval" cx="42" cy="22" fill="#e64c3c" r="13"/><path id="Path" d="m44 28h-1v-13c-.0000863-.4043959-.2437275-.7689341-.6173454-.923678-.373618-.1547439-.8036603-.0692299-1.0896546.216678l-2 2c-.3789722.3923789-.3735524 1.0160848.0121814 1.4018186s1.0094397.3911536 1.4018186.0121814l.293-.293v10.586h-1c-.5522847 0-1 .4477153-1 1s.4477153 1 1 1h4c.5522847 0 1-.4477153 1-1s-.4477153-1-1-1z" fill="#ecf0f1"/></g></g></svg>