<?xml version="1.0" encoding="iso-8859-1"?>
<!-- Generator: Adobe Illustrator 28.0.0, SVG Export Plug-In . SVG Version: 6.00 Build 0)  -->
<svg version="1.1" id="Layer_1" xmlns="http://www.w3.org/2000/svg" xmlns:xlink="http://www.w3.org/1999/xlink" x="0px" y="0px"
	 viewBox="0 0 512 512" style="enable-background:new 0 0 512 512;" xml:space="preserve">
<g>
	<g>
		<g>
			<g>
				
					<ellipse transform="matrix(0.8284 -0.5602 0.5602 0.8284 -98.9606 188.9883)" style="fill:#67CCD1;" cx="258.953" cy="256" rx="260.28" ry="113.099"/>
			</g>
			<g>
				<path style="fill:#27A2CC;" d="M164.549,256c0-26.505,2.759-52.366,8.005-77.311C67.917,256.835,10.677,353.492,43.341,401.798
					c22.7,33.57,83.245,35.541,155.491,10.795C176.826,364.962,164.549,311.915,164.549,256z"/>
			</g>
		</g>
		<g>
			<g>
				<path style="fill:#BC9AF4;" d="M195.599,349.69c77.284,52.26,157.018,80.429,213.034,79.62
					c8.716-0.126,16.858-0.953,24.327-2.501c18.49-3.831,32.857-12.075,41.604-25.011c34.989-51.743-33.179-158.966-152.258-239.488
					S78.331,58.459,43.341,110.202S76.52,269.168,195.599,349.69z"/>
			</g>
			<g>
				<path style="fill:#6864F7;" d="M164.549,256c0-55.915,12.278-108.962,34.284-156.593
					C126.586,74.661,66.042,76.632,43.341,110.202c-32.665,48.306,24.576,144.963,129.212,223.109
					C167.308,308.366,164.549,282.505,164.549,256z"/>
			</g>
		</g>
		<g>
			<g>
				<ellipse style="fill:#FFFFFF;" cx="258.953" cy="256" rx="106.895" ry="246"/>
			</g>
			<g>
				<path style="fill:#D2DCFD;" d="M207.761,205.361c0-72.583,23.932-139.576,64.335-193.52C267.789,10.626,263.403,10,258.953,10
					c-59.036,0-106.895,110.138-106.895,246s47.858,246,106.895,246c24.064,0,46.271-18.3,64.136-49.182
					C252.576,393.544,207.761,304.686,207.761,205.361z"/>
			</g>
		</g>
		<g>
			<path style="fill:#FD6050;" d="M306.983,310.673h-96.06v-4.264c0-26.526,21.504-48.03,48.03-48.03h0
				c26.526,0,48.03,21.504,48.03,48.03V310.673z"/>
		</g>
		<g>
			<circle style="fill:#FDE0BE;" cx="258.953" cy="228.362" r="30.018"/>
		</g>
	</g>
	<g>
		<g>
			<path style="fill:#052A75;" d="M441.852,256c8.504-10.479,16.138-21.006,22.797-31.481c31.027-48.802,37.49-91.39,18.199-119.918
				c-11.22-16.593-30.693-27.188-56.315-30.638c-5.472-0.74-10.508,3.103-11.245,8.576c-0.737,5.473,3.103,10.508,8.576,11.245
				c20.095,2.706,34.366,10.115,42.417,22.02c14.342,21.21,7.596,56.924-18.508,97.985c-5.65,8.887-12.053,17.824-19.136,26.742
				c-16.606-18.506-35.806-36.702-57.018-54.023c-3.91-31.313-10.467-60.64-19.414-86.542c18.483-4.554,35.938-7.052,51.805-7.276
				c5.522-0.078,9.936-4.618,9.857-10.141c-0.079-5.522-4.657-9.909-10.141-9.857c-17.973,0.254-37.767,3.182-58.675,8.514
				c-0.443-1.053-0.889-2.1-1.341-3.139C321.835,27.725,291.734,0,258.953,0s-62.882,27.725-84.757,78.066
				c-0.453,1.043-0.902,2.094-1.346,3.152c-20.283-5.177-39.513-8.094-57.033-8.497c-5.509-0.108-10.1,4.246-10.228,9.768
				c-0.127,5.521,4.246,10.1,9.768,10.228c15.466,0.356,32.419,2.844,50.34,7.265c-8.946,25.906-15.504,55.238-19.412,86.554
				c-21.208,17.338-40.414,35.556-56.997,54.018c-7.091-8.926-13.499-17.87-19.154-26.765
				c-26.105-41.061-32.851-76.775-18.509-97.985c7.273-10.755,19.698-17.866,36.93-21.134c5.426-1.029,8.99-6.262,7.961-11.688
				s-6.26-8.991-11.688-7.961c-22.658,4.298-39.403,14.25-49.77,29.581c-19.292,28.528-12.829,71.116,18.198,119.918
				c6.662,10.479,14.3,21.011,22.808,31.494c-13.219,16.266-24.288,32.584-32.787,48.522c-2.599,4.873-0.755,10.93,4.119,13.529
				c1.499,0.799,3.109,1.178,4.696,1.178c3.575,0,7.033-1.922,8.833-5.297c7.428-13.93,16.981-28.199,28.34-42.483
				c16.608,18.508,35.809,36.706,57.023,54.029c3.907,31.296,10.461,60.608,19.4,86.5c-5.489,1.35-10.905,2.526-16.234,3.521
				c-47.831,8.934-83.486,1.893-97.829-19.317c-12.595-18.627-6.887-44.195,0.12-62.364c1.987-5.153-0.579-10.941-5.732-12.928
				c-5.154-1.99-10.941,0.58-12.928,5.732c-12.507,32.432-11.825,60.359,1.973,80.764c14.233,21.048,40.781,31.937,76.56,31.935
				c12.715-0.001,26.604-1.377,41.509-4.161c6.469-1.208,13.054-2.666,19.735-4.363c0.44,1.048,0.885,2.09,1.334,3.123
				C196.071,484.275,226.172,512,258.953,512s62.882-27.725,84.757-78.066c0.444-1.022,0.884-2.052,1.32-3.089
				c21.865,5.561,42.521,8.484,61.204,8.482c0.848,0,1.704-0.006,2.544-0.018c5.522-0.08,9.934-4.621,9.854-10.144
				c-0.08-5.522-4.65-9.927-10.144-9.854c-0.733,0.011-1.462,0.016-2.203,0.016c-16.298-0.001-34.564-2.564-54.043-7.406
				c8.926-25.874,15.471-55.162,19.375-86.428c21.212-17.322,40.412-35.518,57.018-54.024c7.083,8.918,13.486,17.855,19.136,26.742
				c26.104,41.061,32.851,76.775,18.508,97.985c-7.042,10.415-18.935,17.419-35.348,20.82c-5.408,1.121-8.884,6.413-7.763,11.821
				c0.979,4.724,5.14,7.973,9.782,7.973c0.672,0,1.355-0.068,2.039-0.21c21.694-4.495,37.796-14.32,47.858-29.201
				c19.292-28.528,12.829-71.116-18.198-119.918C457.99,277.006,450.357,266.479,441.852,256z M348.842,168.823
				c-6.818-5.035-13.801-9.973-20.934-14.797c-15.419-10.427-31.105-20.005-46.818-28.643c17.664-8.105,35.061-14.83,51.817-20.032
				C339.661,124.636,345.012,146.018,348.842,168.823z M355.847,256c0,20.189-1.065,39.984-3.133,59.042
				c-11.453,9.078-23.486,17.896-36.009,26.364c-19.02,12.861-38.371,24.376-57.634,34.359
				c-19.411-10.001-38.888-21.524-57.87-34.359c-12.523-8.468-24.556-17.286-36.009-26.364c-2.068-19.058-3.134-38.853-3.134-59.042
				c0-20.184,1.065-39.973,3.132-59.026c11.457-9.089,23.494-17.916,36.01-26.38c19.056-12.886,38.462-24.411,57.74-34.393
				c19.301,9.987,38.719,21.514,57.765,34.393c12.523,8.468,24.557,17.287,36.009,26.364
				C354.782,216.016,355.847,235.811,355.847,256z M192.539,86.037C210.775,44.07,234.982,20,258.953,20s48.178,24.07,66.414,66.037
				c0.101,0.232,0.201,0.466,0.302,0.698c-21.576,6.788-44.057,15.911-66.73,27.098c-22.658-11.172-45.135-20.292-66.708-27.083
				C192.333,86.513,192.436,86.275,192.539,86.037z M184.992,105.37c16.752,5.203,34.145,11.925,51.797,20.02
				c-15.694,8.633-31.369,18.208-46.791,28.637c-7.131,4.822-14.115,9.762-20.935,14.804
				C172.891,146.03,178.241,124.653,184.992,105.37z M102.258,256.004c12.249-13.83,26.092-27.563,41.24-40.905
				c-0.953,13.401-1.439,27.069-1.439,40.901c0,13.842,0.487,27.519,1.441,40.929C128.365,283.604,114.529,269.875,102.258,256.004z
				 M169.064,343.177c6.818,5.035,13.8,9.973,20.934,14.796c15.462,10.456,31.135,20.039,46.8,28.67
				c-17.587,8.063-34.965,14.77-51.807,19.98C178.241,387.345,172.892,365.973,169.064,343.177z M325.367,425.963
				C307.131,467.93,282.924,492,258.953,492s-48.178-24.07-66.414-66.037c-0.096-0.221-0.191-0.443-0.287-0.664
				c21.668-6.796,44.111-15.914,66.704-27.076c22.687,11.211,45.139,20.327,66.687,27.1
				C325.551,425.537,325.459,425.75,325.367,425.963z M332.957,406.507c-16.707-5.205-34.078-11.909-51.683-19.95
				c15.639-8.624,31.252-18.182,46.633-28.583c7.133-4.823,14.116-9.761,20.934-14.796
				C345.022,365.926,339.687,387.258,332.957,406.507z M374.406,296.929c0.954-13.41,1.441-27.087,1.441-40.929
				s-0.487-27.518-1.441-40.929c15.136,13.326,28.974,27.056,41.245,40.929C403.38,269.873,389.542,283.603,374.406,296.929z"/>
			<path style="fill:#052A75;" d="M287.799,256.071c6.915-7.196,11.172-16.965,11.172-27.709c0-22.066-17.952-40.019-40.018-40.019
				s-40.018,17.952-40.018,40.019c0,10.744,4.257,20.513,11.171,27.709c-17.425,10.024-29.184,28.835-29.184,50.34v4.263
				c0,5.523,4.477,10,10,10h96.06c5.523,0,10-4.477,10-10v-4.263C316.983,284.905,305.224,266.095,287.799,256.071z
				 M238.935,228.362c0-11.038,8.98-20.019,20.018-20.019c11.038,0,20.018,8.98,20.018,20.019s-8.98,20.018-20.018,20.018
				C247.915,248.38,238.935,239.4,238.935,228.362z M221.354,300.673c2.774-18.258,18.578-32.293,37.599-32.293
				s34.824,14.035,37.598,32.293H221.354z"/>
		</g>
		<g>
			<g>
				<circle style="fill:#FD8F01;" cx="100.208" cy="85.737" r="25.532"/>
			</g>
			<g>
				<circle style="fill:#FDCB50;" cx="419.868" cy="427.285" r="25.532"/>
			</g>
			<g>
				<circle style="fill:#FD6050;" cx="413.485" cy="82.673" r="25.532"/>
			</g>
			<g>
				<circle style="fill:#DB4B86;" cx="43.783" cy="321.913" r="25.532"/>
			</g>
		</g>
	</g>
</g>
<g>
</g>
<g>
</g>
<g>
</g>
<g>
</g>
<g>
</g>
<g>
</g>
<g>
</g>
<g>
</g>
<g>
</g>
<g>
</g>
<g>
</g>
<g>
</g>
<g>
</g>
<g>
</g>
<g>
</g>
</svg>
