<svg id="Layer_1" enable-background="new 0 0 64 64" height="64" viewBox="0 0 64 64" width="64" xmlns="http://www.w3.org/2000/svg"><g><g fill="#2b2f64"><path d="m32.285 21.377c0 .543-.437.97-.97.97h-19.707c-.533 0-.97-.426-.97-.97 0-.533.437-.97.97-.97h19.707c.533 0 .97.437.97.97z"/><path d="m28.454 27.196c0 .534-.437.97-.97.97h-15.876c-.533 0-.97-.437-.97-.97 0-.543.437-.97.97-.97h15.876c.534 0 .97.427.97.97z"/><path d="m25.583 33.005c0 .534-.437.97-.97.97h-13.005c-.533 0-.97-.437-.97-.97s.437-.97.97-.97h13.005c.534 0 .97.437.97.97z"/><path d="m49.983 25.518c-3.743-3.743-9.833-3.734-13.567 0-3.743 3.744-3.743 9.834 0 13.578 1.862 1.872 4.325 2.803 6.779 2.803 2.463 0 4.917-.931 6.789-2.803 3.743-3.744 3.743-9.834-.001-13.578zm-1.367 12.2c-2.987 2.987-7.846 2.987-10.833 0-1.271-1.261-1.988-2.871-2.182-4.529v-1.765c.194-1.658.912-3.268 2.182-4.529 1.493-1.494 3.452-2.24 5.411-2.24s3.928.747 5.421 2.24c2.979 2.987 2.979 7.836.001 10.823z"/><path d="m62.155 45.409-7.273-6.526c2.871-5.111 2.153-11.715-2.202-16.06-4.636-4.646-11.851-5.16-17.078-1.562v-4.995c0-.533-.437-.97-.97-.97h-7.371l-5.179-4.325c-.359-.301-.883-.301-1.242 0l-5.169 4.325h-7.37c-.543 0-.97.437-.97.97v5.994l-6.992 5.838c-.213.184-.339.456-.339.747v.019 23.421c0 .049.019.087.019.136.01.059.02.126.039.185.029.078.068.136.106.194.02.029.029.078.058.106.01.01.02.01.029.02.078.087.165.155.262.204.02.01.039.029.058.039.117.048.252.087.398.087h40.994c.146 0 .271-.039.397-.087.01-.01.02-.02.039-.029.106-.058.204-.126.281-.213.01-.01.019-.01.029-.02.02-.029.029-.068.048-.097.039-.068.087-.126.107-.204.02-.058.029-.117.039-.175.01-.048.029-.097.029-.146v-6.585c.087.01.175.02.262.02 2.279 0 4.548-.591 6.585-1.736l6.507 7.264c1.028 1.164 2.299 1.823 3.579 1.862h.126c1.038 0 1.998-.417 2.803-1.212.824-.824 1.241-1.843 1.203-2.929-.039-1.271-.698-2.542-1.842-3.56zm-40.694-32.43 2.774 2.318h-5.547zm-12.19 4.257h24.391v5.645c-3.792 3.831-4.791 9.388-3.006 14.14l-3.171 2.647c-.117.058-.233.136-.33.243-.01.02-.01.029-.02.048l-5.673 4.742-12.191-10.183zm-1.939 7.555v8.107l-4.849-4.054zm-5.393 6.129 11.541 9.64-11.541 9.649zm1.698 20.395 11.356-9.484 5.848 4.878c.175.155.398.233.621.233s.437-.078.621-.233l5.848-4.888 11.366 9.494zm37.357-1.106-11.55-9.649 2.046-1.717c.592 1.057 1.329 2.056 2.221 2.948 2.056 2.056 4.616 3.288 7.283 3.734zm-5.907-9.785c-4.48-4.481-4.48-11.754 0-16.235 2.23-2.23 5.169-3.355 8.107-3.355s5.877 1.125 8.117 3.355c4.471 4.48 4.471 11.754 0 16.235-4.47 4.471-11.753 4.471-16.224 0zm26.34 10.105c-.446.446-.97.669-1.503.64-.728-.019-1.523-.465-2.192-1.212l-6.323-7.061c.446-.339.873-.698 1.271-1.105.407-.407.776-.834 1.115-1.271l7.07 6.333c.737.659 1.174 1.455 1.203 2.182.009.544-.204 1.048-.641 1.494z"/></g><path d="m62.067 49.036c.01.543-.204 1.047-.64 1.493-.446.446-.97.669-1.503.64-.728-.019-1.523-.465-2.192-1.212l-6.323-7.061c.446-.339.873-.698 1.271-1.105.407-.407.776-.834 1.115-1.271l7.07 6.333c.737.66 1.174 1.456 1.202 2.183z" fill="#e15f5a"/><path d="m51.312 24.189c-2.24-2.23-5.179-3.355-8.117-3.355s-5.877 1.125-8.107 3.355c-4.48 4.48-4.48 11.754 0 16.235 4.471 4.471 11.754 4.471 16.225 0 4.47-4.481 4.47-11.754-.001-16.235zm-1.329 14.907c-1.872 1.872-4.325 2.803-6.789 2.803-2.454 0-4.917-.931-6.779-2.803-3.743-3.744-3.743-9.834 0-13.578 3.734-3.734 9.824-3.743 13.567 0 3.745 3.744 3.745 9.834.001 13.578z" fill="#f26e62"/><path d="m48.616 37.718c-2.987 2.987-7.846 2.987-10.833 0-1.271-1.261-1.988-2.871-2.182-4.529v-1.765c.194-1.658.912-3.268 2.182-4.529 1.493-1.494 3.452-2.24 5.411-2.24s3.928.747 5.421 2.24c2.979 2.987 2.979 7.836.001 10.823z" fill="#ededed"/><path d="m24.235 15.296h-5.547l2.773-2.317z" fill="#fedc7d"/><path d="m7.332 24.791v8.107l-4.85-4.053z" fill="#fedc7d"/><path d="m40.994 45.525v4.684l-11.55-9.649 2.046-1.717c.592 1.057 1.329 2.056 2.221 2.948 2.055 2.057 4.616 3.288 7.283 3.734z" fill="#fedc7d"/><path d="m13.48 40.56-11.541 9.649v-19.289z" fill="#fedc7d"/><path d="m39.296 51.315h-35.659l11.356-9.484 5.848 4.878c.175.155.398.233.621.233s.437-.078.621-.233l5.848-4.888z" fill="#ebc25d"/><path d="m33.662 17.236h-24.391v17.282l12.19 10.183 5.673-4.742c.01-.02.01-.029.02-.048.097-.107.213-.185.33-.243l3.171-2.647c-1.784-4.752-.786-10.309 3.006-14.14v-5.645zm-9.048 16.739h-13.006c-.533 0-.97-.437-.97-.97s.437-.97.97-.97h13.005c.533 0 .97.437.97.97 0 .534-.436.97-.969.97zm2.87-5.809h-15.876c-.533 0-.97-.437-.97-.97 0-.543.437-.97.97-.97h15.876c.533 0 .97.427.97.97 0 .533-.436.97-.97.97zm3.831-5.819h-19.707c-.533 0-.97-.426-.97-.97 0-.533.437-.97.97-.97h19.707c.533 0 .97.437.97.97 0 .543-.437.97-.97.97z" fill="#ededed"/></g></svg>