<svg id="OBJECT" height="512" viewBox="0 0 512 512" width="512" xmlns="http://www.w3.org/2000/svg"><path d="m362.83 320.4-42.43 42.43a15 15 0 0 1 -21.21 0l-34.75-34.75 63.64-63.64 34.75 34.75a15 15 0 0 1 0 21.21z" fill="#084963"/><path d="m341.36 333.43h40v55.86h-40z" fill="#f5eeec" transform="matrix(.707 -.707 .707 .707 -149.68 361.36)"/><rect fill="#084963" height="30" rx="15" transform="matrix(.707 -.707 .707 .707 -162.26 391.72)" width="108.28" x="337.58" y="376.72"/><path d="m497.18 497.18a25 25 0 0 1 -35.36 0l-77.17-77.18 35.35-35.35 77.18 77.17a25 25 0 0 1 0 35.36z" fill="#838fff"/><circle cx="187.5" cy="187.5" fill="#084963" r="180"/><circle cx="187.5" cy="187.5" fill="#838fff" r="150"/><path d="m116.84 115.69c-10.54 17-23.68 56.74 32.4 110.07 53.33 56.08 93.08 42.94 110.07 32.4a17.41 17.41 0 0 0 8.1-16.57l-1.14-11.17a6 6 0 0 0 -4.26-5.14l-39.63-11.8a6 6 0 0 0 -5.89 1.44l-13.23 12.81c-13.3-2.71-33.6-22.39-33.6-22.39s-19.66-20.34-22.39-33.6l12.81-13.23a6 6 0 0 0 1.44-5.89l-11.8-39.62a6 6 0 0 0 -5.14-4.26l-11.17-1.14a17.41 17.41 0 0 0 -16.57 8.09z" fill="#f5eeec"/><g fill="#053544"><path d="m502.5 456.53-71.89-71.88 4.7-4.7a22.5 22.5 0 0 0 -31.82-31.82l-8.24 8.23-28.89-28.89 1.77-1.77a22.5 22.5 0 0 0 0-31.82l-16.26-16.25a186.25 186.25 0 0 0 23.13-90.13c0-103.39-84.11-187.5-187.5-187.5s-187.5 84.11-187.5 187.5 84.11 187.5 187.5 187.5a186.25 186.25 0 0 0 90.13-23.13l16.25 16.26a22.51 22.51 0 0 0 31.83 0l1.76-1.77 28.89 28.89-8.23 8.24a22.5 22.5 0 0 0 31.87 31.82l4.7-4.7 71.88 71.89a32.51 32.51 0 0 0 46-46zm-487.5-269.03c0-95.12 77.38-172.5 172.5-172.5s172.5 77.38 172.5 172.5-77.38 172.5-172.5 172.5-172.5-77.38-172.5-172.5zm294.79 172.22a7.44 7.44 0 0 1 -5.3-2.2l-13.65-13.65a188.86 188.86 0 0 0 53-53l13.65 13.65a7.5 7.5 0 0 1 0 10.61l-42.39 42.39a7.45 7.45 0 0 1 -5.31 2.2zm28.29-4 17.68-17.68 28.89 28.96-17.65 17.65zm20.66 68.94a7.5 7.5 0 0 1 0-10.61l55.35-55.35a7.5 7.5 0 1 1 10.61 10.6l-55.36 55.4a7.51 7.51 0 0 1 -10.6 0zm133.15 67.19a17.53 17.53 0 0 1 -24.75 0l-71.89-71.85 24.75-24.75 71.89 71.89a17.53 17.53 0 0 1 0 24.75z"/><path d="m187.5 30c-86.85 0-157.5 70.65-157.5 157.5s70.65 157.5 157.5 157.5 157.5-70.65 157.5-157.5-70.65-157.5-157.5-157.5zm0 300c-78.57 0-142.5-63.92-142.5-142.5s63.93-142.5 142.5-142.5 142.5 63.92 142.5 142.5-63.92 142.5-142.5 142.5z"/><path d="m283.81 123.76a7.5 7.5 0 1 0 -12.28 8.62c.32.45.64.9 1 1.36a7.5 7.5 0 1 0 12.42-8.4c-.41-.53-.77-1.06-1.14-1.58z"/><path d="m187.5 88.5a102.44 102.44 0 0 1 66.65 24.69 7.5 7.5 0 0 0 9.77-11.38 117.43 117.43 0 0 0 -76.42-28.31 7.5 7.5 0 0 0 0 15z"/><path d="m273.73 229.66a13.47 13.47 0 0 0 -9.58-11.57l-39.63-11.8a13.5 13.5 0 0 0 -13.24 3.24l-10 9.7c-8.26-3.5-20-13.09-26.29-19.19-6.1-6.32-15.69-18-19.19-26.29l9.7-10a13.51 13.51 0 0 0 3.24-13.24l-11.8-39.63a13.47 13.47 0 0 0 -11.57-9.58l-11.17-1.14a25.06 25.06 0 0 0 -23.71 11.61 69.92 69.92 0 0 0 -9.85 46.31c3.09 24 17.66 48.58 43.32 73 24.44 25.65 49 40.23 73 43.32a75.28 75.28 0 0 0 9.52.61 69.55 69.55 0 0 0 36.79-10.46 25.06 25.06 0 0 0 11.61-23.71zm-18.38 22.13c-16.68 10.35-51.93 20.06-100.68-31.19a3.44 3.44 0 0 0 -.27-.27c-51.25-48.75-41.54-84-31.19-100.68a9.94 9.94 0 0 1 8.44-4.65h1l10.17 1 11.26 37.83-12.2 12.61a7.5 7.5 0 0 0 -2 6.71c3.06 15 22.18 35.08 24.35 37.32a1.37 1.37 0 0 0 .17.17c2.24 2.17 22.31 21.29 37.32 24.35a7.49 7.49 0 0 0 6.71-2l12.61-12.2 37.83 11.26 1 10.17a10 10 0 0 1 -4.52 9.57z"/></g></svg>