<svg height="512" viewBox="0 0 64 64" width="512" xmlns="http://www.w3.org/2000/svg"><g id="Indentity_theft" data-name="Indentity theft"><path d="m61 7v30a4 4 0 0 1 -4 4h-50a4 4 0 0 1 -4-4v-30a4 4 0 0 1 4-4h50a4 4 0 0 1 4 4z" fill="#ffb655"/><path d="m53 38h-42a4 4 0 0 1 -4-4v-30a3.977 3.977 0 0 1 .141-1h-.141a4 4 0 0 0 -4 4v30a4 4 0 0 0 4 4h50a3.989 3.989 0 0 0 3.859-3z" fill="#ffa733"/><circle cx="44" cy="20" fill="#ff5023" r="13"/><path d="m25 44a5 5 0 0 0 5 5h3v-8h-8z" fill="#ffac96"/><path d="m9 9h16v16h-16z" fill="#d1e7f8"/><circle cx="17" cy="15" fill="none" r="2"/><path d="m17 18a4 4 0 0 0 -4 4v3h8v-3a4 4 0 0 0 -4-4z" fill="#2488ff"/><circle cx="17" cy="15" fill="#006df0" r="2"/><path d="m47 37h-8v13a5 5 0 0 0 10 0v-13z" fill="#006df0"/><circle cx="44" cy="20" fill="#ffb655" r="9" transform="matrix(.83 -.558 .558 .83 -3.669 27.979)"/><path d="m21 33a4 4 0 0 0 -4 4v4h-9l-3.595 8.088a2 2 0 0 0 .079 1.784l4.264 7.675a2 2 0 0 1 .252.971v2.482h16v-25a4 4 0 0 0 -4-4z" fill="#ffbcab"/><path d="m39.5 12.206a9 9 0 1 0 12.294 3.294 9 9 0 0 0 -12.294-3.294z" fill="none"/><path d="m41 32.638v4.362h6v-4.362a12.612 12.612 0 0 1 -6 0z" fill="#2488ff"/><g fill="#f1f2f2"><path d="m41 17h6a1 1 0 0 0 0-2h-6a1 1 0 0 0 0 2z"/><path d="m47 23h-6a1 1 0 0 0 0 2h6a1 1 0 0 0 0-2z"/><path d="m49 19h-10a1 1 0 0 0 0 2h10a1 1 0 0 0 0-2z"/></g><path d="m25 28h-16a1 1 0 0 0 0 2h16a1 1 0 0 0 0-2z" fill="#006df0"/><path d="m16 41h1v7h-1z" fill="#ffa087"/></g></svg>