<svg id="Layer_2" height="512" viewBox="0 0 512 512" width="512" xmlns="http://www.w3.org/2000/svg" xmlns:xlink="http://www.w3.org/1999/xlink" data-name="Layer 2"><linearGradient id="linear-gradient" gradientUnits="userSpaceOnUse" x1="43.95" x2="468.05" y1="43.95" y2="468.05"><stop offset="0" stop-color="#2492ff"/><stop offset="1" stop-color="#0043ae"/></linearGradient><linearGradient id="linear-gradient-2" gradientUnits="userSpaceOnUse" x1="247.09" x2="436.04" y1="311.09" y2="500.04"><stop offset="0" stop-opacity=".35"/><stop offset="1" stop-opacity="0"/></linearGradient><g id="Icon"><g id="_134" data-name="134"><path id="BG" d="m150 0h212c82.8 0 150 67.2 150 150v212c0 82.8-67.2 150-150 150h-212c-82.8 0-150-67.2-150-150v-212c0-82.8 67.2-150 150-150z" fill="url(#linear-gradient)"/><path d="m504.6 408.6-152.6-152.6-135.15 85.32-24.85 74.68 96 96h74c66.53 0 122.98-43.39 142.6-103.4z" fill="url(#linear-gradient-2)"/><path d="m192 96v96l64 64-64 64v96l160-160z" fill="#fff"/></g></g></svg>