<?xml version="1.0" encoding="iso-8859-1"?>
<!-- Generator: Adobe Illustrator 27.2.0, SVG Export Plug-In . SVG Version: 6.00 Build 0)  -->
<svg version="1.1" id="Capa_1" xmlns="http://www.w3.org/2000/svg" xmlns:xlink="http://www.w3.org/1999/xlink" x="0px" y="0px"
	 viewBox="0 0 510 510" style="enable-background:new 0 0 510 510;" xml:space="preserve">
<g>
	<g id="Bookmark_1_">
		<polygon style="fill:#FDCB50;" points="88.898,10 88.898,500 255,375.423 421.102,500 421.102,10 		"/>
		<path style="fill:#FD8F01;" d="M421.105,404.105v95.89l-166.1-124.57l-166.11,124.57v-95.89l148.966-111.713
			c10.16-7.619,24.128-7.619,34.288,0L421.105,404.105z"/>
		<path style="fill:#6864F7;" d="M296.845,220.238l29.261-28.82c3.247-3.198,1.449-8.73-3.057-9.408l-40.612-6.117
			c-1.78-0.268-3.318-1.385-4.123-2.995l-18.367-36.734c-2.038-4.076-7.855-4.076-9.893,0l-18.367,36.734
			c-0.805,1.61-2.343,2.727-4.123,2.995l-40.612,6.117c-4.506,0.679-6.304,6.211-3.057,9.408l29.261,28.82
			c1.282,1.263,1.87,3.071,1.575,4.847l-6.734,40.516c-0.747,4.496,3.959,7.915,8.003,5.815l36.452-18.924
			c1.598-0.829,3.499-0.829,5.096,0L294,271.415c4.045,2.1,8.75-1.319,8.003-5.815l-6.734-40.516
			C294.975,223.309,295.562,221.501,296.845,220.238z"/>
	</g>
	<g id="Bookmark_00000058573508616462659330000001897652924485424790_">
		<g>
			<path style="fill:#1C2E72;" d="M421.103,510c-2.125,0-4.236-0.677-6.001-2L255,387.924L94.898,508
				c-3.03,2.272-7.084,2.637-10.472,0.944c-3.389-1.694-5.528-5.156-5.528-8.944V10c0-5.522,4.478-10,10-10h332.204
				c5.522,0,10,4.478,10,10v490c0,3.788-2.14,7.25-5.528,8.944C424.16,509.651,422.627,510,421.103,510z M255,365.424
				c2.111,0,4.223,0.667,6,2L411.102,480V20H98.898v460L249,367.424C250.777,366.091,252.888,365.424,255,365.424z"/>
		</g>
		<g>
			<path style="fill:#1C2E72;" d="M206.184,286.512c-2.074,0-4.137-0.645-5.879-1.91c-3.064-2.226-4.607-5.993-3.986-9.729
				l8.166-49.138l-35.488-34.952c-2.698-2.658-3.663-6.613-2.493-10.215c1.171-3.603,4.276-6.234,8.021-6.799l49.255-7.418
				l22.275-44.552c1.694-3.389,5.156-5.528,8.944-5.528s7.25,2.14,8.944,5.528l22.276,44.552l49.255,7.418
				c3.745,0.564,6.851,3.196,8.021,6.799c1.17,3.602,0.205,7.557-2.493,10.215l-35.488,34.952l8.166,49.138
				c0.621,3.736-0.922,7.503-3.986,9.729c-3.065,2.227-7.124,2.53-10.485,0.785L255,262.437l-44.209,22.95
				C209.339,286.141,207.758,286.512,206.184,286.512z M255,241.169c1.582,0,3.163,0.375,4.607,1.125l31.066,16.127l-5.738-34.528
				c-0.534-3.211,0.528-6.48,2.847-8.765l24.938-24.561l-34.611-5.213c-3.219-0.485-5.999-2.506-7.455-5.417L255,148.632
				l-15.652,31.306c-1.455,2.911-4.236,4.932-7.455,5.417l-34.611,5.213l24.938,24.561c2.318,2.284,3.381,5.554,2.847,8.765
				l-5.738,34.528l31.065-16.127C251.836,241.544,253.417,241.169,255,241.169z"/>
		</g>
	</g>
</g>
<g>
</g>
<g>
</g>
<g>
</g>
<g>
</g>
<g>
</g>
<g>
</g>
<g>
</g>
<g>
</g>
<g>
</g>
<g>
</g>
<g>
</g>
<g>
</g>
<g>
</g>
<g>
</g>
<g>
</g>
</svg>
