{
    "asset" : {
        "generator" : "Khronos glTF Blender I/O v3.2.40",
        "version" : "2.0"
    },
    "scene" : 0,
    "scenes" : [
        {
            "name" : "Scene",
            "nodes" : [
                0
            ]
        }
    ],
    "nodes" : [
        {
            "mesh" : 0,
            "name" : "3",
            "rotation" : [
                0,
                0,
                -1,
                7.549790836947068e-08
            ],
            "scale" : [
                -0.07702451199293137,
                -0.07702451199293137,
                -0.07702451199293137
            ],
            "translation" : [
                -0.002428710460662842,
                0,
                -0.34523749351501465
            ]
        }
    ],
    "materials" : [
        {
            "doubleSided" : true,
            "name" : "Material.007",
            "pbrMetallicRoughness" : {
                "baseColorFactor" : [
                    0.005180617794394493,
                    0.6038268804550171,
                    0.6795424222946167,
                    1
                ],
                "metallicFactor" : 0,
                "roughnessFactor" : 0.5
            }
        },
        {
            "doubleSided" : true,
            "name" : "Material.001",
            "pbrMetallicRoughness" : {
                "baseColorFactor" : [
                    0.005180617794394493,
                    0.6038268804550171,
                    0.6795424222946167,
                    1
                ],
                "metallicFactor" : 0,
                "roughnessFactor" : 0.5
            }
        },
        {
            "doubleSided" : true,
            "name" : "Material.006",
            "pbrMetallicRoughness" : {
                "baseColorFactor" : [
                    0.005180617794394493,
                    0.6038268804550171,
                    0.6795424222946167,
                    1
                ],
                "metallicFactor" : 0,
                "roughnessFactor" : 0.5
            }
        },
        {
            "doubleSided" : true,
            "name" : "Material.004",
            "pbrMetallicRoughness" : {
                "baseColorFactor" : [
                    0.005180617794394493,
                    0.6038268804550171,
                    0.6795424222946167,
                    1
                ],
                "metallicFactor" : 0,
                "roughnessFactor" : 0.5
            }
        },
        {
            "doubleSided" : true,
            "name" : "Material.009",
            "pbrMetallicRoughness" : {
                "baseColorFactor" : [
                    0.005180617794394493,
                    0.6038268804550171,
                    0.6795424222946167,
                    1
                ],
                "metallicFactor" : 0,
                "roughnessFactor" : 0.5
            }
        },
        {
            "doubleSided" : true,
            "name" : "Material.002",
            "pbrMetallicRoughness" : {
                "baseColorFactor" : [
                    0,
                    0,
                    0,
                    1
                ],
                "metallicFactor" : 0,
                "roughnessFactor" : 0.5
            }
        },
        {
            "doubleSided" : true,
            "name" : "Material.003",
            "pbrMetallicRoughness" : {
                "baseColorFactor" : [
                    0,
                    0,
                    0,
                    1
                ],
                "metallicFactor" : 0,
                "roughnessFactor" : 0.5
            }
        },
        {
            "doubleSided" : true,
            "name" : "Material.005",
            "pbrMetallicRoughness" : {
                "baseColorFactor" : [
                    0,
                    0,
                    0,
                    1
                ],
                "metallicFactor" : 0,
                "roughnessFactor" : 0.5
            }
        },
        {
            "doubleSided" : true,
            "name" : "Material.008",
            "pbrMetallicRoughness" : {
                "baseColorFactor" : [
                    0,
                    0,
                    0,
                    1
                ],
                "metallicFactor" : 0,
                "roughnessFactor" : 0.5
            }
        },
        {
            "doubleSided" : true,
            "name" : "Material.010",
            "pbrMetallicRoughness" : {
                "baseColorFactor" : [
                    0,
                    0,
                    0,
                    1
                ],
                "metallicFactor" : 0,
                "roughnessFactor" : 0.5
            }
        }
    ],
    "meshes" : [
        {
            "name" : "Cube.004",
            "primitives" : [
                {
                    "attributes" : {
                        "POSITION" : 0,
                        "NORMAL" : 1,
                        "TEXCOORD_0" : 2
                    },
                    "indices" : 3,
                    "material" : 0
                },
                {
                    "attributes" : {
                        "POSITION" : 4,
                        "NORMAL" : 5,
                        "TEXCOORD_0" : 6
                    },
                    "indices" : 7,
                    "material" : 1
                },
                {
                    "attributes" : {
                        "POSITION" : 8,
                        "NORMAL" : 9,
                        "TEXCOORD_0" : 10
                    },
                    "indices" : 11,
                    "material" : 2
                },
                {
                    "attributes" : {
                        "POSITION" : 12,
                        "NORMAL" : 13,
                        "TEXCOORD_0" : 14
                    },
                    "indices" : 15,
                    "material" : 3
                },
                {
                    "attributes" : {
                        "POSITION" : 16,
                        "NORMAL" : 17,
                        "TEXCOORD_0" : 18
                    },
                    "indices" : 19,
                    "material" : 4
                },
                {
                    "attributes" : {
                        "POSITION" : 20,
                        "NORMAL" : 21,
                        "TEXCOORD_0" : 22
                    },
                    "indices" : 23,
                    "material" : 5
                },
                {
                    "attributes" : {
                        "POSITION" : 24,
                        "NORMAL" : 25,
                        "TEXCOORD_0" : 26
                    },
                    "indices" : 27,
                    "material" : 6
                },
                {
                    "attributes" : {
                        "POSITION" : 28,
                        "NORMAL" : 29,
                        "TEXCOORD_0" : 30
                    },
                    "indices" : 31,
                    "material" : 7
                },
                {
                    "attributes" : {
                        "POSITION" : 32,
                        "NORMAL" : 33,
                        "TEXCOORD_0" : 34
                    },
                    "indices" : 35,
                    "material" : 8
                },
                {
                    "attributes" : {
                        "POSITION" : 36,
                        "NORMAL" : 37,
                        "TEXCOORD_0" : 38
                    },
                    "indices" : 39,
                    "material" : 9
                }
            ]
        }
    ],
    "accessors" : [
        {
            "bufferView" : 0,
            "componentType" : 5126,
            "count" : 4096,
            "max" : [
                23.951343536376953,
                5.281513690948486,
                0.19243013858795166
            ],
            "min" : [
                -23.951343536376953,
                -8.884127616882324,
                -16.67502784729004
            ],
            "type" : "VEC3"
        },
        {
            "bufferView" : 1,
            "componentType" : 5126,
            "count" : 4096,
            "type" : "VEC3"
        },
        {
            "bufferView" : 2,
            "componentType" : 5126,
            "count" : 4096,
            "type" : "VEC2"
        },
        {
            "bufferView" : 3,
            "componentType" : 5123,
            "count" : 6144,
            "type" : "SCALAR"
        },
        {
            "bufferView" : 4,
            "componentType" : 5126,
            "count" : 64768,
            "max" : [
                8.75013542175293,
                6.675268173217773,
                8.293682098388672
            ],
            "min" : [
                -8.68707275390625,
                -9.6583251953125,
                -20.568269729614258
            ],
            "type" : "VEC3"
        },
        {
            "bufferView" : 5,
            "componentType" : 5126,
            "count" : 64768,
            "type" : "VEC3"
        },
        {
            "bufferView" : 6,
            "componentType" : 5126,
            "count" : 64768,
            "type" : "VEC2"
        },
        {
            "bufferView" : 7,
            "componentType" : 5123,
            "count" : 97152,
            "type" : "SCALAR"
        },
        {
            "bufferView" : 8,
            "componentType" : 5126,
            "count" : 4096,
            "max" : [
                29.005746841430664,
                7.846341133117676,
                20.521808624267578
            ],
            "min" : [
                -29.005746841430664,
                -10.29397964477539,
                0.5216414332389832
            ],
            "type" : "VEC3"
        },
        {
            "bufferView" : 9,
            "componentType" : 5126,
            "count" : 4096,
            "type" : "VEC3"
        },
        {
            "bufferView" : 10,
            "componentType" : 5126,
            "count" : 4096,
            "type" : "VEC2"
        },
        {
            "bufferView" : 11,
            "componentType" : 5123,
            "count" : 6144,
            "type" : "SCALAR"
        },
        {
            "bufferView" : 12,
            "componentType" : 5126,
            "count" : 4096,
            "max" : [
                22.78011131286621,
                6.727954387664795,
                25.669153213500977
            ],
            "min" : [
                -22.780115127563477,
                -11.359461784362793,
                1.0784634351730347
            ],
            "type" : "VEC3"
        },
        {
            "bufferView" : 13,
            "componentType" : 5126,
            "count" : 4096,
            "type" : "VEC3"
        },
        {
            "bufferView" : 14,
            "componentType" : 5126,
            "count" : 4096,
            "type" : "VEC2"
        },
        {
            "bufferView" : 15,
            "componentType" : 5123,
            "count" : 6144,
            "type" : "SCALAR"
        },
        {
            "bufferView" : 16,
            "componentType" : 5126,
            "count" : 4096,
            "max" : [
                20.84200668334961,
                6.6932902336120605,
                -0.7133033275604248
            ],
            "min" : [
                -20.842010498046875,
                -8.254728317260742,
                -32.60417938232422
            ],
            "type" : "VEC3"
        },
        {
            "bufferView" : 17,
            "componentType" : 5126,
            "count" : 4096,
            "type" : "VEC3"
        },
        {
            "bufferView" : 18,
            "componentType" : 5126,
            "count" : 4096,
            "type" : "VEC2"
        },
        {
            "bufferView" : 19,
            "componentType" : 5123,
            "count" : 6144,
            "type" : "SCALAR"
        },
        {
            "bufferView" : 20,
            "componentType" : 5126,
            "count" : 7924,
            "max" : [
                8.67795181274414,
                6.603151321411133,
                8.222532272338867
            ],
            "min" : [
                -8.614889144897461,
                -9.586155891418457,
                -20.496395111083984
            ],
            "type" : "VEC3"
        },
        {
            "bufferView" : 21,
            "componentType" : 5126,
            "count" : 7924,
            "type" : "VEC3"
        },
        {
            "bufferView" : 22,
            "componentType" : 5126,
            "count" : 7924,
            "type" : "VEC2"
        },
        {
            "bufferView" : 23,
            "componentType" : 5123,
            "count" : 12144,
            "type" : "SCALAR"
        },
        {
            "bufferView" : 24,
            "componentType" : 5126,
            "count" : 512,
            "max" : [
                22.692068099975586,
                6.637229919433594,
                25.594730377197266
            ],
            "min" : [
                -22.69207191467285,
                -11.31367015838623,
                1.1703228950500488
            ],
            "type" : "VEC3"
        },
        {
            "bufferView" : 25,
            "componentType" : 5126,
            "count" : 512,
            "type" : "VEC3"
        },
        {
            "bufferView" : 26,
            "componentType" : 5126,
            "count" : 512,
            "type" : "VEC2"
        },
        {
            "bufferView" : 27,
            "componentType" : 5123,
            "count" : 768,
            "type" : "SCALAR"
        },
        {
            "bufferView" : 28,
            "componentType" : 5126,
            "count" : 504,
            "max" : [
                28.926244735717773,
                7.760849952697754,
                20.455636978149414
            ],
            "min" : [
                -28.92624855041504,
                -10.236492156982422,
                0.6073558330535889
            ],
            "type" : "VEC3"
        },
        {
            "bufferView" : 29,
            "componentType" : 5126,
            "count" : 504,
            "type" : "VEC3"
        },
        {
            "bufferView" : 30,
            "componentType" : 5126,
            "count" : 504,
            "type" : "VEC2"
        },
        {
            "bufferView" : 31,
            "componentType" : 5123,
            "count" : 768,
            "type" : "SCALAR"
        },
        {
            "bufferView" : 32,
            "componentType" : 5126,
            "count" : 508,
            "max" : [
                23.882862091064453,
                5.207639217376709,
                0.11849632114171982
            ],
            "min" : [
                -23.882862091064453,
                -8.835611343383789,
                -16.61735725402832
            ],
            "type" : "VEC3"
        },
        {
            "bufferView" : 33,
            "componentType" : 5126,
            "count" : 508,
            "type" : "VEC3"
        },
        {
            "bufferView" : 34,
            "componentType" : 5126,
            "count" : 508,
            "type" : "VEC2"
        },
        {
            "bufferView" : 35,
            "componentType" : 5123,
            "count" : 768,
            "type" : "SCALAR"
        },
        {
            "bufferView" : 36,
            "componentType" : 5126,
            "count" : 510,
            "max" : [
                20.728506088256836,
                6.578464984893799,
                -0.8289318084716797
            ],
            "min" : [
                -20.728506088256836,
                -8.185434341430664,
                -32.52338409423828
            ],
            "type" : "VEC3"
        },
        {
            "bufferView" : 37,
            "componentType" : 5126,
            "count" : 510,
            "type" : "VEC3"
        },
        {
            "bufferView" : 38,
            "componentType" : 5126,
            "count" : 510,
            "type" : "VEC2"
        },
        {
            "bufferView" : 39,
            "componentType" : 5123,
            "count" : 768,
            "type" : "SCALAR"
        }
    ],
    "bufferViews" : [
        {
            "buffer" : 0,
            "byteLength" : 49152,
            "byteOffset" : 0
        },
        {
            "buffer" : 0,
            "byteLength" : 49152,
            "byteOffset" : 49152
        },
        {
            "buffer" : 0,
            "byteLength" : 32768,
            "byteOffset" : 98304
        },
        {
            "buffer" : 0,
            "byteLength" : 12288,
            "byteOffset" : 131072
        },
        {
            "buffer" : 0,
            "byteLength" : 777216,
            "byteOffset" : 143360
        },
        {
            "buffer" : 0,
            "byteLength" : 777216,
            "byteOffset" : 920576
        },
        {
            "buffer" : 0,
            "byteLength" : 518144,
            "byteOffset" : 1697792
        },
        {
            "buffer" : 0,
            "byteLength" : 194304,
            "byteOffset" : 2215936
        },
        {
            "buffer" : 0,
            "byteLength" : 49152,
            "byteOffset" : 2410240
        },
        {
            "buffer" : 0,
            "byteLength" : 49152,
            "byteOffset" : 2459392
        },
        {
            "buffer" : 0,
            "byteLength" : 32768,
            "byteOffset" : 2508544
        },
        {
            "buffer" : 0,
            "byteLength" : 12288,
            "byteOffset" : 2541312
        },
        {
            "buffer" : 0,
            "byteLength" : 49152,
            "byteOffset" : 2553600
        },
        {
            "buffer" : 0,
            "byteLength" : 49152,
            "byteOffset" : 2602752
        },
        {
            "buffer" : 0,
            "byteLength" : 32768,
            "byteOffset" : 2651904
        },
        {
            "buffer" : 0,
            "byteLength" : 12288,
            "byteOffset" : 2684672
        },
        {
            "buffer" : 0,
            "byteLength" : 49152,
            "byteOffset" : 2696960
        },
        {
            "buffer" : 0,
            "byteLength" : 49152,
            "byteOffset" : 2746112
        },
        {
            "buffer" : 0,
            "byteLength" : 32768,
            "byteOffset" : 2795264
        },
        {
            "buffer" : 0,
            "byteLength" : 12288,
            "byteOffset" : 2828032
        },
        {
            "buffer" : 0,
            "byteLength" : 95088,
            "byteOffset" : 2840320
        },
        {
            "buffer" : 0,
            "byteLength" : 95088,
            "byteOffset" : 2935408
        },
        {
            "buffer" : 0,
            "byteLength" : 63392,
            "byteOffset" : 3030496
        },
        {
            "buffer" : 0,
            "byteLength" : 24288,
            "byteOffset" : 3093888
        },
        {
            "buffer" : 0,
            "byteLength" : 6144,
            "byteOffset" : 3118176
        },
        {
            "buffer" : 0,
            "byteLength" : 6144,
            "byteOffset" : 3124320
        },
        {
            "buffer" : 0,
            "byteLength" : 4096,
            "byteOffset" : 3130464
        },
        {
            "buffer" : 0,
            "byteLength" : 1536,
            "byteOffset" : 3134560
        },
        {
            "buffer" : 0,
            "byteLength" : 6048,
            "byteOffset" : 3136096
        },
        {
            "buffer" : 0,
            "byteLength" : 6048,
            "byteOffset" : 3142144
        },
        {
            "buffer" : 0,
            "byteLength" : 4032,
            "byteOffset" : 3148192
        },
        {
            "buffer" : 0,
            "byteLength" : 1536,
            "byteOffset" : 3152224
        },
        {
            "buffer" : 0,
            "byteLength" : 6096,
            "byteOffset" : 3153760
        },
        {
            "buffer" : 0,
            "byteLength" : 6096,
            "byteOffset" : 3159856
        },
        {
            "buffer" : 0,
            "byteLength" : 4064,
            "byteOffset" : 3165952
        },
        {
            "buffer" : 0,
            "byteLength" : 1536,
            "byteOffset" : 3170016
        },
        {
            "buffer" : 0,
            "byteLength" : 6120,
            "byteOffset" : 3171552
        },
        {
            "buffer" : 0,
            "byteLength" : 6120,
            "byteOffset" : 3177672
        },
        {
            "buffer" : 0,
            "byteLength" : 4080,
            "byteOffset" : 3183792
        },
        {
            "buffer" : 0,
            "byteLength" : 1536,
            "byteOffset" : 3187872
        }
    ],
    "buffers" : [
        {
            "byteLength" : 3189408,
            "uri" : "358.bin"
        }
    ]
}
